# This file uses centimeters as units for non-parametric coordinates.

mtllib OuterBuildingRow2--Ruins_OBJ.mtl
g default
v 115.797195 0.920591 -57.256496
v 130.797195 0.920591 -57.256496
v 115.797195 35.149441 -61.489948
v 130.797195 31.437035 -61.030792
v 115.797195 31.014854 -76.092873
v 130.797195 29.027683 -75.847092
v 115.797195 -0.920591 -72.143066
v 130.797195 -0.920591 -72.143066
v 118.043892 0.000000 73.188774
v 133.043884 0.000000 73.188774
v 118.043892 34.489655 73.188774
v 133.043884 30.748960 73.188774
v 118.043892 32.178776 58.188774
v 133.043884 30.176462 58.188774
v 118.043892 0.000000 58.188774
v 133.043884 0.000000 58.188774
v 114.860008 0.000000 58.231766
v 129.860016 0.000000 58.231766
v 114.860008 34.489655 58.231766
v 129.860016 30.748960 58.231766
v 114.860008 32.178776 43.231766
v 129.860016 30.176462 43.231766
v 114.860008 0.000000 43.231766
v 129.860016 0.000000 43.231766
v 116.517586 3.256604 94.276543
v 131.517578 3.256604 94.276543
v 116.517586 34.325222 79.300659
v 131.517578 30.955570 80.924919
v 116.517586 25.730354 66.791924
v 131.517578 23.926651 67.661354
v 116.517586 -3.256604 80.764397
v 131.517578 -3.256604 80.764397
v 126.820755 0.000000 104.291580
v 141.820755 0.000000 104.291580
v 126.820755 34.489655 104.291580
v 141.820755 30.748960 104.291580
v 126.820755 32.178776 89.291580
v 141.820755 30.176462 89.291580
v 126.820755 0.000000 89.291580
v 141.820755 0.000000 89.291580
vt 0.375000 0.000000
vt 0.625000 0.000000
vt 0.625000 0.250000
vt 0.375000 0.250000
vt 0.625000 0.500000
vt 0.375000 0.500000
vt 0.625000 0.750000
vt 0.375000 0.750000
vt 0.625000 1.000000
vt 0.375000 1.000000
vt 0.875000 0.000000
vt 0.875000 0.250000
vt 0.125000 0.000000
vt 0.125000 0.250000
vt 0.375000 0.000000
vt 0.625000 0.000000
vt 0.625000 0.250000
vt 0.375000 0.250000
vt 0.625000 0.500000
vt 0.375000 0.500000
vt 0.625000 0.750000
vt 0.375000 0.750000
vt 0.625000 1.000000
vt 0.375000 1.000000
vt 0.875000 0.000000
vt 0.875000 0.250000
vt 0.125000 0.000000
vt 0.125000 0.250000
vt 0.375000 0.000000
vt 0.625000 0.000000
vt 0.625000 0.250000
vt 0.375000 0.250000
vt 0.625000 0.500000
vt 0.375000 0.500000
vt 0.625000 0.750000
vt 0.375000 0.750000
vt 0.625000 1.000000
vt 0.375000 1.000000
vt 0.875000 0.000000
vt 0.875000 0.250000
vt 0.125000 0.000000
vt 0.125000 0.250000
vt 0.375000 0.000000
vt 0.625000 0.000000
vt 0.625000 0.250000
vt 0.375000 0.250000
vt 0.625000 0.500000
vt 0.375000 0.500000
vt 0.625000 0.750000
vt 0.375000 0.750000
vt 0.625000 1.000000
vt 0.375000 1.000000
vt 0.875000 0.000000
vt 0.875000 0.250000
vt 0.125000 0.000000
vt 0.125000 0.250000
vt 0.375000 0.000000
vt 0.625000 0.000000
vt 0.625000 0.250000
vt 0.375000 0.250000
vt 0.625000 0.500000
vt 0.375000 0.500000
vt 0.625000 0.750000
vt 0.375000 0.750000
vt 0.625000 1.000000
vt 0.375000 1.000000
vt 0.875000 0.000000
vt 0.875000 0.250000
vt 0.125000 0.000000
vt 0.125000 0.250000
vn 0.000000 0.122746 0.992438
vn 0.000000 0.122746 0.992438
vn 0.000000 0.122746 0.992438
vn 0.000000 0.122746 0.992438
vn 0.187187 0.958889 -0.213293
vn 0.187187 0.958889 -0.213293
vn 0.187187 0.958889 -0.213293
vn 0.187187 0.958889 -0.213293
vn 0.000000 -0.122746 -0.992438
vn 0.000000 -0.122746 -0.992438
vn 0.000000 -0.122746 -0.992438
vn 0.000000 -0.122746 -0.992438
vn 0.000000 -0.992438 0.122746
vn 0.000000 -0.992438 0.122746
vn 0.000000 -0.992438 0.122746
vn 0.000000 -0.992438 0.122746
vn 1.000000 0.000000 0.000000
vn 1.000000 0.000000 0.000000
vn 1.000000 0.000000 0.000000
vn 1.000000 0.000000 0.000000
vn -1.000000 0.000000 0.000000
vn -1.000000 0.000000 0.000000
vn -1.000000 0.000000 0.000000
vn -1.000000 0.000000 0.000000
vn 0.000000 0.000000 1.000000
vn 0.000000 0.000000 1.000000
vn 0.000000 0.000000 1.000000
vn 0.000000 0.000000 1.000000
vn 0.187187 0.977818 -0.093981
vn 0.187187 0.977818 -0.093981
vn 0.187187 0.977818 -0.093981
vn 0.187187 0.977818 -0.093981
vn 0.000000 0.000000 -1.000000
vn 0.000000 0.000000 -1.000000
vn 0.000000 0.000000 -1.000000
vn 0.000000 0.000000 -1.000000
vn 0.000000 -1.000000 0.000000
vn 0.000000 -1.000000 0.000000
vn 0.000000 -1.000000 0.000000
vn 0.000000 -1.000000 0.000000
vn 1.000000 0.000000 0.000000
vn 1.000000 0.000000 0.000000
vn 1.000000 0.000000 0.000000
vn 1.000000 0.000000 0.000000
vn -1.000000 0.000000 0.000000
vn -1.000000 0.000000 0.000000
vn -1.000000 0.000000 0.000000
vn -1.000000 0.000000 0.000000
vn 0.000000 0.000000 1.000000
vn 0.000000 0.000000 1.000000
vn 0.000000 0.000000 1.000000
vn 0.000000 0.000000 1.000000
vn 0.187187 0.977818 -0.093981
vn 0.187187 0.977818 -0.093981
vn 0.187187 0.977818 -0.093981
vn 0.187187 0.977818 -0.093981
vn 0.000000 0.000000 -1.000000
vn 0.000000 0.000000 -1.000000
vn 0.000000 0.000000 -1.000000
vn 0.000000 0.000000 -1.000000
vn 0.000000 -1.000000 0.000000
vn 0.000000 -1.000000 0.000000
vn 0.000000 -1.000000 0.000000
vn 0.000000 -1.000000 0.000000
vn 1.000000 0.000000 0.000000
vn 1.000000 0.000000 0.000000
vn 1.000000 0.000000 0.000000
vn 1.000000 0.000000 0.000000
vn -1.000000 0.000000 0.000000
vn -1.000000 0.000000 0.000000
vn -1.000000 0.000000 0.000000
vn -1.000000 0.000000 0.000000
vn 0.000000 0.434214 0.900810
vn 0.000000 0.434214 0.900810
vn 0.000000 0.434214 0.900810
vn 0.000000 0.434214 0.900810
vn 0.187187 0.840020 -0.509241
vn 0.187187 0.840020 -0.509241
vn 0.187187 0.840020 -0.509241
vn 0.187187 0.840020 -0.509241
vn 0.000000 -0.434214 -0.900810
vn 0.000000 -0.434214 -0.900810
vn 0.000000 -0.434214 -0.900810
vn 0.000000 -0.434214 -0.900810
vn 0.000000 -0.900810 0.434214
vn 0.000000 -0.900810 0.434214
vn 0.000000 -0.900810 0.434214
vn 0.000000 -0.900810 0.434214
vn 1.000000 0.000000 0.000000
vn 1.000000 0.000000 0.000000
vn 1.000000 0.000000 0.000000
vn 1.000000 0.000000 0.000000
vn -1.000000 0.000000 0.000000
vn -1.000000 0.000000 0.000000
vn -1.000000 0.000000 0.000000
vn -1.000000 0.000000 0.000000
vn 0.000000 0.000000 1.000000
vn 0.000000 0.000000 1.000000
vn 0.000000 0.000000 1.000000
vn 0.000000 0.000000 1.000000
vn 0.187187 0.977818 -0.093981
vn 0.187187 0.977818 -0.093981
vn 0.187187 0.977818 -0.093981
vn 0.187187 0.977818 -0.093981
vn 0.000000 0.000000 -1.000000
vn 0.000000 0.000000 -1.000000
vn 0.000000 0.000000 -1.000000
vn 0.000000 0.000000 -1.000000
vn 0.000000 -1.000000 0.000000
vn 0.000000 -1.000000 0.000000
vn 0.000000 -1.000000 0.000000
vn 0.000000 -1.000000 0.000000
vn 1.000000 0.000000 0.000000
vn 1.000000 0.000000 0.000000
vn 1.000000 0.000000 0.000000
vn 1.000000 0.000000 0.000000
vn -1.000000 0.000000 0.000000
vn -1.000000 0.000000 0.000000
vn -1.000000 0.000000 0.000000
vn -1.000000 0.000000 0.000000
s 1
g polySurface70
usemtl lambert3SG
f 2/2/1 4/3/2 1/1/3
f 1/1/3 4/3/2 3/4/4
s 2
f 3/4/5 4/3/6 5/6/7
f 5/6/7 4/3/6 6/5/8
s 3
f 5/6/9 6/5/10 7/8/11
f 7/8/11 6/5/10 8/7/12
s 4
f 7/8/13 8/7/14 1/10/15
f 1/10/15 8/7/14 2/9/16
s 5
f 8/11/17 6/12/18 2/2/19
f 2/2/19 6/12/18 4/3/20
s 6
f 7/13/21 1/1/22 5/14/23
f 5/14/23 1/1/22 3/4/24
s 7
f 10/16/25 12/17/26 9/15/27
f 9/15/27 12/17/26 11/18/28
s 8
f 11/18/29 12/17/30 13/20/31
f 13/20/31 12/17/30 14/19/32
s 9
f 13/20/33 14/19/34 15/22/35
f 15/22/35 14/19/34 16/21/36
s 10
f 15/22/37 16/21/38 9/24/39
f 9/24/39 16/21/38 10/23/40
s 11
f 16/25/41 14/26/42 10/16/43
f 10/16/43 14/26/42 12/17/44
s 12
f 15/27/45 9/15/46 13/28/47
f 13/28/47 9/15/46 11/18/48
s 13
f 18/30/49 20/31/50 17/29/51
f 17/29/51 20/31/50 19/32/52
s 14
f 19/32/53 20/31/54 21/34/55
f 21/34/55 20/31/54 22/33/56
s 15
f 21/34/57 22/33/58 23/36/59
f 23/36/59 22/33/58 24/35/60
s 16
f 23/36/61 24/35/62 17/38/63
f 17/38/63 24/35/62 18/37/64
s 17
f 24/39/65 22/40/66 18/30/67
f 18/30/67 22/40/66 20/31/68
s 18
f 23/41/69 17/29/70 21/42/71
f 21/42/71 17/29/70 19/32/72
s 19
f 26/44/73 28/45/74 25/43/75
f 25/43/75 28/45/74 27/46/76
s 20
f 27/46/77 28/45/78 29/48/79
f 29/48/79 28/45/78 30/47/80
s 21
f 29/48/81 30/47/82 31/50/83
f 31/50/83 30/47/82 32/49/84
s 22
f 31/50/85 32/49/86 25/52/87
f 25/52/87 32/49/86 26/51/88
s 23
f 32/53/89 30/54/90 26/44/91
f 26/44/91 30/54/90 28/45/92
s 24
f 31/55/93 25/43/94 29/56/95
f 29/56/95 25/43/94 27/46/96
s 25
f 34/58/97 36/59/98 33/57/99
f 33/57/99 36/59/98 35/60/100
s 26
f 35/60/101 36/59/102 37/62/103
f 37/62/103 36/59/102 38/61/104
s 27
f 37/62/105 38/61/106 39/64/107
f 39/64/107 38/61/106 40/63/108
s 28
f 39/64/109 40/63/110 33/66/111
f 33/66/111 40/63/110 34/65/112
s 29
f 40/67/113 38/68/114 34/58/115
f 34/58/115 38/68/114 36/59/116
s 30
f 39/69/117 33/57/118 37/70/119
f 37/70/119 33/57/118 35/60/120
