# This file uses centimeters as units for non-parametric coordinates.

mtllib OuterBuildingRow3--Ruins1_OBJ.mtl
g default
v 61.029709 0.000000 127.996216
v 71.029709 0.000000 127.996216
v 61.029709 17.769119 127.996216
v 71.029709 22.451847 127.996216
v 61.029709 20.959522 117.996216
v 71.029709 20.959522 117.996216
v 61.029709 0.000000 117.996216
v 71.029709 0.000000 117.996216
v 61.775482 0.000000 132.012375
v 70.734795 0.000000 132.012375
v 61.775482 8.898138 132.012375
v 70.734795 7.864676 132.012375
v 61.775482 10.000000 127.012367
v 70.734795 10.000000 127.012367
v 61.775482 0.000000 127.012367
v 70.734795 0.000000 127.012367
v 7.943896 0.000000 123.744286
v 0.166080 0.000000 130.029633
v 7.943896 17.769119 123.744286
v 0.166080 22.451847 130.029633
v 14.229242 20.959522 131.522095
v 6.451426 20.959522 137.807449
v 14.229242 0.000000 131.522095
v 6.451426 0.000000 137.807449
v 4.839557 0.000000 121.089333
v -2.128833 0.000000 126.720573
v 4.839557 8.898138 121.089333
v -2.128833 7.864676 126.720573
v 7.982229 10.000000 124.978241
v 1.013839 10.000000 130.609482
v 7.982229 0.000000 124.978241
v 1.013839 0.000000 130.609482
v -7.341999 0.000000 136.851685
v 2.658001 0.000000 136.851685
v -7.341999 17.769119 136.851685
v 2.658001 22.451847 136.851685
v -7.341999 20.959522 126.851685
v 2.658001 20.959522 126.851685
v -7.341999 0.000000 126.851685
v 2.658001 0.000000 126.851685
v -6.596227 0.000000 140.867844
v 2.363087 0.000000 140.867844
v -6.596227 8.898138 140.867844
v 2.363087 7.864676 140.867844
v -6.596227 10.000000 135.867844
v 2.363087 10.000000 135.867844
v -6.596227 0.000000 135.867844
v 2.363087 0.000000 135.867844
v -18.635811 0.000000 144.291229
v -8.635811 0.000000 144.291229
v -18.635811 17.769119 144.291229
v -8.635811 22.451847 144.291229
v -18.635811 20.959522 134.291229
v -8.635811 20.959522 134.291229
v -18.635811 0.000000 134.291229
v -8.635811 0.000000 134.291229
v -17.890039 0.000000 148.307388
v -8.930725 0.000000 148.307388
v -17.890039 8.898138 148.307388
v -8.930725 7.864676 148.307388
v -17.890039 10.000000 143.307388
v -8.930725 10.000000 143.307388
v -17.890039 0.000000 143.307388
v -8.930725 0.000000 143.307388
v -101.156242 0.000000 125.341537
v -91.156242 0.000000 125.341537
v -101.156242 17.769119 125.341537
v -91.156242 22.451847 125.341537
v -101.156242 20.959522 115.341537
v -91.156242 20.959522 115.341537
v -101.156242 0.000000 115.341537
v -91.156242 0.000000 115.341537
v -100.410469 0.000000 129.357697
v -91.451157 0.000000 129.357697
v -100.410469 8.898138 129.357697
v -91.451157 7.864676 129.357697
v -100.410469 10.000000 124.357689
v -91.451157 10.000000 124.357689
v -100.410469 0.000000 124.357689
v -91.451157 0.000000 124.357689
vt 0.176710 0.003886
vt 0.338556 0.003886
vt 0.176710 0.251943
vt 0.338556 0.251943
vt 0.176710 0.500000
vt 0.338556 0.500000
vt 0.176710 0.748057
vt 0.338556 0.748057
vt 0.176710 0.996114
vt 0.338556 0.996114
vt 0.500401 0.003886
vt 0.500401 0.251943
vt 0.014864 0.003886
vt 0.014864 0.251943
vt 0.727247 0.824037
vt 0.576416 0.823509
vt 0.579692 0.661680
vt 0.730524 0.662208
vt 0.582969 0.499851
vt 0.733800 0.500379
vt 0.586245 0.338022
vt 0.737077 0.338549
vt 0.589522 0.176193
vt 0.740353 0.176720
vt 0.425584 0.822982
vt 0.428861 0.661153
vt 0.878078 0.824564
vt 0.881355 0.662735
vt 0.176710 0.003886
vt 0.338556 0.003886
vt 0.176710 0.251943
vt 0.338556 0.251943
vt 0.176710 0.500000
vt 0.338556 0.500000
vt 0.176710 0.748057
vt 0.338556 0.748057
vt 0.176710 0.996114
vt 0.338556 0.996114
vt 0.500401 0.003886
vt 0.500401 0.251943
vt 0.014864 0.003886
vt 0.014864 0.251943
vt 0.576416 0.823509
vt 0.579692 0.661680
vt 0.727247 0.824037
vt 0.730524 0.662208
vt 0.582969 0.499851
vt 0.733800 0.500379
vt 0.737077 0.338549
vt 0.586245 0.338022
vt 0.740353 0.176720
vt 0.589522 0.176193
vt 0.425584 0.822982
vt 0.428861 0.661153
vt 0.878078 0.824564
vt 0.881355 0.662735
vt 0.176710 0.003886
vt 0.338556 0.003886
vt 0.176710 0.251943
vt 0.338556 0.251943
vt 0.176710 0.500000
vt 0.338556 0.500000
vt 0.176710 0.748057
vt 0.338556 0.748057
vt 0.176710 0.996114
vt 0.338556 0.996114
vt 0.500401 0.003886
vt 0.500401 0.251943
vt 0.014864 0.003886
vt 0.014864 0.251943
vt 0.576416 0.823509
vt 0.579692 0.661680
vt 0.727247 0.824037
vt 0.730524 0.662208
vt 0.582969 0.499851
vt 0.733800 0.500379
vt 0.737077 0.338549
vt 0.586245 0.338022
vt 0.740353 0.176720
vt 0.589522 0.176193
vt 0.425584 0.822982
vt 0.428861 0.661153
vt 0.878078 0.824564
vt 0.881355 0.662735
vt 0.176710 0.003886
vt 0.338556 0.003886
vt 0.176710 0.251943
vt 0.338556 0.251943
vt 0.176710 0.500000
vt 0.338556 0.500000
vt 0.176710 0.748057
vt 0.338556 0.748057
vt 0.176710 0.996114
vt 0.338556 0.996114
vt 0.500401 0.003886
vt 0.500401 0.251943
vt 0.014864 0.003886
vt 0.014864 0.251943
vt 0.576416 0.823509
vt 0.579692 0.661680
vt 0.727247 0.824037
vt 0.730524 0.662208
vt 0.582969 0.499851
vt 0.733800 0.500379
vt 0.737077 0.338549
vt 0.586245 0.338022
vt 0.740353 0.176720
vt 0.589522 0.176193
vt 0.425584 0.822982
vt 0.428861 0.661153
vt 0.878078 0.824564
vt 0.881355 0.662735
vt 0.176710 0.003886
vt 0.338556 0.003886
vt 0.176710 0.251943
vt 0.338556 0.251943
vt 0.176710 0.500000
vt 0.338556 0.500000
vt 0.176710 0.748057
vt 0.338556 0.748057
vt 0.176710 0.996114
vt 0.338556 0.996114
vt 0.500401 0.003886
vt 0.500401 0.251943
vt 0.014864 0.003886
vt 0.014864 0.251943
vt 0.576416 0.823509
vt 0.579692 0.661680
vt 0.727247 0.824037
vt 0.730524 0.662208
vt 0.582969 0.499851
vt 0.733800 0.500379
vt 0.737077 0.338549
vt 0.586245 0.338022
vt 0.740353 0.176720
vt 0.589522 0.176193
vt 0.425584 0.822982
vt 0.428861 0.661153
vt 0.878078 0.824564
vt 0.881355 0.662735
vn 0.000000 0.000000 1.000000
vn 0.000000 0.000000 1.000000
vn 0.000000 0.000000 1.000000
vn 0.000000 0.000000 1.000000
vn -0.227196 0.970358 0.082387
vn -0.227196 0.970358 0.082387
vn -0.227196 0.970358 0.082387
vn -0.227196 0.970358 0.082387
vn 0.000000 0.000000 -1.000000
vn 0.000000 0.000000 -1.000000
vn 0.000000 0.000000 -1.000000
vn 0.000000 0.000000 -1.000000
vn 0.000000 -1.000000 0.000000
vn 0.000000 -1.000000 0.000000
vn 0.000000 -1.000000 0.000000
vn 0.000000 -1.000000 0.000000
vn 1.000000 0.000000 0.000000
vn 1.000000 0.000000 0.000000
vn 1.000000 0.000000 0.000000
vn 1.000000 0.000000 0.000000
vn -1.000000 0.000000 0.000000
vn -1.000000 0.000000 0.000000
vn -1.000000 0.000000 0.000000
vn -1.000000 0.000000 0.000000
vn 0.000000 0.000000 1.000000
vn 0.000000 0.000000 1.000000
vn 0.000000 0.000000 1.000000
vn 0.000000 0.000000 1.000000
vn 0.054789 0.949963 0.307521
vn 0.054789 0.949963 0.307521
vn 0.054789 0.949963 0.307521
vn 0.054789 0.949963 0.307521
vn 0.000000 0.000000 -1.000000
vn 0.000000 0.000000 -1.000000
vn 0.000000 0.000000 -1.000000
vn 0.000000 0.000000 -1.000000
vn 0.000000 -1.000000 0.000000
vn 0.000000 -1.000000 0.000000
vn 0.000000 -1.000000 0.000000
vn 0.000000 -1.000000 0.000000
vn 1.000000 0.000000 0.000000
vn 1.000000 0.000000 0.000000
vn 1.000000 0.000000 0.000000
vn 1.000000 0.000000 0.000000
vn -1.000000 0.000000 0.000000
vn -1.000000 0.000000 0.000000
vn -1.000000 0.000000 0.000000
vn -1.000000 0.000000 0.000000
vn -0.628535 0.000000 -0.777782
vn -0.628535 0.000000 -0.777782
vn -0.628535 0.000000 -0.777782
vn -0.628535 0.000000 -0.777782
vn 0.124926 0.970358 -0.206880
vn 0.124926 0.970358 -0.206880
vn 0.124926 0.970358 -0.206880
vn 0.124926 0.970358 -0.206880
vn 0.628535 0.000000 0.777782
vn 0.628535 0.000000 0.777782
vn 0.628535 0.000000 0.777782
vn 0.628535 0.000000 0.777782
vn 0.000000 -1.000000 0.000000
vn 0.000000 -1.000000 0.000000
vn 0.000000 -1.000000 0.000000
vn 0.000000 -1.000000 0.000000
vn -0.777782 0.000000 0.628535
vn -0.777782 0.000000 0.628535
vn -0.777782 0.000000 0.628535
vn -0.777782 0.000000 0.628535
vn 0.777782 0.000000 -0.628535
vn 0.777782 0.000000 -0.628535
vn 0.777782 0.000000 -0.628535
vn 0.777782 0.000000 -0.628535
vn -0.628535 0.000000 -0.777782
vn -0.628535 0.000000 -0.777782
vn -0.628535 0.000000 -0.777782
vn -0.628535 0.000000 -0.777782
vn -0.235901 0.949963 -0.204747
vn -0.235901 0.949963 -0.204747
vn -0.235901 0.949963 -0.204747
vn -0.235901 0.949963 -0.204747
vn 0.628535 0.000000 0.777782
vn 0.628535 0.000000 0.777782
vn 0.628535 0.000000 0.777782
vn 0.628535 0.000000 0.777782
vn 0.000000 -1.000000 0.000000
vn 0.000000 -1.000000 0.000000
vn 0.000000 -1.000000 0.000000
vn 0.000000 -1.000000 0.000000
vn -0.777782 0.000000 0.628535
vn -0.777782 0.000000 0.628535
vn -0.777782 0.000000 0.628535
vn -0.777782 0.000000 0.628535
vn 0.777782 0.000000 -0.628535
vn 0.777782 0.000000 -0.628535
vn 0.777782 0.000000 -0.628535
vn 0.777782 0.000000 -0.628535
vn 0.000000 0.000000 1.000000
vn 0.000000 0.000000 1.000000
vn 0.000000 0.000000 1.000000
vn 0.000000 0.000000 1.000000
vn -0.227196 0.970358 0.082387
vn -0.227196 0.970358 0.082387
vn -0.227196 0.970358 0.082387
vn -0.227196 0.970358 0.082387
vn 0.000000 0.000000 -1.000000
vn 0.000000 0.000000 -1.000000
vn 0.000000 0.000000 -1.000000
vn 0.000000 0.000000 -1.000000
vn 0.000000 -1.000000 0.000000
vn 0.000000 -1.000000 0.000000
vn 0.000000 -1.000000 0.000000
vn 0.000000 -1.000000 0.000000
vn 1.000000 0.000000 0.000000
vn 1.000000 0.000000 0.000000
vn 1.000000 0.000000 0.000000
vn 1.000000 0.000000 0.000000
vn -1.000000 0.000000 0.000000
vn -1.000000 0.000000 0.000000
vn -1.000000 0.000000 0.000000
vn -1.000000 0.000000 0.000000
vn 0.000000 0.000000 1.000000
vn 0.000000 0.000000 1.000000
vn 0.000000 0.000000 1.000000
vn 0.000000 0.000000 1.000000
vn 0.054789 0.949963 0.307521
vn 0.054789 0.949963 0.307521
vn 0.054789 0.949963 0.307521
vn 0.054789 0.949963 0.307521
vn 0.000000 0.000000 -1.000000
vn 0.000000 0.000000 -1.000000
vn 0.000000 0.000000 -1.000000
vn 0.000000 0.000000 -1.000000
vn 0.000000 -1.000000 0.000000
vn 0.000000 -1.000000 0.000000
vn 0.000000 -1.000000 0.000000
vn 0.000000 -1.000000 0.000000
vn 1.000000 0.000000 0.000000
vn 1.000000 0.000000 0.000000
vn 1.000000 0.000000 0.000000
vn 1.000000 0.000000 0.000000
vn -1.000000 0.000000 0.000000
vn -1.000000 0.000000 0.000000
vn -1.000000 0.000000 0.000000
vn -1.000000 0.000000 0.000000
vn 0.000000 0.000000 1.000000
vn 0.000000 0.000000 1.000000
vn 0.000000 0.000000 1.000000
vn 0.000000 0.000000 1.000000
vn -0.227196 0.970358 0.082387
vn -0.227196 0.970358 0.082387
vn -0.227196 0.970358 0.082387
vn -0.227196 0.970358 0.082387
vn 0.000000 0.000000 -1.000000
vn 0.000000 0.000000 -1.000000
vn 0.000000 0.000000 -1.000000
vn 0.000000 0.000000 -1.000000
vn 0.000000 -1.000000 0.000000
vn 0.000000 -1.000000 0.000000
vn 0.000000 -1.000000 0.000000
vn 0.000000 -1.000000 0.000000
vn 1.000000 0.000000 0.000000
vn 1.000000 0.000000 0.000000
vn 1.000000 0.000000 0.000000
vn 1.000000 0.000000 0.000000
vn -1.000000 0.000000 0.000000
vn -1.000000 0.000000 0.000000
vn -1.000000 0.000000 0.000000
vn -1.000000 0.000000 0.000000
vn 0.000000 0.000000 1.000000
vn 0.000000 0.000000 1.000000
vn 0.000000 0.000000 1.000000
vn 0.000000 0.000000 1.000000
vn 0.054789 0.949963 0.307521
vn 0.054789 0.949963 0.307521
vn 0.054789 0.949963 0.307521
vn 0.054789 0.949963 0.307521
vn 0.000000 0.000000 -1.000000
vn 0.000000 0.000000 -1.000000
vn 0.000000 0.000000 -1.000000
vn 0.000000 0.000000 -1.000000
vn 0.000000 -1.000000 0.000000
vn 0.000000 -1.000000 0.000000
vn 0.000000 -1.000000 0.000000
vn 0.000000 -1.000000 0.000000
vn 1.000000 0.000000 0.000000
vn 1.000000 0.000000 0.000000
vn 1.000000 0.000000 0.000000
vn 1.000000 0.000000 0.000000
vn -1.000000 0.000000 0.000000
vn -1.000000 0.000000 0.000000
vn -1.000000 0.000000 0.000000
vn -1.000000 0.000000 0.000000
vn 0.000000 0.000000 1.000000
vn 0.000000 0.000000 1.000000
vn 0.000000 0.000000 1.000000
vn 0.000000 0.000000 1.000000
vn -0.227196 0.970358 0.082387
vn -0.227196 0.970358 0.082387
vn -0.227196 0.970358 0.082387
vn -0.227196 0.970358 0.082387
vn 0.000000 0.000000 -1.000000
vn 0.000000 0.000000 -1.000000
vn 0.000000 0.000000 -1.000000
vn 0.000000 0.000000 -1.000000
vn 0.000000 -1.000000 0.000000
vn 0.000000 -1.000000 0.000000
vn 0.000000 -1.000000 0.000000
vn 0.000000 -1.000000 0.000000
vn 1.000000 0.000000 0.000000
vn 1.000000 0.000000 0.000000
vn 1.000000 0.000000 0.000000
vn 1.000000 0.000000 0.000000
vn -1.000000 0.000000 0.000000
vn -1.000000 0.000000 0.000000
vn -1.000000 0.000000 0.000000
vn -1.000000 0.000000 0.000000
vn 0.000000 0.000000 1.000000
vn 0.000000 0.000000 1.000000
vn 0.000000 0.000000 1.000000
vn 0.000000 0.000000 1.000000
vn 0.054789 0.949963 0.307521
vn 0.054789 0.949963 0.307521
vn 0.054789 0.949963 0.307521
vn 0.054789 0.949963 0.307521
vn 0.000000 0.000000 -1.000000
vn 0.000000 0.000000 -1.000000
vn 0.000000 0.000000 -1.000000
vn 0.000000 0.000000 -1.000000
vn 0.000000 -1.000000 0.000000
vn 0.000000 -1.000000 0.000000
vn 0.000000 -1.000000 0.000000
vn 0.000000 -1.000000 0.000000
vn 1.000000 0.000000 0.000000
vn 1.000000 0.000000 0.000000
vn 1.000000 0.000000 0.000000
vn 1.000000 0.000000 0.000000
vn -1.000000 0.000000 0.000000
vn -1.000000 0.000000 0.000000
vn -1.000000 0.000000 0.000000
vn -1.000000 0.000000 0.000000
s 1
g polySurface169
usemtl lambert9SG
f 1/1/1 2/2/2 3/3/3
f 3/3/3 2/2/2 4/4/4
s 2
f 3/3/5 4/4/6 5/5/7
f 5/5/7 4/4/6 6/6/8
s 3
f 5/5/9 6/6/10 7/7/11
f 7/7/11 6/6/10 8/8/12
s 4
f 7/7/13 8/8/14 1/9/15
f 1/9/15 8/8/14 2/10/16
s 5
f 8/11/17 6/12/18 2/2/19
f 2/2/19 6/12/18 4/4/20
s 6
f 1/1/21 3/3/22 7/13/23
f 7/13/23 3/3/22 5/14/24
s off
f 9/15/25 10/16/26 12/17/27 11/18/28
f 11/18/29 12/17/30 14/19/31 13/20/32
f 13/20/33 14/19/34 16/21/35 15/22/36
f 15/22/37 16/21/38 10/23/39 9/24/40
f 10/16/41 16/25/42 14/26/43 12/17/44
f 15/27/45 9/15/46 11/18/47 13/28/48
s 7
f 17/29/49 18/30/50 19/31/51
f 19/31/51 18/30/50 20/32/52
s 8
f 19/31/53 20/32/54 21/33/55
f 21/33/55 20/32/54 22/34/56
s 9
f 21/33/57 22/34/58 23/35/59
f 23/35/59 22/34/58 24/36/60
s 10
f 23/35/61 24/36/62 17/37/63
f 17/37/63 24/36/62 18/38/64
s 11
f 24/39/65 22/40/66 18/30/67
f 18/30/67 22/40/66 20/32/68
s 12
f 17/29/69 19/31/70 23/41/71
f 23/41/71 19/31/70 21/42/72
s 13
f 26/43/73 28/44/74 25/45/75
f 25/45/75 28/44/74 27/46/76
s 14
f 28/44/77 30/47/78 27/46/79
f 27/46/79 30/47/78 29/48/80
s 15
f 29/48/81 30/47/82 31/49/83
f 31/49/83 30/47/82 32/50/84
s 16
f 31/49/85 32/50/86 25/51/87
f 25/51/87 32/50/86 26/52/88
s 17
f 26/43/89 32/53/90 28/44/91
f 28/44/91 32/53/90 30/54/92
s 18
f 25/45/93 27/46/94 31/55/95
f 31/55/95 27/46/94 29/56/96
s 19
f 33/57/97 34/58/98 35/59/99
f 35/59/99 34/58/98 36/60/100
s 20
f 35/59/101 36/60/102 37/61/103
f 37/61/103 36/60/102 38/62/104
s 21
f 37/61/105 38/62/106 39/63/107
f 39/63/107 38/62/106 40/64/108
s 22
f 39/63/109 40/64/110 33/65/111
f 33/65/111 40/64/110 34/66/112
s 23
f 40/67/113 38/68/114 34/58/115
f 34/58/115 38/68/114 36/60/116
s 24
f 33/57/117 35/59/118 39/69/119
f 39/69/119 35/59/118 37/70/120
s 25
f 42/71/121 44/72/122 41/73/123
f 41/73/123 44/72/122 43/74/124
s 26
f 44/72/125 46/75/126 43/74/127
f 43/74/127 46/75/126 45/76/128
s 27
f 45/76/129 46/75/130 47/77/131
f 47/77/131 46/75/130 48/78/132
s 28
f 47/77/133 48/78/134 41/79/135
f 41/79/135 48/78/134 42/80/136
s 29
f 42/71/137 48/81/138 44/72/139
f 44/72/139 48/81/138 46/82/140
s 30
f 41/73/141 43/74/142 47/83/143
f 47/83/143 43/74/142 45/84/144
s 31
f 49/85/145 50/86/146 51/87/147
f 51/87/147 50/86/146 52/88/148
s 32
f 51/87/149 52/88/150 53/89/151
f 53/89/151 52/88/150 54/90/152
s 33
f 53/89/153 54/90/154 55/91/155
f 55/91/155 54/90/154 56/92/156
s 34
f 55/91/157 56/92/158 49/93/159
f 49/93/159 56/92/158 50/94/160
s 35
f 56/95/161 54/96/162 50/86/163
f 50/86/163 54/96/162 52/88/164
s 36
f 49/85/165 51/87/166 55/97/167
f 55/97/167 51/87/166 53/98/168
s 37
f 58/99/169 60/100/170 57/101/171
f 57/101/171 60/100/170 59/102/172
s 38
f 60/100/173 62/103/174 59/102/175
f 59/102/175 62/103/174 61/104/176
s 39
f 61/104/177 62/103/178 63/105/179
f 63/105/179 62/103/178 64/106/180
s 40
f 63/105/181 64/106/182 57/107/183
f 57/107/183 64/106/182 58/108/184
s 41
f 58/99/185 64/109/186 60/100/187
f 60/100/187 64/109/186 62/110/188
s 42
f 57/101/189 59/102/190 63/111/191
f 63/111/191 59/102/190 61/112/192
s 43
f 65/113/193 66/114/194 67/115/195
f 67/115/195 66/114/194 68/116/196
s 44
f 67/115/197 68/116/198 69/117/199
f 69/117/199 68/116/198 70/118/200
s 45
f 69/117/201 70/118/202 71/119/203
f 71/119/203 70/118/202 72/120/204
s 46
f 71/119/205 72/120/206 65/121/207
f 65/121/207 72/120/206 66/122/208
s 47
f 72/123/209 70/124/210 66/114/211
f 66/114/211 70/124/210 68/116/212
s 48
f 65/113/213 67/115/214 71/125/215
f 71/125/215 67/115/214 69/126/216
s 49
f 74/127/217 76/128/218 73/129/219
f 73/129/219 76/128/218 75/130/220
s 50
f 76/128/221 78/131/222 75/130/223
f 75/130/223 78/131/222 77/132/224
s 51
f 77/132/225 78/131/226 79/133/227
f 79/133/227 78/131/226 80/134/228
s 52
f 79/133/229 80/134/230 73/135/231
f 73/135/231 80/134/230 74/136/232
s 53
f 74/127/233 80/137/234 76/128/235
f 76/128/235 80/137/234 78/138/236
s 54
f 73/129/237 75/130/238 79/139/239
f 79/139/239 75/130/238 77/140/240
