# This file uses centimeters as units for non-parametric coordinates.

mtllib OuterBuildingRow4--LShapeBuilding_OBJ.mtl
g Tree_BigSize_OBJ_default1
v -129.267914 2.000000 40.695148
v -126.267914 2.000000 40.695148
v -123.267914 2.000000 40.695148
v -129.267914 16.999998 40.695148
v -126.267914 16.999998 40.695148
v -123.267914 16.999998 40.695148
v -129.267914 31.999998 40.695148
v -126.267914 31.999998 40.695148
v -123.267914 31.999998 40.695148
v -129.267914 31.999998 34.695148
v -126.267914 31.999998 34.695148
v -123.267914 31.999998 34.695148
v -129.267914 31.999998 28.695148
v -126.267914 31.999998 28.695148
v -123.267914 31.999998 28.695148
v -129.267914 16.999998 28.695148
v -126.267914 16.999998 28.695148
v -123.267914 16.999998 28.695148
v -129.267914 2.000000 28.695148
v -126.267914 2.000000 28.695148
v -123.267914 2.000000 28.695148
v -129.267914 2.000000 34.695148
v -126.267914 2.000000 34.695148
v -123.267914 2.000000 34.695148
v -123.267914 16.999998 34.695148
v -129.267914 16.999998 34.695148
v -135.092239 2.000000 34.695148
v -135.092239 2.000000 40.695148
v -135.092239 16.999998 40.695148
v -135.092239 16.999998 34.695148
v -135.092239 31.999998 40.695148
v -135.092239 31.999998 34.695148
v -135.065491 0.000000 36.695148
v -133.065491 0.000000 36.695148
v -135.065491 2.000000 36.695148
v -133.065491 2.000000 36.695148
v -135.065491 2.000000 34.695148
v -133.065491 2.000000 34.695148
v -135.065491 0.000000 34.695148
v -133.065491 0.000000 34.695148
v -135.065491 0.000000 40.695148
v -133.065491 0.000000 40.695148
v -135.065491 2.000000 40.695148
v -133.065491 2.000000 40.695148
v -135.065491 2.000000 38.695148
v -133.065491 2.000000 38.695148
v -135.065491 0.000000 38.695148
v -133.065491 0.000000 38.695148
v -129.267914 0.000000 36.695148
v -127.267914 0.000000 36.695148
v -129.267914 2.000000 36.695148
v -127.267914 2.000000 36.695148
v -129.267914 2.000000 34.695148
v -127.267914 2.000000 34.695148
v -129.267914 0.000000 34.695148
v -127.267914 0.000000 34.695148
v -125.267914 0.000000 36.695148
v -123.267914 0.000000 36.695148
v -125.267914 2.000000 36.695148
v -123.267914 2.000000 36.695148
v -125.267914 2.000000 34.695148
v -123.267914 2.000000 34.695148
v -125.267914 0.000000 34.695148
v -123.267914 0.000000 34.695148
v -129.267914 0.000000 30.695148
v -127.267914 0.000000 30.695148
v -129.267914 2.000000 30.695148
v -127.267914 2.000000 30.695148
v -129.267914 2.000000 28.695148
v -127.267914 2.000000 28.695148
v -129.267914 0.000000 28.695148
v -127.267914 0.000000 28.695148
v -125.267914 0.000000 30.695148
v -123.267914 0.000000 30.695148
v -125.267914 2.000000 30.695148
v -123.267914 2.000000 30.695148
v -125.267914 2.000000 28.695148
v -123.267914 2.000000 28.695148
v -125.267914 0.000000 28.695148
v -123.267914 0.000000 28.695148
v -125.267914 0.000000 40.695148
v -123.267914 0.000000 40.695148
v -125.267914 2.000000 40.695148
v -123.267914 2.000000 40.695148
v -125.267914 2.000000 38.695148
v -123.267914 2.000000 38.695148
v -125.267914 0.000000 38.695148
v -123.267914 0.000000 38.695148
vt 0.312790 0.334183
vt 0.188318 0.333448
vt 0.189053 0.208976
vt 0.313525 0.209711
vt 0.063847 0.332713
vt 0.064582 0.208241
vt 0.189788 0.084505
vt 0.314259 0.085240
vt 0.065317 0.083770
vt 0.704293 0.719521
vt 0.704293 0.595047
vt 0.828767 0.595047
vt 0.828767 0.719521
vt 0.704293 0.470574
vt 0.828767 0.470574
vt 0.953240 0.595047
vt 0.953240 0.719521
vt 0.953240 0.470574
vt 0.537835 0.900463
vt 0.413362 0.900804
vt 0.413021 0.776331
vt 0.537494 0.775990
vt 0.288889 0.901145
vt 0.288548 0.776671
vt 0.412681 0.651857
vt 0.537154 0.651517
vt 0.288207 0.652198
vt 0.709126 0.272215
vt 0.709126 0.147742
vt 0.833600 0.147742
vt 0.833600 0.272215
vt 0.709126 0.023268
vt 0.833600 0.023268
vt 0.958073 0.147742
vt 0.958073 0.272215
vt 0.958073 0.023268
vt 0.161998 0.651859
vt 0.286472 0.651859
vt 0.286472 0.776332
vt 0.161998 0.776332
vt 0.037525 0.651859
vt 0.037525 0.776332
vt 0.286472 0.900806
vt 0.161998 0.900806
vt 0.037525 0.900806
vt 0.047967 0.396390
vt 0.172441 0.396390
vt 0.172441 0.520863
vt 0.047967 0.520863
vt 0.424951 0.396390
vt 0.549425 0.396390
vt 0.549425 0.520864
vt 0.424951 0.520864
vt 0.172441 0.645337
vt 0.047967 0.645337
vt 0.549425 0.645337
vt 0.424951 0.645337
vt 0.958073 0.513874
vt 0.833600 0.513874
vt 0.555178 0.211138
vt 0.554443 0.335610
vt 0.415126 0.521801
vt 0.415126 0.646275
vt 0.173467 0.646275
vt 0.173467 0.521801
vt 0.555913 0.086667
vt 0.828767 0.961179
vt 0.704293 0.961179
vt 0.415126 0.397328
vt 0.173467 0.397328
vt 0.072744 0.027841
vt 0.402224 0.027841
vt 0.402224 0.357321
vt 0.072744 0.357321
vt 0.611720 0.616530
vt 0.941200 0.616530
vt 0.941200 0.946010
vt 0.611720 0.946010
vt 0.544255 0.173538
vt 0.873735 0.173538
vt 0.873735 0.503018
vt 0.544255 0.503018
vt 0.505979 0.023400
vt 0.835459 0.023400
vt 0.835459 0.352880
vt 0.505979 0.352880
vt 0.350427 0.028005
vt 0.679907 0.028005
vt 0.679907 0.357485
vt 0.350427 0.357485
vt 0.153990 0.028005
vt 0.483470 0.028005
vt 0.483470 0.357485
vt 0.153990 0.357485
vt 0.350427 0.027841
vt 0.679907 0.027841
vt 0.679907 0.357321
vt 0.350427 0.357321
vt 0.352549 0.027841
vt 0.682029 0.027841
vt 0.682029 0.357321
vt 0.352549 0.357321
vt 0.351085 0.026414
vt 0.680565 0.026414
vt 0.680565 0.355894
vt 0.351085 0.355894
vt 0.350476 0.023400
vt 0.679956 0.023400
vt 0.679956 0.352880
vt 0.350476 0.352880
vt 0.499047 0.085563
vt 0.828526 0.085563
vt 0.828526 0.415043
vt 0.499047 0.415043
vt 0.620499 0.331606
vt 0.949979 0.331606
vt 0.949979 0.661085
vt 0.620499 0.661085
vt 0.550388 0.524502
vt 0.879868 0.524502
vt 0.879868 0.853982
vt 0.550388 0.853982
vt 0.574696 0.027841
vt 0.904176 0.027841
vt 0.904176 0.357321
vt 0.574696 0.357321
vt 0.141666 0.028577
vt 0.471146 0.028577
vt 0.471146 0.358057
vt 0.141666 0.358057
vt 0.679994 0.271464
vt 1.009474 0.271464
vt 1.009474 0.600944
vt 0.679994 0.600944
vt 0.350427 0.028005
vt 0.679907 0.028005
vt 0.679907 0.357485
vt 0.350427 0.357485
vt 0.020702 0.028005
vt 0.350182 0.028005
vt 0.350182 0.357485
vt 0.020702 0.357485
vt 0.135604 0.008387
vt 0.465084 0.008387
vt 0.465084 0.337866
vt 0.135604 0.337866
vt 0.522861 0.027841
vt 0.852341 0.027841
vt 0.852341 0.357321
vt 0.522861 0.357321
vt 0.480240 0.101661
vt 0.809720 0.101661
vt 0.809720 0.431141
vt 0.480240 0.431141
vt 0.246807 0.023400
vt 0.576287 0.023400
vt 0.576287 0.352880
vt 0.246807 0.352880
vt 0.603080 0.367940
vt 0.932560 0.367940
vt 0.932560 0.697420
vt 0.603080 0.697420
vt 0.635224 0.589518
vt 0.964704 0.589518
vt 0.964704 0.918998
vt 0.635224 0.918998
vt 0.623347 0.483969
vt 0.952827 0.483969
vt 0.952827 0.813449
vt 0.623347 0.813449
vt 0.352549 0.027841
vt 0.682029 0.027841
vt 0.682029 0.357321
vt 0.352549 0.357321
vt 0.489224 0.363340
vt 0.818704 0.363340
vt 0.818704 0.692819
vt 0.489224 0.692819
vt 0.350476 0.023400
vt 0.679956 0.023400
vt 0.679956 0.352880
vt 0.350476 0.352880
vt 0.626049 0.115287
vt 0.955529 0.115287
vt 0.955529 0.444767
vt 0.626049 0.444767
vt 0.642713 0.446381
vt 0.972193 0.446381
vt 0.972193 0.775861
vt 0.642713 0.775861
vt 0.178839 0.042164
vt 0.508319 0.042164
vt 0.508319 0.371644
vt 0.178839 0.371644
vt 0.352549 0.027841
vt 0.682029 0.027841
vt 0.682029 0.357321
vt 0.352549 0.357321
vt 0.351085 0.026414
vt 0.680565 0.026414
vt 0.680565 0.355894
vt 0.351085 0.355894
vt 0.350476 0.023400
vt 0.679956 0.023400
vt 0.679956 0.352880
vt 0.350476 0.352880
vt 0.636857 0.542230
vt 0.966337 0.542230
vt 0.966337 0.871710
vt 0.636857 0.871710
vt 0.646416 0.028005
vt 0.975896 0.028005
vt 0.975896 0.357485
vt 0.646416 0.357485
vt 0.609836 0.086750
vt 0.939316 0.086750
vt 0.939316 0.416230
vt 0.609836 0.416230
vt 0.352549 0.027841
vt 0.682029 0.027841
vt 0.682029 0.357321
vt 0.352549 0.357321
vt 0.351085 0.026414
vt 0.680565 0.026414
vt 0.680565 0.355894
vt 0.351085 0.355894
vt 0.350476 0.023400
vt 0.679956 0.023400
vt 0.679956 0.352880
vt 0.350476 0.352880
vt 0.028868 0.059892
vt 0.358348 0.059892
vt 0.358348 0.389372
vt 0.028868 0.389372
vt 0.627904 0.490811
vt 0.957383 0.490811
vt 0.957383 0.820291
vt 0.627904 0.820291
vn 0.000000 0.000000 1.000000
vn 0.000000 0.000000 1.000000
vn 0.000000 0.000000 1.000000
vn 0.000000 0.000000 1.000000
vn 0.000000 0.000000 1.000000
vn 0.000000 0.000000 1.000000
vn 0.000000 0.000000 1.000000
vn 0.000000 0.000000 1.000000
vn 0.000000 0.000000 1.000000
vn 0.000000 0.000000 1.000000
vn 0.000000 0.000000 1.000000
vn 0.000000 0.000000 1.000000
vn 0.000000 0.000000 1.000000
vn 0.000000 0.000000 1.000000
vn 0.000000 0.000000 1.000000
vn 0.000000 0.000000 1.000000
vn 0.000000 1.000000 0.000000
vn 0.000000 1.000000 0.000000
vn 0.000000 1.000000 0.000000
vn 0.000000 1.000000 0.000000
vn 0.000000 1.000000 0.000000
vn 0.000000 1.000000 0.000000
vn 0.000000 1.000000 0.000000
vn 0.000000 1.000000 0.000000
vn 0.000000 1.000000 0.000000
vn 0.000000 1.000000 0.000000
vn 0.000000 1.000000 0.000000
vn 0.000000 1.000000 0.000000
vn 0.000000 1.000000 0.000000
vn 0.000000 1.000000 0.000000
vn 0.000000 1.000000 0.000000
vn 0.000000 1.000000 0.000000
vn 0.000000 0.000000 -1.000000
vn 0.000000 0.000000 -1.000000
vn 0.000000 0.000000 -1.000000
vn 0.000000 0.000000 -1.000000
vn 0.000000 0.000000 -1.000000
vn 0.000000 0.000000 -1.000000
vn 0.000000 0.000000 -1.000000
vn 0.000000 0.000000 -1.000000
vn 0.000000 0.000000 -1.000000
vn 0.000000 0.000000 -1.000000
vn 0.000000 0.000000 -1.000000
vn 0.000000 0.000000 -1.000000
vn 0.000000 0.000000 -1.000000
vn 0.000000 0.000000 -1.000000
vn 0.000000 0.000000 -1.000000
vn 0.000000 0.000000 -1.000000
vn 0.000000 -1.000000 0.000000
vn 0.000000 -1.000000 0.000000
vn 0.000000 -1.000000 0.000000
vn 0.000000 -1.000000 0.000000
vn 0.000000 -1.000000 0.000000
vn 0.000000 -1.000000 0.000000
vn 0.000000 -1.000000 0.000000
vn 0.000000 -1.000000 0.000000
vn 0.000000 -1.000000 0.000000
vn 0.000000 -1.000000 0.000000
vn 0.000000 -1.000000 0.000000
vn 0.000000 -1.000000 0.000000
vn 0.000000 -1.000000 0.000000
vn 0.000000 -1.000000 0.000000
vn 0.000000 -1.000000 0.000000
vn 0.000000 -1.000000 0.000000
vn 1.000000 0.000000 0.000000
vn 1.000000 0.000000 0.000000
vn 1.000000 0.000000 0.000000
vn 1.000000 0.000000 0.000000
vn 1.000000 0.000000 0.000000
vn 1.000000 0.000000 0.000000
vn 1.000000 0.000000 0.000000
vn 1.000000 0.000000 0.000000
vn 1.000000 0.000000 0.000000
vn 1.000000 0.000000 0.000000
vn 1.000000 0.000000 0.000000
vn 1.000000 0.000000 0.000000
vn 1.000000 0.000000 0.000000
vn 1.000000 0.000000 0.000000
vn 1.000000 0.000000 0.000000
vn 1.000000 0.000000 0.000000
vn -1.000000 0.000000 0.000000
vn -1.000000 0.000000 0.000000
vn -1.000000 0.000000 0.000000
vn -1.000000 0.000000 0.000000
vn -1.000000 0.000000 0.000000
vn -1.000000 0.000000 0.000000
vn -1.000000 0.000000 0.000000
vn -1.000000 0.000000 0.000000
vn -1.000000 0.000000 0.000000
vn -1.000000 0.000000 0.000000
vn -1.000000 0.000000 0.000000
vn -1.000000 0.000000 0.000000
vn -1.000000 0.000000 0.000000
vn -1.000000 0.000000 0.000000
vn -1.000000 0.000000 0.000000
vn -1.000000 0.000000 0.000000
vn 0.000000 -1.000000 0.000000
vn 0.000000 -1.000000 0.000000
vn 0.000000 -1.000000 0.000000
vn 0.000000 -1.000000 0.000000
vn 0.000000 0.000000 1.000000
vn 0.000000 0.000000 1.000000
vn 0.000000 0.000000 1.000000
vn 0.000000 0.000000 1.000000
vn 0.000000 0.000000 -1.000000
vn 0.000000 0.000000 -1.000000
vn 0.000000 0.000000 -1.000000
vn 0.000000 0.000000 -1.000000
vn 0.000000 0.000000 1.000000
vn 0.000000 0.000000 1.000000
vn 0.000000 0.000000 1.000000
vn 0.000000 0.000000 1.000000
vn 0.000000 1.000000 0.000000
vn 0.000000 1.000000 0.000000
vn 0.000000 1.000000 0.000000
vn 0.000000 1.000000 0.000000
vn 0.000000 0.000000 -1.000000
vn 0.000000 0.000000 -1.000000
vn 0.000000 0.000000 -1.000000
vn 0.000000 0.000000 -1.000000
vn 0.000000 0.000000 1.000000
vn 0.000000 0.000000 1.000000
vn 0.000000 0.000000 1.000000
vn 0.000000 0.000000 1.000000
vn 0.000000 1.000000 0.000000
vn 0.000000 1.000000 0.000000
vn 0.000000 1.000000 0.000000
vn 0.000000 1.000000 0.000000
vn 0.000000 0.000000 -1.000000
vn 0.000000 0.000000 -1.000000
vn 0.000000 0.000000 -1.000000
vn 0.000000 0.000000 -1.000000
vn 0.000000 -1.000000 0.000000
vn 0.000000 -1.000000 0.000000
vn 0.000000 -1.000000 0.000000
vn 0.000000 -1.000000 0.000000
vn 1.000000 0.000000 0.000000
vn 1.000000 0.000000 0.000000
vn 1.000000 0.000000 0.000000
vn 1.000000 0.000000 0.000000
vn -1.000000 0.000000 0.000000
vn -1.000000 0.000000 0.000000
vn -1.000000 0.000000 0.000000
vn -1.000000 0.000000 0.000000
vn 0.000000 0.000000 1.000000
vn 0.000000 0.000000 1.000000
vn 0.000000 0.000000 1.000000
vn 0.000000 0.000000 1.000000
vn 0.000000 1.000000 0.000000
vn 0.000000 1.000000 0.000000
vn 0.000000 1.000000 0.000000
vn 0.000000 1.000000 0.000000
vn 0.000000 0.000000 -1.000000
vn 0.000000 0.000000 -1.000000
vn 0.000000 0.000000 -1.000000
vn 0.000000 0.000000 -1.000000
vn 0.000000 -1.000000 0.000000
vn 0.000000 -1.000000 0.000000
vn 0.000000 -1.000000 0.000000
vn 0.000000 -1.000000 0.000000
vn 1.000000 0.000000 0.000000
vn 1.000000 0.000000 0.000000
vn 1.000000 0.000000 0.000000
vn 1.000000 0.000000 0.000000
vn -1.000000 0.000000 0.000000
vn -1.000000 0.000000 0.000000
vn -1.000000 0.000000 0.000000
vn -1.000000 0.000000 0.000000
vn 0.000000 0.000000 1.000000
vn 0.000000 0.000000 1.000000
vn 0.000000 0.000000 1.000000
vn 0.000000 0.000000 1.000000
vn 0.000000 1.000000 0.000000
vn 0.000000 1.000000 0.000000
vn 0.000000 1.000000 0.000000
vn 0.000000 1.000000 0.000000
vn 0.000000 0.000000 -1.000000
vn 0.000000 0.000000 -1.000000
vn 0.000000 0.000000 -1.000000
vn 0.000000 0.000000 -1.000000
vn 0.000000 -1.000000 0.000000
vn 0.000000 -1.000000 0.000000
vn 0.000000 -1.000000 0.000000
vn 0.000000 -1.000000 0.000000
vn 1.000000 0.000000 0.000000
vn 1.000000 0.000000 0.000000
vn 1.000000 0.000000 0.000000
vn 1.000000 0.000000 0.000000
vn -1.000000 0.000000 0.000000
vn -1.000000 0.000000 0.000000
vn -1.000000 0.000000 0.000000
vn -1.000000 0.000000 0.000000
vn 0.000000 0.000000 1.000000
vn 0.000000 0.000000 1.000000
vn 0.000000 0.000000 1.000000
vn 0.000000 0.000000 1.000000
vn 0.000000 1.000000 0.000000
vn 0.000000 1.000000 0.000000
vn 0.000000 1.000000 0.000000
vn 0.000000 1.000000 0.000000
vn 0.000000 0.000000 -1.000000
vn 0.000000 0.000000 -1.000000
vn 0.000000 0.000000 -1.000000
vn 0.000000 0.000000 -1.000000
vn 0.000000 -1.000000 0.000000
vn 0.000000 -1.000000 0.000000
vn 0.000000 -1.000000 0.000000
vn 0.000000 -1.000000 0.000000
vn 1.000000 0.000000 0.000000
vn 1.000000 0.000000 0.000000
vn 1.000000 0.000000 0.000000
vn 1.000000 0.000000 0.000000
vn -1.000000 0.000000 0.000000
vn -1.000000 0.000000 0.000000
vn -1.000000 0.000000 0.000000
vn -1.000000 0.000000 0.000000
vn 0.000000 0.000000 1.000000
vn 0.000000 0.000000 1.000000
vn 0.000000 0.000000 1.000000
vn 0.000000 0.000000 1.000000
vn 0.000000 1.000000 0.000000
vn 0.000000 1.000000 0.000000
vn 0.000000 1.000000 0.000000
vn 0.000000 1.000000 0.000000
vn 0.000000 0.000000 -1.000000
vn 0.000000 0.000000 -1.000000
vn 0.000000 0.000000 -1.000000
vn 0.000000 0.000000 -1.000000
vn 0.000000 -1.000000 0.000000
vn 0.000000 -1.000000 0.000000
vn 0.000000 -1.000000 0.000000
vn 0.000000 -1.000000 0.000000
vn 1.000000 0.000000 0.000000
vn 1.000000 0.000000 0.000000
vn 1.000000 0.000000 0.000000
vn 1.000000 0.000000 0.000000
vn -1.000000 0.000000 0.000000
vn -1.000000 0.000000 0.000000
vn -1.000000 0.000000 0.000000
vn -1.000000 0.000000 0.000000
vn 0.000000 0.000000 1.000000
vn 0.000000 0.000000 1.000000
vn 0.000000 0.000000 1.000000
vn 0.000000 0.000000 1.000000
vn 0.000000 1.000000 0.000000
vn 0.000000 1.000000 0.000000
vn 0.000000 1.000000 0.000000
vn 0.000000 1.000000 0.000000
vn 0.000000 0.000000 -1.000000
vn 0.000000 0.000000 -1.000000
vn 0.000000 0.000000 -1.000000
vn 0.000000 0.000000 -1.000000
vn 0.000000 -1.000000 0.000000
vn 0.000000 -1.000000 0.000000
vn 0.000000 -1.000000 0.000000
vn 0.000000 -1.000000 0.000000
vn 1.000000 0.000000 0.000000
vn 1.000000 0.000000 0.000000
vn 1.000000 0.000000 0.000000
vn 1.000000 0.000000 0.000000
vn -1.000000 0.000000 0.000000
vn -1.000000 0.000000 0.000000
vn -1.000000 0.000000 0.000000
vn -1.000000 0.000000 0.000000
vn 0.000000 0.000000 1.000000
vn 0.000000 0.000000 1.000000
vn 0.000000 0.000000 1.000000
vn 0.000000 0.000000 1.000000
vn 0.000000 1.000000 0.000000
vn 0.000000 1.000000 0.000000
vn 0.000000 1.000000 0.000000
vn 0.000000 1.000000 0.000000
vn 0.000000 0.000000 -1.000000
vn 0.000000 0.000000 -1.000000
vn 0.000000 0.000000 -1.000000
vn 0.000000 0.000000 -1.000000
vn 0.000000 -1.000000 0.000000
vn 0.000000 -1.000000 0.000000
vn 0.000000 -1.000000 0.000000
vn 0.000000 -1.000000 0.000000
vn 1.000000 0.000000 0.000000
vn 1.000000 0.000000 0.000000
vn 1.000000 0.000000 0.000000
vn 1.000000 0.000000 0.000000
vn -1.000000 0.000000 0.000000
vn -1.000000 0.000000 0.000000
vn -1.000000 0.000000 0.000000
vn -1.000000 0.000000 0.000000
s off
g big_tree bigtree polySurface281
usemtl lambert6SG
f 1/1/1 2/2/2 5/3/3 4/4/4
f 2/2/5 3/5/6 6/6/7 5/3/8
f 4/4/9 5/3/10 8/7/11 7/8/12
f 5/3/13 6/6/14 9/9/15 8/7/16
f 7/10/17 8/11/18 11/12/19 10/13/20
f 8/11/21 9/14/22 12/15/23 11/12/24
f 10/13/25 11/12/26 14/16/27 13/17/28
f 11/12/29 12/15/30 15/18/31 14/16/32
f 13/19/33 14/20/34 17/21/35 16/22/36
f 14/20/37 15/23/38 18/24/39 17/21/40
f 16/22/41 17/21/42 20/25/43 19/26/44
f 17/21/45 18/24/46 21/27/47 20/25/48
f 19/28/49 20/29/50 23/30/51 22/31/52
f 20/29/53 21/32/54 24/33/55 23/30/56
f 22/31/57 23/30/58 2/34/59 1/35/60
f 23/30/61 24/33/62 3/36/63 2/34/64
f 24/37/65 21/38/66 18/39/67 25/40/68
f 3/41/69 24/37/70 25/40/71 6/42/72
f 25/40/73 18/39/74 15/43/75 12/44/76
f 6/42/77 25/40/78 12/44/79 9/45/80
f 19/46/81 22/47/82 26/48/83 16/49/84
f 27/50/85 28/51/86 29/52/87 30/53/88
f 16/49/89 26/48/90 10/54/91 13/55/92
f 30/53/93 29/52/94 31/56/95 32/57/96
f 22/31/97 1/35/98 28/58/99 27/59/100
f 1/1/101 4/4/102 29/60/103 28/61/104
f 26/62/105 22/63/106 27/64/107 30/65/108
f 4/4/109 7/8/110 31/66/111 29/60/112
f 7/10/113 10/13/114 32/67/115 31/68/116
f 10/69/117 26/62/118 30/65/119 32/70/120
f 33/71/121 34/72/122 36/73/123 35/74/124
f 35/75/125 36/76/126 38/77/127 37/78/128
f 37/79/129 38/80/130 40/81/131 39/82/132
f 39/83/133 40/84/134 34/85/135 33/86/136
f 34/87/137 40/88/138 38/89/139 36/90/140
f 39/91/141 33/92/142 35/93/143 37/94/144
f 41/95/145 42/96/146 44/97/147 43/98/148
f 43/99/149 44/100/150 46/101/151 45/102/152
f 45/103/153 46/104/154 48/105/155 47/106/156
f 47/107/157 48/108/158 42/109/159 41/110/160
f 42/111/161 48/112/162 46/113/163 44/114/164
f 47/115/165 41/116/166 43/117/167 45/118/168
f 49/119/169 50/120/170 52/121/171 51/122/172
f 51/123/173 52/124/174 54/125/175 53/126/176
f 53/127/177 54/128/178 56/129/179 55/130/180
f 55/131/181 56/132/182 50/133/183 49/134/184
f 50/135/185 56/136/186 54/137/187 52/138/188
f 55/139/189 49/140/190 51/141/191 53/142/192
f 57/143/193 58/144/194 60/145/195 59/146/196
f 59/147/197 60/148/198 62/149/199 61/150/200
f 61/151/201 62/152/202 64/153/203 63/154/204
f 63/155/205 64/156/206 58/157/207 57/158/208
f 58/159/209 64/160/210 62/161/211 60/162/212
f 63/163/213 57/164/214 59/165/215 61/166/216
f 65/167/217 66/168/218 68/169/219 67/170/220
f 67/171/221 68/172/222 70/173/223 69/174/224
f 69/175/225 70/176/226 72/177/227 71/178/228
f 71/179/229 72/180/230 66/181/231 65/182/232
f 66/183/233 72/184/234 70/185/235 68/186/236
f 71/187/237 65/188/238 67/189/239 69/190/240
f 73/191/241 74/192/242 76/193/243 75/194/244
f 75/195/245 76/196/246 78/197/247 77/198/248
f 77/199/249 78/200/250 80/201/251 79/202/252
f 79/203/253 80/204/254 74/205/255 73/206/256
f 74/207/257 80/208/258 78/209/259 76/210/260
f 79/211/261 73/212/262 75/213/263 77/214/264
f 81/215/265 82/216/266 84/217/267 83/218/268
f 83/219/269 84/220/270 86/221/271 85/222/272
f 85/223/273 86/224/274 88/225/275 87/226/276
f 87/227/277 88/228/278 82/229/279 81/230/280
f 82/231/281 88/232/282 86/233/283 84/234/284
f 87/235/285 81/236/286 83/237/287 85/238/288
