# This file uses centimeters as units for non-parametric coordinates.

mtllib SupportBeam4_OBJ.mtl
g default
v 4.915027 -0.099510 2.712813
v 4.880298 -0.099510 2.652660
v 4.827089 -0.099510 2.608012
v 4.761819 -0.099510 2.584256
v 4.692359 -0.099510 2.584256
v 4.627089 -0.099510 2.608012
v 4.573880 -0.099510 2.652660
v 4.539150 -0.099510 2.712813
v 4.527089 -0.099510 2.781217
v 4.539150 -0.099510 2.849621
v 4.573880 -0.099510 2.909775
v 4.627089 -0.099510 2.954422
v 4.692359 -0.099510 2.978179
v 4.761819 -0.099510 2.978179
v 4.827089 -0.099510 2.954422
v 4.880298 -0.099510 2.909775
v 4.915027 -0.099510 2.849621
v 4.927089 -0.099510 2.781217
v 4.915027 2.900490 2.712813
v 4.880298 2.900490 2.652660
v 4.827089 2.900490 2.608012
v 4.761819 2.900490 2.584256
v 4.692359 2.900490 2.584256
v 4.627089 2.900490 2.608012
v 4.573880 2.900490 2.652660
v 4.539150 2.900490 2.712813
v 4.527089 2.900490 2.781217
v 4.539150 2.900490 2.849621
v 4.573880 2.900490 2.909775
v 4.627089 2.900490 2.954422
v 4.692359 2.900490 2.978179
v 4.761819 2.900490 2.978179
v 4.827089 2.900490 2.954422
v 4.880298 2.900490 2.909775
v 4.915027 2.900490 2.849621
v 4.927089 2.900490 2.781217
v 4.727089 -0.099510 2.781217
v 4.727089 2.900490 2.781217
vt 0.646827 0.102809
vt 0.619694 0.055814
vt 0.578125 0.020934
vt 0.527133 0.002374
vt 0.472867 0.002374
vt 0.421875 0.020934
vt 0.380306 0.055814
vt 0.353173 0.102809
vt 0.343750 0.156250
vt 0.353173 0.209691
vt 0.380306 0.256686
vt 0.421875 0.291566
vt 0.472867 0.310126
vt 0.527133 0.310126
vt 0.578125 0.291566
vt 0.619694 0.256686
vt 0.646827 0.209691
vt 0.656250 0.156250
vt 0.375000 0.312500
vt 0.388889 0.312500
vt 0.402778 0.312500
vt 0.416667 0.312500
vt 0.430556 0.312500
vt 0.444444 0.312500
vt 0.458333 0.312500
vt 0.472222 0.312500
vt 0.486111 0.312500
vt 0.500000 0.312500
vt 0.513889 0.312500
vt 0.527778 0.312500
vt 0.541667 0.312500
vt 0.555556 0.312500
vt 0.569445 0.312500
vt 0.583333 0.312500
vt 0.597222 0.312500
vt 0.611111 0.312500
vt 0.625000 0.312500
vt 0.375000 0.688440
vt 0.388889 0.688440
vt 0.402778 0.688440
vt 0.416667 0.688440
vt 0.430556 0.688440
vt 0.444444 0.688440
vt 0.458333 0.688440
vt 0.472222 0.688440
vt 0.486111 0.688440
vt 0.500000 0.688440
vt 0.513889 0.688440
vt 0.527778 0.688440
vt 0.541667 0.688440
vt 0.555556 0.688440
vt 0.569445 0.688440
vt 0.583333 0.688440
vt 0.597222 0.688440
vt 0.611111 0.688440
vt 0.625000 0.688440
vt 0.646827 0.790309
vt 0.619694 0.743314
vt 0.578125 0.708434
vt 0.527133 0.689874
vt 0.472867 0.689874
vt 0.421875 0.708434
vt 0.380306 0.743314
vt 0.353173 0.790309
vt 0.343750 0.843750
vt 0.353173 0.897191
vt 0.380306 0.944186
vt 0.421875 0.979066
vt 0.472867 0.997626
vt 0.527133 0.997626
vt 0.578125 0.979066
vt 0.619694 0.944186
vt 0.646827 0.897191
vt 0.656250 0.843750
vt 0.500000 0.150000
vt 0.500000 0.837500
vn 0.939693 0.000000 -0.342020
vn 0.766045 0.000000 -0.642787
vn 0.939693 0.000000 -0.342020
vn 0.766045 0.000000 -0.642787
vn 0.500000 0.000000 -0.866025
vn 0.500000 0.000000 -0.866025
vn 0.173649 0.000000 -0.984808
vn 0.173648 0.000000 -0.984808
vn -0.173648 0.000000 -0.984808
vn -0.173648 0.000000 -0.984808
vn -0.500000 0.000000 -0.866026
vn -0.500000 0.000000 -0.866026
vn -0.766044 0.000000 -0.642788
vn -0.766044 0.000000 -0.642788
vn -0.939693 0.000000 -0.342020
vn -0.939692 0.000000 -0.342020
vn -1.000000 0.000000 -0.000000
vn -1.000000 0.000000 -0.000000
vn -0.939693 0.000000 0.342020
vn -0.939693 0.000000 0.342020
vn -0.766045 0.000000 0.642787
vn -0.766045 0.000000 0.642788
vn -0.500000 0.000000 0.866025
vn -0.500000 0.000000 0.866025
vn -0.173648 0.000000 0.984808
vn -0.173648 0.000000 0.984808
vn 0.173648 0.000000 0.984808
vn 0.173648 0.000000 0.984808
vn 0.500000 0.000000 0.866025
vn 0.500000 0.000000 0.866025
vn 0.766044 0.000000 0.642788
vn 0.766045 0.000000 0.642788
vn 0.939693 0.000000 0.342020
vn 0.939693 0.000000 0.342020
vn 1.000000 0.000000 0.000000
vn 1.000000 0.000000 0.000000
vn 0.000000 -1.000000 0.000000
vn 0.000000 -1.000000 0.000000
vn 0.000000 -1.000000 -0.000000
vn 0.000000 -1.000000 0.000000
vn 0.000000 -1.000000 0.000000
vn 0.000000 -1.000000 -0.000000
vn 0.000000 -1.000000 0.000000
vn 0.000000 -1.000000 0.000000
vn 0.000000 -1.000000 0.000000
vn 0.000000 -1.000000 0.000000
vn 0.000000 -1.000000 0.000000
vn 0.000000 -1.000000 0.000000
vn 0.000000 -1.000000 0.000000
vn 0.000000 -1.000000 0.000000
vn 0.000000 -1.000000 0.000000
vn 0.000000 -1.000000 0.000000
vn 0.000000 -1.000000 0.000000
vn 0.000000 -1.000000 0.000000
vn 0.000000 -1.000000 0.000000
vn 0.000000 1.000000 0.000000
vn 0.000000 1.000000 0.000000
vn 0.000000 1.000000 -0.000000
vn 0.000000 1.000000 0.000000
vn 0.000000 1.000000 -0.000000
vn 0.000000 1.000000 -0.000000
vn 0.000000 1.000000 0.000000
vn 0.000000 1.000000 0.000000
vn 0.000000 1.000000 0.000000
vn 0.000000 1.000000 0.000000
vn 0.000000 1.000000 0.000000
vn 0.000000 1.000000 0.000000
vn 0.000000 1.000000 0.000000
vn 0.000000 1.000000 0.000000
vn 0.000000 1.000000 0.000000
vn 0.000000 1.000000 0.000000
vn 0.000000 1.000000 0.000000
vn 0.000000 1.000000 0.000000
vn 0.000000 1.000000 0.000000
s 1
g pCylinder1
usemtl lambert3SG
f 1/19/1 2/20/2 19/38/3
f 19/38/3 2/20/2 20/39/4
f 2/20/2 3/21/5 20/39/4
f 20/39/4 3/21/5 21/40/6
f 3/21/5 4/22/7 21/40/6
f 21/40/6 4/22/7 22/41/8
f 4/22/7 5/23/9 22/41/8
f 22/41/8 5/23/9 23/42/10
f 5/23/9 6/24/11 23/42/10
f 23/42/10 6/24/11 24/43/12
f 6/24/11 7/25/13 24/43/12
f 24/43/12 7/25/13 25/44/14
f 7/25/13 8/26/15 25/44/14
f 25/44/14 8/26/15 26/45/16
f 8/26/15 9/27/17 26/45/16
f 26/45/16 9/27/17 27/46/18
f 9/27/17 10/28/19 27/46/18
f 27/46/18 10/28/19 28/47/20
f 10/28/19 11/29/21 28/47/20
f 28/47/20 11/29/21 29/48/22
f 11/29/21 12/30/23 29/48/22
f 29/48/22 12/30/23 30/49/24
f 12/30/23 13/31/25 30/49/24
f 30/49/24 13/31/25 31/50/26
f 13/31/25 14/32/27 31/50/26
f 31/50/26 14/32/27 32/51/28
f 14/32/27 15/33/29 32/51/28
f 32/51/28 15/33/29 33/52/30
f 15/33/29 16/34/31 33/52/30
f 33/52/30 16/34/31 34/53/32
f 16/34/31 17/35/33 34/53/32
f 34/53/32 17/35/33 35/54/34
f 17/35/33 18/36/35 35/54/34
f 35/54/34 18/36/35 36/55/36
f 18/36/35 1/37/1 36/55/36
f 36/55/36 1/37/1 19/56/3
s 2
f 2/2/37 1/1/38 37/75/39
f 3/3/40 2/2/37 37/75/39
f 4/4/41 3/3/40 37/75/39
f 5/5/42 4/4/41 37/75/39
f 6/6/43 5/5/42 37/75/39
f 7/7/44 6/6/43 37/75/39
f 8/8/45 7/7/44 37/75/39
f 9/9/46 8/8/45 37/75/39
f 10/10/47 9/9/46 37/75/39
f 11/11/48 10/10/47 37/75/39
f 12/12/49 11/11/48 37/75/39
f 13/13/50 12/12/49 37/75/39
f 14/14/51 13/13/50 37/75/39
f 15/15/52 14/14/51 37/75/39
f 16/16/53 15/15/52 37/75/39
f 17/17/54 16/16/53 37/75/39
f 18/18/55 17/17/54 37/75/39
f 1/1/38 18/18/55 37/75/39
s 3
f 19/73/56 20/72/57 38/76/58
f 20/72/57 21/71/59 38/76/58
f 21/71/59 22/70/60 38/76/58
f 22/70/60 23/69/61 38/76/58
f 23/69/61 24/68/62 38/76/58
f 24/68/62 25/67/63 38/76/58
f 25/67/63 26/66/64 38/76/58
f 26/66/64 27/65/65 38/76/58
f 27/65/65 28/64/66 38/76/58
f 28/64/66 29/63/67 38/76/58
f 29/63/67 30/62/68 38/76/58
f 30/62/68 31/61/69 38/76/58
f 31/61/69 32/60/70 38/76/58
f 32/60/70 33/59/71 38/76/58
f 33/59/71 34/58/72 38/76/58
f 34/58/72 35/57/73 38/76/58
f 35/57/73 36/74/74 38/76/58
f 36/74/74 19/73/56 38/76/58
