# This file uses centimeters as units for non-parametric coordinates.

mtllib AssistUpperRight.mtl
g default
v -0.020235 0.006528 0.429879
v 0.019431 0.006528 0.429879
v -0.020235 0.008727 0.429879
v 0.019431 0.008727 0.429879
v -0.020235 0.017011 0.376935
v 0.019431 0.017011 0.376935
v -0.011570 0.017011 0.323991
v 0.011570 0.017011 0.323991
v -0.011570 0.017011 0.271048
v 0.011570 0.017011 0.271048
v -0.011570 0.017011 0.218104
v 0.011570 0.017011 0.218104
v -0.011570 -0.001756 0.218104
v 0.011570 -0.001756 0.218104
v -0.011570 -0.001756 0.271048
v 0.011570 -0.001756 0.271048
v -0.011570 -0.001756 0.323991
v 0.011570 -0.001756 0.323991
v -0.020235 -0.001756 0.376935
v 0.019431 -0.001756 0.376935
v -0.031357 -0.031357 0.000000
v 0.031357 -0.031357 0.000000
v -0.031357 -0.031357 0.270922
v 0.031357 -0.031357 0.270922
v -0.031357 0.031357 0.270922
v 0.031357 0.031357 0.270922
v -0.031357 0.031357 0.000000
v 0.031357 0.031357 0.000000
vt 0.375000 0.000000
vt 0.625000 0.000000
vt 0.375000 0.250000
vt 0.625000 0.250000
vt 0.375000 0.312500
vt 0.625000 0.312500
vt 0.375000 0.375000
vt 0.625000 0.375000
vt 0.375000 0.437500
vt 0.625000 0.437500
vt 0.375000 0.500000
vt 0.625000 0.500000
vt 0.375000 0.750000
vt 0.625000 0.750000
vt 0.375000 0.812500
vt 0.625000 0.812500
vt 0.375000 0.875000
vt 0.625000 0.875000
vt 0.375000 0.937500
vt 0.625000 0.937500
vt 0.375000 1.000000
vt 0.625000 1.000000
vt 0.875000 0.000000
vt 0.812500 0.000000
vt 0.750000 0.000000
vt 0.687500 0.000000
vt 0.875000 0.250000
vt 0.812500 0.250000
vt 0.750000 0.250000
vt 0.687500 0.250000
vt 0.125000 0.000000
vt 0.187500 0.000000
vt 0.250000 0.000000
vt 0.312500 0.000000
vt 0.125000 0.250000
vt 0.187500 0.250000
vt 0.250000 0.250000
vt 0.312500 0.250000
vt 0.375000 0.000000
vt 0.625000 0.000000
vt 0.375000 0.250000
vt 0.625000 0.250000
vt 0.375000 0.500000
vt 0.625000 0.500000
vt 0.375000 0.750000
vt 0.625000 0.750000
vt 0.375000 1.000000
vt 0.625000 1.000000
vt 0.875000 0.000000
vt 0.875000 0.250000
vt 0.125000 0.000000
vt 0.125000 0.250000
vn 0.000000 0.000000 1.000000
vn 0.000000 0.000000 1.000000
vn 0.000000 0.000000 1.000000
vn 0.000000 0.000000 1.000000
vn 0.000000 0.987979 0.154588
vn 0.000000 0.987979 0.154588
vn 0.000000 0.996615 0.082215
vn 0.000000 0.996263 0.086374
vn 0.000000 1.000000 0.000000
vn 0.000000 1.000000 0.000000
vn 0.000000 1.000000 0.000000
vn 0.000000 1.000000 0.000000
vn 0.000000 1.000000 0.000000
vn 0.000000 1.000000 0.000000
vn 0.000000 0.000000 -1.000000
vn 0.000000 0.000000 -1.000000
vn 0.000000 0.000000 -1.000000
vn 0.000000 0.000000 -1.000000
vn 0.000000 -1.000000 0.000000
vn 0.000000 -1.000000 0.000000
vn 0.000000 -1.000000 0.000000
vn -0.000000 -1.000000 0.000000
vn -0.000000 -1.000000 0.000000
vn -0.000000 -1.000000 0.000000
vn -0.000000 -0.996263 0.086374
vn -0.000000 -0.996615 0.082215
vn -0.000000 -0.987979 0.154588
vn 0.000000 -0.987979 0.154588
vn 1.000000 0.000000 -0.000000
vn 1.000000 0.000000 0.000000
vn 1.000000 0.000000 -0.000000
vn 1.000000 0.000000 0.000000
vn 0.997256 0.000000 -0.074032
vn 0.997256 0.000000 -0.074032
vn 0.996965 0.000000 -0.077857
vn 0.996891 0.000000 -0.078789
vn 1.000000 0.000000 0.000000
vn 1.000000 0.000000 0.000000
vn -1.000000 0.000000 0.000000
vn -1.000000 0.000000 0.000000
vn -1.000000 0.000000 0.000000
vn -1.000000 0.000000 0.000000
vn -0.996668 0.000000 -0.081562
vn -0.996668 0.000000 -0.081562
vn -0.996315 0.000000 -0.085771
vn -0.996226 0.000000 -0.086797
vn -1.000000 0.000000 0.000000
vn -1.000000 0.000000 0.000000
vn 0.000000 -1.000000 0.000000
vn 0.000000 -1.000000 0.000000
vn 0.000000 -1.000000 0.000000
vn 0.000000 -1.000000 0.000000
vn 0.000000 0.000000 1.000000
vn 0.000000 0.000000 1.000000
vn 0.000000 0.000000 1.000000
vn 0.000000 0.000000 1.000000
vn 0.000000 1.000000 0.000000
vn 0.000000 1.000000 0.000000
vn 0.000000 1.000000 0.000000
vn 0.000000 1.000000 0.000000
vn 0.000000 0.000000 -1.000000
vn 0.000000 0.000000 -1.000000
vn 0.000000 0.000000 -1.000000
vn 0.000000 0.000000 -1.000000
vn 1.000000 0.000000 0.000000
vn 1.000000 0.000000 0.000000
vn 1.000000 0.000000 0.000000
vn 1.000000 0.000000 0.000000
vn -1.000000 0.000000 0.000000
vn -1.000000 0.000000 0.000000
vn -1.000000 0.000000 0.000000
vn -1.000000 0.000000 0.000000
s 1
g UpperRight
usemtl initialShadingGroup
f 1/1/1 2/2/2 3/3/3
f 3/3/3 2/2/2 4/4/4
s 2
f 3/3/5 4/4/6 5/5/7
f 5/5/7 4/4/6 6/6/8
f 5/5/7 6/6/8 7/7/9
f 7/7/9 6/6/8 8/8/10
f 7/7/9 8/8/10 9/9/11
f 9/9/11 8/8/10 10/10/12
f 9/9/11 10/10/12 11/11/13
f 11/11/13 10/10/12 12/12/14
s 3
f 11/11/15 12/12/16 13/13/17
f 13/13/17 12/12/16 14/14/18
s 4
f 13/13/19 14/14/20 15/15/21
f 15/15/21 14/14/20 16/16/22
f 15/15/21 16/16/22 17/17/23
f 17/17/23 16/16/22 18/18/24
f 18/18/24 20/20/25 17/17/23
f 17/17/23 20/20/25 19/19/26
f 19/19/26 20/20/25 1/21/27
f 1/21/27 20/20/25 2/22/28
s 5
f 16/24/29 14/23/30 10/28/31
f 10/28/31 14/23/30 12/27/32
f 18/25/33 16/24/29 8/29/34
f 8/29/34 16/24/29 10/28/31
f 20/26/35 18/25/33 6/30/36
f 6/30/36 18/25/33 8/29/34
f 20/26/35 6/30/36 2/2/37
f 2/2/37 6/30/36 4/4/38
s 6
f 13/31/39 15/32/40 11/35/41
f 11/35/41 15/32/40 9/36/42
f 15/32/40 17/33/43 9/36/42
f 9/36/42 17/33/43 7/37/44
f 17/33/43 19/34/45 7/37/44
f 7/37/44 19/34/45 5/38/46
f 19/34/45 1/1/47 5/38/46
f 1/1/47 3/3/48 5/38/46
s 7
f 21/39/49 22/40/50 23/41/51
f 23/41/51 22/40/50 24/42/52
s 8
f 23/41/53 24/42/54 25/43/55
f 25/43/55 24/42/54 26/44/56
s 9
f 25/43/57 26/44/58 27/45/59
f 27/45/59 26/44/58 28/46/60
s 10
f 27/45/61 28/46/62 21/47/63
f 21/47/63 28/46/62 22/48/64
s 11
f 22/40/65 28/49/66 24/42/67
f 24/42/67 28/49/66 26/50/68
s 12
f 27/51/69 21/39/70 25/52/71
f 25/52/71 21/39/70 23/41/72
