# This file uses centimeters as units for non-parametric coordinates.

mtllib AssistUpperLeft.mtl
g default
v -0.014946 0.199083 0.253728
v 0.014946 0.199083 0.253728
v -0.014946 0.199083 0.223836
v 0.014946 0.199083 0.223836
v -0.014946 0.018213 0.223836
v 0.014946 0.018213 0.223836
v -0.014946 0.018213 0.253728
v 0.014946 0.018213 0.253728
v -0.014946 0.018213 0.253728
v 0.014946 0.018213 0.253728
v 0.014946 0.199083 0.253728
v -0.014946 0.199083 0.253728
v 0.014946 0.018213 0.223836
v 0.014946 0.199083 0.223836
v -0.014946 0.199083 0.223836
v -0.014946 0.018213 0.223836
v -0.036715 0.231111 0.253625
v -0.018604 0.230864 0.253625
v -0.036715 0.231111 0.223940
v -0.018604 0.230864 0.223940
v -0.036979 0.211806 0.223940
v -0.018868 0.211558 0.223940
v -0.027951 0.191144 0.223940
v -0.013910 0.202588 0.223940
v -0.004298 0.184594 0.223940
v 0.004806 0.200253 0.223940
v -0.004298 0.184594 0.253625
v 0.004806 0.200253 0.253625
v -0.027951 0.191144 0.253625
v -0.013910 0.202588 0.253625
v -0.036979 0.211806 0.253625
v -0.018868 0.211558 0.253625
v 0.032796 0.231142 0.223940
v 0.014685 0.230894 0.223940
v 0.032796 0.231142 0.253625
v 0.014685 0.230894 0.253625
v 0.033060 0.211837 0.253625
v 0.014949 0.211589 0.253625
v 0.024032 0.191175 0.253625
v 0.009991 0.202618 0.253625
v 0.000379 0.184625 0.253625
v -0.008725 0.200284 0.253625
v 0.000379 0.184625 0.223940
v -0.008725 0.200284 0.223940
v 0.024032 0.191175 0.223940
v 0.009991 0.202618 0.223940
v 0.033060 0.211837 0.223940
v 0.014949 0.211589 0.223940
v -0.031357 -0.031357 0.000000
v 0.031357 -0.031357 0.000000
v -0.031357 -0.031357 0.270922
v 0.031357 -0.031357 0.270922
v -0.031357 0.031357 0.270922
v 0.031357 0.031357 0.270922
v -0.031357 0.031357 0.000000
v 0.031357 0.031357 0.000000
vt 0.375000 0.000000
vt 0.625000 0.000000
vt 0.375000 0.250000
vt 0.625000 0.250000
vt 0.375000 0.500000
vt 0.625000 0.500000
vt 0.375000 0.750000
vt 0.625000 0.750000
vt 0.375000 0.750000
vt 0.625000 0.750000
vt 0.375000 1.000000
vt 0.625000 1.000000
vt 0.625000 0.000000
vt 0.875000 0.000000
vt 0.625000 0.250000
vt 0.875000 0.250000
vt 0.125000 0.000000
vt 0.375000 0.000000
vt 0.125000 0.250000
vt 0.375000 0.250000
vt 0.625000 1.000000
vt 0.375000 1.000000
vt 0.875000 0.000000
vt 0.875000 0.250000
vt 0.125000 0.250000
vt 0.125000 0.000000
vt 0.375000 0.000000
vt 0.625000 0.000000
vt 0.375000 0.250000
vt 0.625000 0.250000
vt 0.375000 0.333333
vt 0.625000 0.333333
vt 0.625000 0.416667
vt 0.375000 0.416667
vt 0.625000 0.500000
vt 0.375000 0.500000
vt 0.375000 0.750000
vt 0.625000 0.750000
vt 0.375000 0.833333
vt 0.625000 0.833333
vt 0.375000 0.916667
vt 0.625000 0.916667
vt 0.625000 1.000000
vt 0.375000 1.000000
vt 0.791667 0.000000
vt 0.875000 0.000000
vt 0.791667 0.250000
vt 0.875000 0.250000
vt 0.708333 0.000000
vt 0.708333 0.250000
vt 0.125000 0.000000
vt 0.208333 0.000000
vt 0.125000 0.250000
vt 0.208333 0.250000
vt 0.291667 0.000000
vt 0.291667 0.250000
vt 0.375000 0.000000
vt 0.625000 0.000000
vt 0.375000 0.250000
vt 0.625000 0.250000
vt 0.375000 0.333333
vt 0.625000 0.333333
vt 0.625000 0.416667
vt 0.375000 0.416667
vt 0.625000 0.500000
vt 0.375000 0.500000
vt 0.375000 0.750000
vt 0.625000 0.750000
vt 0.375000 0.833333
vt 0.625000 0.833333
vt 0.375000 0.916667
vt 0.625000 0.916667
vt 0.625000 1.000000
vt 0.375000 1.000000
vt 0.791667 0.000000
vt 0.875000 0.000000
vt 0.791667 0.250000
vt 0.875000 0.250000
vt 0.708333 0.000000
vt 0.708333 0.250000
vt 0.125000 0.000000
vt 0.208333 0.000000
vt 0.125000 0.250000
vt 0.208333 0.250000
vt 0.291667 0.000000
vt 0.291667 0.250000
vt 0.375000 0.000000
vt 0.625000 0.000000
vt 0.375000 0.250000
vt 0.625000 0.250000
vt 0.375000 0.500000
vt 0.625000 0.500000
vt 0.375000 0.750000
vt 0.625000 0.750000
vt 0.375000 1.000000
vt 0.625000 1.000000
vt 0.875000 0.000000
vt 0.875000 0.250000
vt 0.125000 0.000000
vt 0.125000 0.250000
vn 0.000000 1.000000 0.000000
vn 0.000000 1.000000 0.000000
vn 0.000000 1.000000 0.000000
vn 0.000000 1.000000 0.000000
vn 0.000000 0.000000 -1.000000
vn 0.000000 0.000000 -1.000000
vn 0.000000 0.000000 -1.000000
vn 0.000000 0.000000 -1.000000
vn 0.000000 -1.000000 0.000000
vn 0.000000 -1.000000 0.000000
vn 0.000000 -1.000000 0.000000
vn 0.000000 -1.000000 0.000000
vn 0.000000 0.000000 1.000000
vn 0.000000 0.000000 1.000000
vn 0.000000 0.000000 1.000000
vn 0.000000 0.000000 1.000000
vn 1.000000 0.000000 0.000000
vn 1.000000 0.000000 0.000000
vn 1.000000 0.000000 0.000000
vn 1.000000 0.000000 0.000000
vn -1.000000 0.000000 0.000000
vn -1.000000 0.000000 0.000000
vn -1.000000 0.000000 0.000000
vn -1.000000 0.000000 0.000000
vn 0.000000 0.000000 0.000000
vn 0.000000 0.000000 0.000000
vn 0.000000 0.000000 0.000000
vn 0.000000 0.000000 0.000000
vn 0.000000 0.000000 0.000000
vn 0.000000 0.000000 0.000000
vn 0.000000 0.000000 0.000000
vn 0.000000 0.000000 0.000000
vn 0.000000 0.000000 0.000000
vn 0.000000 0.000000 0.000000
vn 0.000000 0.000000 0.000000
vn 0.000000 0.000000 0.000000
vn 0.000000 0.000000 0.000000
vn 0.000000 0.000000 0.000000
vn 0.000000 0.000000 0.000000
vn 0.000000 0.000000 0.000000
vn 0.000000 0.000000 0.000000
vn 0.000000 0.000000 0.000000
vn 0.000000 0.000000 0.000000
vn 0.000000 0.000000 0.000000
vn 0.000000 0.000000 0.000000
vn 0.000000 0.000000 0.000000
vn 0.000000 0.000000 0.000000
vn 0.000000 0.000000 0.000000
vn 0.000000 0.000000 0.000000
vn 0.000000 0.000000 0.000000
vn 0.000000 0.000000 0.000000
vn 0.000000 0.000000 0.000000
vn 0.000000 0.000000 0.000000
vn 0.000000 0.000000 0.000000
vn 0.000000 0.000000 0.000000
vn 0.000000 0.000000 0.000000
vn 0.013681 0.999906 0.000000
vn 0.013681 0.999906 0.000000
vn 0.013681 0.999906 0.000000
vn 0.013681 0.999906 0.000000
vn 0.000003 0.000000 -1.000000
vn 0.000000 0.000000 -1.000000
vn -0.000000 0.000000 -1.000000
vn -0.000002 0.000000 -1.000000
vn -0.000001 0.000000 -1.000000
vn -0.000000 0.000000 -1.000000
vn -0.000000 0.000000 -1.000000
vn 0.000000 0.000000 -1.000000
vn 0.864510 -0.502616 0.000000
vn 0.864510 -0.502616 0.000000
vn 0.864510 -0.502616 0.000000
vn 0.864509 -0.502617 0.000000
vn 0.000001 0.000000 1.000000
vn 0.000000 0.000000 1.000000
vn -0.000001 0.000000 1.000000
vn -0.000001 0.000000 1.000000
vn -0.000001 0.000000 1.000000
vn 0.000000 0.000000 1.000000
vn -0.000000 0.000000 1.000000
vn 0.000000 0.000000 1.000000
vn 0.430926 0.902387 -0.000000
vn 0.123775 0.992310 -0.000000
vn 0.430926 0.902387 -0.000000
vn 0.123776 0.992310 0.000000
vn 0.986503 0.163741 0.000000
vn 0.986503 0.163741 0.000000
vn 0.999906 -0.013678 0.000000
vn 0.999907 -0.013678 0.000000
vn -0.266880 -0.963730 0.000000
vn -0.639873 -0.768481 -0.000000
vn -0.266880 -0.963730 -0.000001
vn -0.639873 -0.768481 -0.000001
vn -0.976790 -0.214200 0.000000
vn -0.976790 -0.214200 0.000000
vn -0.999906 0.013678 0.000000
vn -0.999906 0.013678 0.000000
vn -0.013681 0.999906 0.000000
vn -0.013681 0.999906 0.000000
vn -0.013681 0.999906 0.000000
vn -0.013681 0.999906 0.000000
vn 0.000000 0.000000 1.000000
vn 0.000000 0.000000 1.000000
vn 0.000001 0.000000 1.000000
vn -0.000000 0.000000 1.000000
vn 0.000001 0.000000 1.000000
vn 0.000001 0.000000 1.000000
vn -0.000000 0.000000 1.000000
vn -0.000001 0.000000 1.000000
vn -0.864509 -0.502617 0.000000
vn -0.864510 -0.502616 0.000000
vn -0.864510 -0.502616 0.000000
vn -0.864510 -0.502616 0.000000
vn 0.000000 0.000000 -1.000000
vn 0.000000 0.000000 -1.000000
vn 0.000000 0.000000 -1.000000
vn 0.000001 0.000000 -1.000000
vn 0.000000 0.000000 -1.000000
vn 0.000002 0.000000 -1.000000
vn -0.000000 0.000000 -1.000000
vn -0.000003 0.000000 -1.000000
vn -0.430926 0.902387 0.000000
vn -0.123775 0.992310 0.000000
vn -0.430926 0.902387 -0.000000
vn -0.123775 0.992310 0.000000
vn -0.986503 0.163741 -0.000000
vn -0.986503 0.163741 -0.000000
vn -0.999907 -0.013678 0.000000
vn -0.999906 -0.013678 -0.000000
vn 0.266880 -0.963730 0.000000
vn 0.639873 -0.768481 0.000000
vn 0.266880 -0.963730 0.000001
vn 0.639873 -0.768481 0.000001
vn 0.976790 -0.214200 0.000000
vn 0.976790 -0.214200 0.000000
vn 0.999906 0.013678 0.000000
vn 0.999906 0.013678 0.000000
vn 0.000000 -1.000000 0.000000
vn 0.000000 -1.000000 0.000000
vn 0.000000 -1.000000 0.000000
vn 0.000000 -1.000000 0.000000
vn 0.000000 0.000000 1.000000
vn 0.000000 0.000000 1.000000
vn 0.000000 0.000000 1.000000
vn 0.000000 0.000000 1.000000
vn 0.000000 1.000000 0.000000
vn 0.000000 1.000000 0.000000
vn 0.000000 1.000000 0.000000
vn 0.000000 1.000000 0.000000
vn 0.000000 0.000000 -1.000000
vn 0.000000 0.000000 -1.000000
vn 0.000000 0.000000 -1.000000
vn 0.000000 0.000000 -1.000000
vn 1.000000 0.000000 0.000000
vn 1.000000 0.000000 0.000000
vn 1.000000 0.000000 0.000000
vn 1.000000 0.000000 0.000000
vn -1.000000 0.000000 0.000000
vn -1.000000 0.000000 0.000000
vn -1.000000 0.000000 0.000000
vn -1.000000 0.000000 0.000000
s 1
g UpperLeft
usemtl initialShadingGroup
f 1/1/1 2/2/2 3/3/3
f 3/3/3 2/2/2 4/4/4
s 2
f 3/3/5 4/4/6 5/5/7
f 5/5/7 4/4/6 6/6/8
s 3
f 5/5/9 6/6/10 7/7/11
f 7/7/11 6/6/10 8/8/12
s 4
f 9/9/13 10/10/14 12/11/15
f 12/11/15 10/10/14 11/12/16
s 5
f 11/13/17 10/14/18 14/15/19
f 14/15/19 10/14/18 13/16/20
s 6
f 9/17/21 12/18/22 16/19/23
f 16/19/23 12/18/22 15/20/24
s 7
f 9/9/25 7/7/26 10/10/27
f 7/7/26 8/8/28 10/10/27
s 8
f 11/12/29 2/21/30 12/11/31
f 2/21/30 1/22/32 12/11/31
s 9
f 10/14/33 8/23/34 13/16/35
f 8/23/34 6/24/36 13/16/35
s 10
f 13/16/37 6/24/38 14/15/39
f 6/24/38 4/4/40 14/15/39
s 11
f 14/15/41 4/4/42 11/13/43
f 4/4/42 2/2/44 11/13/43
s 12
f 12/18/45 1/1/46 15/20/47
f 1/1/46 3/3/48 15/20/47
s 13
f 15/20/49 3/3/50 16/19/51
f 3/3/50 5/25/52 16/19/51
s 14
f 16/19/53 5/25/54 9/17/55
f 5/25/54 7/26/56 9/17/55
s 15
f 17/27/57 18/28/58 19/29/59
f 19/29/59 18/28/58 20/30/60
s 16
f 19/29/61 20/30/62 21/31/63
f 21/31/63 20/30/62 22/32/64
f 22/32/64 24/33/65 21/31/63
f 21/31/63 24/33/65 23/34/66
f 24/33/65 26/35/67 23/34/66
f 23/34/66 26/35/67 25/36/68
s 17
f 25/36/69 26/35/70 27/37/71
f 27/37/71 26/35/70 28/38/72
s 18
f 27/37/73 28/38/74 29/39/75
f 29/39/75 28/38/74 30/40/76
f 29/39/75 30/40/76 31/41/77
f 31/41/77 30/40/76 32/42/78
f 32/42/78 18/43/79 31/41/77
f 31/41/77 18/43/79 17/44/80
s 19
f 30/45/81 28/46/82 24/47/83
f 24/47/83 28/46/82 26/48/84
f 32/49/85 30/45/81 22/50/86
f 22/50/86 30/45/81 24/47/83
f 18/28/87 32/49/85 20/30/88
f 20/30/88 32/49/85 22/50/86
s 20
f 27/51/89 29/52/90 25/53/91
f 25/53/91 29/52/90 23/54/92
f 29/52/90 31/55/93 23/54/92
f 23/54/92 31/55/93 21/56/94
f 31/55/93 17/27/95 21/56/94
f 21/56/94 17/27/95 19/29/96
s 21
f 33/57/97 34/58/98 35/59/99
f 35/59/99 34/58/98 36/60/100
s 22
f 35/59/101 36/60/102 37/61/103
f 37/61/103 36/60/102 38/62/104
f 38/62/104 40/63/105 37/61/103
f 37/61/103 40/63/105 39/64/106
f 40/63/105 42/65/107 39/64/106
f 39/64/106 42/65/107 41/66/108
s 23
f 41/66/109 42/65/110 43/67/111
f 43/67/111 42/65/110 44/68/112
s 24
f 43/67/113 44/68/114 45/69/115
f 45/69/115 44/68/114 46/70/116
f 45/69/115 46/70/116 47/71/117
f 47/71/117 46/70/116 48/72/118
f 48/72/118 34/73/119 47/71/117
f 47/71/117 34/73/119 33/74/120
s 25
f 46/75/121 44/76/122 40/77/123
f 40/77/123 44/76/122 42/78/124
f 48/79/125 46/75/121 38/80/126
f 38/80/126 46/75/121 40/77/123
f 34/58/127 48/79/125 36/60/128
f 36/60/128 48/79/125 38/80/126
s 26
f 43/81/129 45/82/130 41/83/131
f 41/83/131 45/82/130 39/84/132
f 45/82/130 47/85/133 39/84/132
f 39/84/132 47/85/133 37/86/134
f 47/85/133 33/57/135 37/86/134
f 37/86/134 33/57/135 35/59/136
s 27
f 49/87/137 50/88/138 51/89/139
f 51/89/139 50/88/138 52/90/140
s 28
f 51/89/141 52/90/142 53/91/143
f 53/91/143 52/90/142 54/92/144
s 29
f 53/91/145 54/92/146 55/93/147
f 55/93/147 54/92/146 56/94/148
s 30
f 55/93/149 56/94/150 49/95/151
f 49/95/151 56/94/150 50/96/152
s 31
f 50/88/153 56/97/154 52/90/155
f 52/90/155 56/97/154 54/98/156
s 32
f 55/99/157 49/87/158 53/100/159
f 53/100/159 49/87/158 51/89/160
