# This file uses centimeters as units for non-parametric coordinates.

mtllib Barracks2_OBJ.mtl
g default
v -3.348547 -0.046617 -20.667317
v -9.672087 -0.046617 -20.667317
v -3.348547 2.315573 -20.667317
v -9.672087 2.315573 -20.667317
v -3.348547 2.315573 -17.216457
v -9.672087 2.315573 -17.216457
v -3.348547 -0.046617 -17.216457
v -9.672087 -0.046617 -17.216457
v -6.510317 2.453383 -17.216457
v -6.510317 2.453383 -20.667317
v -6.510317 3.383103 -18.941887
v -9.672087 2.453383 -18.941887
v -3.348547 2.453383 -18.941887
v -3.348547 -0.046617 -20.667317
v -9.672087 -0.046617 -20.667317
v -3.348547 2.315573 -20.667317
v -9.672087 2.315573 -20.667317
v -3.348547 2.315573 -17.216457
v -9.672087 2.315573 -17.216457
v -3.348547 -0.046617 -17.216457
v -9.672087 -0.046617 -17.216457
v -6.510317 2.453383 -17.216457
v -6.510317 2.453383 -20.667317
v -6.510317 3.383103 -18.941887
v -9.672087 2.453383 -18.941887
v -3.348547 2.453383 -18.941887
vt 0.375000 0.000000
vt 0.625000 0.000000
vt 0.375000 0.250000
vt 0.500000 0.250000
vt 0.625000 0.250000
vt 0.500000 0.375000
vt 0.625000 0.375000
vt 0.500000 0.500000
vt 0.625000 0.500000
vt 0.625000 0.750000
vt 0.375000 0.750000
vt 0.375000 0.500000
vt 0.375000 1.000000
vt 0.625000 1.000000
vt 0.875000 0.000000
vt 0.750000 0.250000
vt 0.875000 0.250000
vt 0.125000 0.000000
vt 0.125000 0.250000
vt 0.250000 0.250000
vt 0.375000 0.375000
vt 0.375000 0.000000
vt 0.625000 0.000000
vt 0.375000 0.250000
vt 0.500000 0.250000
vt 0.625000 0.250000
vt 0.500000 0.375000
vt 0.625000 0.375000
vt 0.500000 0.500000
vt 0.625000 0.500000
vt 0.625000 0.750000
vt 0.375000 0.750000
vt 0.375000 0.500000
vt 0.375000 1.000000
vt 0.625000 1.000000
vt 0.875000 0.000000
vt 0.750000 0.250000
vt 0.875000 0.250000
vt 0.125000 0.000000
vt 0.125000 0.250000
vt 0.250000 0.250000
vt 0.375000 0.375000
vn 0.000000 0.000000 -1.000000
vn 0.000000 0.000000 -1.000000
vn 0.000000 0.000000 -1.000000
vn 0.000000 0.000000 -1.000000
vn 0.000000 0.000000 -1.000000
vn 0.000000 0.000000 -1.000000
vn 0.000000 0.000000 -1.000000
vn 0.000000 0.000000 -1.000000
vn 0.000000 0.000000 -1.000000
vn 0.000000 1.000000 -0.000000
vn -0.129339 0.991600 -0.000000
vn -0.000000 0.929031 0.370003
vn -0.000000 0.929031 0.370003
vn -0.129339 0.991600 -0.000000
vn -0.043407 0.995886 0.079541
vn -0.000000 0.000000 1.000000
vn -0.000000 0.000000 1.000000
vn -0.000000 0.000000 1.000000
vn -0.000000 0.000000 1.000000
vn -0.000000 0.000000 1.000000
vn -0.000000 0.000000 1.000000
vn -0.000000 0.000000 1.000000
vn -0.000000 0.000000 1.000000
vn -0.000000 0.000000 1.000000
vn 0.000000 -1.000000 0.000000
vn 0.000000 -1.000000 0.000000
vn 0.000000 -1.000000 0.000000
vn 0.000000 -1.000000 0.000000
vn 0.000000 -1.000000 0.000000
vn 0.000000 -1.000000 0.000000
vn -1.000000 0.000000 -0.000000
vn -1.000000 0.000000 -0.000000
vn -1.000000 0.000000 -0.000000
vn -1.000000 0.000000 -0.000000
vn -1.000000 0.000000 -0.000000
vn -1.000000 0.000000 -0.000000
vn -1.000000 0.000000 -0.000000
vn -1.000000 0.000000 -0.000000
vn -1.000000 0.000000 -0.000000
vn 1.000000 0.000000 0.000000
vn 1.000000 0.000000 0.000000
vn 1.000000 0.000000 0.000000
vn 1.000000 0.000000 0.000000
vn 1.000000 0.000000 0.000000
vn 1.000000 0.000000 0.000000
vn 1.000000 0.000000 0.000000
vn 1.000000 0.000000 0.000000
vn 1.000000 0.000000 0.000000
vn 0.043407 0.995886 -0.079541
vn 0.000000 0.929031 -0.370003
vn 0.129339 0.991600 0.000000
vn 0.129339 0.991600 0.000000
vn 0.000000 0.929031 -0.370003
vn 0.000000 1.000000 -0.000000
vn 0.000000 1.000000 -0.000000
vn 0.000000 0.929031 -0.370003
vn -0.129339 0.991600 -0.000000
vn -0.129339 0.991600 -0.000000
vn 0.000000 0.929031 -0.370003
vn -0.043407 0.995886 -0.079541
vn 0.000000 1.000000 -0.000000
vn -0.000000 0.929031 0.370003
vn 0.129339 0.991600 0.000000
vn 0.129339 0.991600 0.000000
vn -0.000000 0.929031 0.370003
vn 0.043407 0.995886 0.079541
vn 0.000000 0.000000 -1.000000
vn 0.000000 0.000000 -1.000000
vn 0.000000 0.000000 -1.000000
vn 0.000000 0.000000 -1.000000
vn 0.000000 0.000000 -1.000000
vn 0.000000 0.000000 -1.000000
vn 0.000000 0.000000 -1.000000
vn 0.000000 0.000000 -1.000000
vn 0.000000 0.000000 -1.000000
vn 0.000000 1.000000 -0.000000
vn -0.129339 0.991600 -0.000000
vn -0.000000 0.929031 0.370003
vn -0.000000 0.929031 0.370003
vn -0.129339 0.991600 -0.000000
vn -0.043407 0.995886 0.079541
vn -0.000000 0.000000 1.000000
vn -0.000000 0.000000 1.000000
vn -0.000000 0.000000 1.000000
vn -0.000000 0.000000 1.000000
vn -0.000000 0.000000 1.000000
vn -0.000000 0.000000 1.000000
vn -0.000000 0.000000 1.000000
vn -0.000000 0.000000 1.000000
vn -0.000000 0.000000 1.000000
vn 0.000000 -1.000000 0.000000
vn 0.000000 -1.000000 0.000000
vn 0.000000 -1.000000 0.000000
vn 0.000000 -1.000000 0.000000
vn 0.000000 -1.000000 0.000000
vn 0.000000 -1.000000 0.000000
vn -1.000000 0.000000 -0.000000
vn -1.000000 0.000000 -0.000000
vn -1.000000 0.000000 -0.000000
vn -1.000000 0.000000 -0.000000
vn -1.000000 0.000000 -0.000000
vn -1.000000 0.000000 -0.000000
vn -1.000000 0.000000 -0.000000
vn -1.000000 0.000000 -0.000000
vn -1.000000 0.000000 -0.000000
vn 1.000000 0.000000 0.000000
vn 1.000000 0.000000 0.000000
vn 1.000000 0.000000 0.000000
vn 1.000000 0.000000 0.000000
vn 1.000000 0.000000 0.000000
vn 1.000000 0.000000 0.000000
vn 1.000000 0.000000 0.000000
vn 1.000000 0.000000 0.000000
vn 1.000000 0.000000 0.000000
vn 0.043407 0.995886 -0.079541
vn 0.000000 0.929031 -0.370003
vn 0.129339 0.991600 0.000000
vn 0.129339 0.991600 0.000000
vn 0.000000 0.929031 -0.370003
vn 0.000000 1.000000 -0.000000
vn 0.000000 1.000000 -0.000000
vn 0.000000 0.929031 -0.370003
vn -0.129339 0.991600 -0.000000
vn -0.129339 0.991600 -0.000000
vn 0.000000 0.929031 -0.370003
vn -0.043407 0.995886 -0.079541
vn 0.000000 1.000000 -0.000000
vn -0.000000 0.929031 0.370003
vn 0.129339 0.991600 0.000000
vn 0.129339 0.991600 0.000000
vn -0.000000 0.929031 0.370003
vn 0.043407 0.995886 0.079541
s off
g Barracks2
usemtl lambert4SG
f 1/1/1 2/2/2 3/3/3
f 3/3/4 2/2/5 10/4/6
f 2/2/7 4/5/8 10/4/9
f 11/6/10 12/7/11 9/8/12
f 9/8/13 12/7/14 6/9/15
f 8/10/16 7/11/17 6/9/18
f 6/9/19 7/11/20 9/8/21
f 5/12/22 9/8/23 7/11/24
f 7/11/25 8/10/26 1/13/27
f 1/13/28 8/10/29 2/14/30
f 2/2/31 8/15/32 4/5/33
f 4/5/34 8/15/35 12/16/36
f 8/15/37 6/17/38 12/16/39
f 7/18/40 1/1/41 5/19/42
f 5/19/43 1/1/44 13/20/45
f 1/1/46 3/3/47 13/20/48
f 3/3/49 10/4/50 13/21/51
f 13/21/52 10/4/53 11/6/54
f 11/6/55 10/4/56 12/7/57
f 12/7/58 10/4/59 4/5/60
f 11/6/61 9/8/62 13/21/63
f 13/21/64 9/8/65 5/12/66
f 14/22/67 15/23/68 16/24/69
f 16/24/70 15/23/71 23/25/72
f 15/23/73 17/26/74 23/25/75
f 24/27/76 25/28/77 22/29/78
f 22/29/79 25/28/80 19/30/81
f 21/31/82 20/32/83 19/30/84
f 19/30/85 20/32/86 22/29/87
f 18/33/88 22/29/89 20/32/90
f 20/32/91 21/31/92 14/34/93
f 14/34/94 21/31/95 15/35/96
f 15/23/97 21/36/98 17/26/99
f 17/26/100 21/36/101 25/37/102
f 21/36/103 19/38/104 25/37/105
f 20/39/106 14/22/107 18/40/108
f 18/40/109 14/22/110 26/41/111
f 14/22/112 16/24/113 26/41/114
f 16/24/115 23/25/116 26/42/117
f 26/42/118 23/25/119 24/27/120
f 24/27/121 23/25/122 25/28/123
f 25/28/124 23/25/125 17/26/126
f 24/27/127 22/29/128 26/42/129
f 26/42/130 22/29/131 18/33/132
