# This file uses centimeters as units for non-parametric coordinates.

mtllib Bed1.mtl
g default
v 11.002673 0.400000 -3.721345
v 11.020999 0.400000 -1.621425
v 11.002673 0.500000 -3.721345
v 11.020999 0.500000 -1.621425
v 13.002597 0.500000 -3.738798
v 13.020923 0.500000 -1.638878
v 13.002597 0.400000 -3.738798
v 13.020923 0.400000 -1.638878
v 11.000928 0.000000 -3.921338
v 11.002673 0.000000 -3.721345
v 11.000928 0.800000 -3.921338
v 11.002673 0.800000 -3.721345
v 13.000852 0.800000 -3.938790
v 13.002597 0.800000 -3.738798
v 13.000852 0.000000 -3.938790
v 13.002597 0.000000 -3.738798
v 11.001801 0.000000 -3.821341
v 11.020999 0.000000 -1.621425
v 11.001801 0.400000 -3.821341
v 11.020999 0.400000 -1.621425
v 13.001724 0.400000 -3.838794
v 13.020923 0.400000 -1.638878
v 13.001724 0.000000 -3.838794
v 13.020923 0.000000 -1.638878
vt 0.285748 0.785083
vt 0.285748 0.660177
vt 0.291696 0.660177
vt 0.291696 0.785083
vt 0.225335 0.792462
vt 0.225335 0.917367
vt 0.219387 0.917367
vt 0.219387 0.792462
vt 0.752251 0.295882
vt 0.779521 0.295882
vt 0.779521 0.404962
vt 0.752251 0.404962
vt 0.813151 0.404962
vt 0.785881 0.404962
vt 0.785881 0.295882
vt 0.813151 0.295882
vt 0.363787 0.350569
vt 0.363787 0.138540
vt 0.402338 0.138540
vt 0.402338 0.350569
vt 0.642425 0.138540
vt 0.642425 0.350569
vt 0.603874 0.350569
vt 0.603874 0.138540
vt 0.227534 0.917367
vt 0.227534 0.792461
vt 0.346492 0.792461
vt 0.346492 0.917367
vt 0.217188 0.792462
vt 0.217188 0.917367
vt 0.098230 0.917367
vt 0.098230 0.792462
vt 0.721987 0.278967
vt 0.694717 0.278967
vt 0.694717 0.006268
vt 0.721987 0.006268
vt 0.662406 0.006269
vt 0.689676 0.006269
vt 0.689676 0.278968
vt 0.662406 0.278968
vt 0.406914 0.350569
vt 0.406914 0.138540
vt 0.599668 0.138540
vt 0.599668 0.350569
vt 0.839642 0.138540
vt 0.839642 0.350569
vt 0.646889 0.350569
vt 0.646889 0.138540
vt 0.090083 0.911419
vt 0.090083 0.792462
vt 0.096031 0.792462
vt 0.096031 0.911419
vt 0.087884 0.792462
vt 0.087884 0.911419
vt 0.081937 0.911419
vt 0.081937 0.792462
vt 0.548285 0.278967
vt 0.548285 0.006268
vt 0.657365 0.006268
vt 0.657365 0.278967
vt 0.624157 0.282247
vt 0.624157 0.554946
vt 0.515078 0.554946
vt 0.515078 0.282247
vt 0.721377 0.556093
vt 0.721377 0.363340
vt 0.759928 0.363340
vt 0.759928 0.556093
vt 0.802942 0.363340
vt 0.802942 0.556093
vt 0.764392 0.556093
vt 0.764392 0.363340
vn -0.999962 0.000000 0.008727
vn -0.999962 0.000000 0.008727
vn -0.999962 0.000000 0.008727
vn -0.999962 0.000000 0.008727
vn 0.000000 1.000000 0.000000
vn 0.000000 1.000000 0.000000
vn 0.000000 1.000000 0.000000
vn 0.000000 1.000000 0.000000
vn 0.999962 0.000000 -0.008727
vn 0.999962 0.000000 -0.008727
vn 0.999962 0.000000 -0.008727
vn 0.999962 0.000000 -0.008727
vn 0.000000 -1.000000 0.000000
vn 0.000000 -1.000000 0.000000
vn 0.000000 -1.000000 0.000000
vn 0.000000 -1.000000 0.000000
vn 0.008727 0.000000 0.999962
vn 0.008726 0.000000 0.999962
vn 0.008727 0.000000 0.999962
vn 0.008726 0.000000 0.999962
vn -0.008727 0.000000 -0.999962
vn -0.008726 0.000000 -0.999962
vn -0.008727 0.000000 -0.999962
vn -0.008726 0.000000 -0.999962
vn -0.999962 0.000000 0.008726
vn -0.999962 0.000000 0.008726
vn -0.999962 0.000000 0.008726
vn -0.999962 0.000000 0.008726
vn 0.000000 1.000000 0.000000
vn 0.000000 1.000000 0.000000
vn 0.000000 1.000000 0.000000
vn 0.000000 1.000000 0.000000
vn 0.999962 0.000000 -0.008726
vn 0.999962 0.000000 -0.008726
vn 0.999962 0.000000 -0.008726
vn 0.999962 0.000000 -0.008726
vn 0.000000 -1.000000 0.000000
vn 0.000000 -1.000000 0.000000
vn 0.000000 -1.000000 0.000000
vn 0.000000 -1.000000 0.000000
vn 0.008726 0.000000 0.999962
vn 0.008727 0.000000 0.999962
vn 0.008726 0.000000 0.999962
vn 0.008727 0.000000 0.999962
vn -0.008726 0.000000 -0.999962
vn -0.008726 0.000000 -0.999962
vn -0.008726 0.000000 -0.999962
vn -0.008726 0.000000 -0.999962
vn -0.999962 0.000000 0.008727
vn -0.999962 0.000000 0.008727
vn -0.999962 0.000000 0.008727
vn -0.999962 0.000000 0.008727
vn 0.000000 1.000000 0.000000
vn 0.000000 1.000000 0.000000
vn 0.000000 1.000000 0.000000
vn 0.000000 1.000000 0.000000
vn 0.999962 0.000000 -0.008727
vn 0.999962 0.000000 -0.008727
vn 0.999962 0.000000 -0.008727
vn 0.999962 0.000000 -0.008727
vn 0.000000 -1.000000 0.000000
vn 0.000000 -1.000000 0.000000
vn 0.000000 -1.000000 0.000000
vn 0.000000 -1.000000 0.000000
vn 0.008727 0.000000 0.999962
vn 0.008727 0.000000 0.999962
vn 0.008727 0.000000 0.999962
vn 0.008727 0.000000 0.999962
vn -0.008726 0.000000 -0.999962
vn -0.008727 0.000000 -0.999962
vn -0.008726 0.000000 -0.999962
vn -0.008727 0.000000 -0.999962
s 1
g OBJs:pCube15
usemtl lambert2SG
f 1/1/1 2/2/2 3/4/3
f 3/4/3 2/2/2 4/3/4
s 2
f 3/25/5 4/26/6 5/28/7
f 5/28/7 4/26/6 6/27/8
s 3
f 5/5/9 6/6/10 7/8/11
f 7/8/11 6/6/10 8/7/12
s 4
f 7/29/13 8/30/14 1/32/15
f 1/32/15 8/30/14 2/31/16
s 5
f 2/49/17 8/50/18 4/52/19
f 4/52/19 8/50/18 6/51/20
s 6
f 7/53/21 1/54/22 5/56/23
f 5/56/23 1/54/22 3/55/24
s 7
f 9/9/25 10/10/26 11/12/27
f 11/12/27 10/10/26 12/11/28
s 8
f 11/33/29 12/34/30 13/36/31
f 13/36/31 12/34/30 14/35/32
s 9
f 13/13/33 14/14/34 15/16/35
f 15/16/35 14/14/34 16/15/36
s 10
f 15/37/37 16/38/38 9/40/39
f 9/40/39 16/38/38 10/39/40
s 11
f 10/57/41 16/58/42 12/60/43
f 12/60/43 16/58/42 14/59/44
s 12
f 15/61/45 9/62/46 13/64/47
f 13/64/47 9/62/46 11/63/48
s 13
f 17/17/49 18/18/50 19/20/51
f 19/20/51 18/18/50 20/19/52
s 14
f 19/41/53 20/42/54 21/44/55
f 21/44/55 20/42/54 22/43/56
s 15
f 21/21/57 22/22/58 23/24/59
f 23/24/59 22/22/58 24/23/60
s 16
f 23/45/61 24/46/62 17/48/63
f 17/48/63 24/46/62 18/47/64
s 17
f 18/65/65 24/66/66 20/68/67
f 20/68/67 24/66/66 22/67/68
s 18
f 23/69/69 17/70/70 21/72/71
f 21/72/71 17/70/70 19/71/72
