# This file uses centimeters as units for non-parametric coordinates.

mtllib Bed3.mtl
g default
v 3.494187 0.000000 -3.813984
v 3.513385 0.000000 -1.614068
v 3.494187 0.400000 -3.813984
v 3.513385 0.400000 -1.614068
v 5.494111 0.400000 -3.831437
v 5.513309 0.400000 -1.631521
v 5.494111 0.000000 -3.831437
v 5.513309 0.000000 -1.631521
v 3.495063 0.400000 -3.713988
v 3.513389 0.400000 -1.614068
v 3.495063 0.500000 -3.713988
v 3.513389 0.500000 -1.614068
v 5.494987 0.500000 -3.731441
v 5.513313 0.500000 -1.631521
v 5.494987 0.400000 -3.731441
v 5.513313 0.400000 -1.631521
v 3.493318 0.000000 -3.913980
v 3.495063 0.000000 -3.713987
v 3.493318 0.800000 -3.913980
v 3.495063 0.800000 -3.713987
v 5.493242 0.800000 -3.931433
v 5.494987 0.800000 -3.731440
v 5.493242 0.000000 -3.931433
v 5.494987 0.000000 -3.731440
vt 0.388340 0.443878
vt 0.595139 0.443878
vt 0.595139 0.650677
vt 0.388340 0.650677
vt 0.599743 0.443878
vt 0.806542 0.443878
vt 0.806542 0.650677
vt 0.599743 0.650677
vt 0.599743 0.232324
vt 0.599743 0.025525
vt 0.806541 0.025525
vt 0.806541 0.232324
vt 0.564375 0.234701
vt 0.771174 0.234701
vt 0.771174 0.441500
vt 0.564375 0.441500
vt 0.388340 0.025525
vt 0.595139 0.025525
vt 0.595139 0.232324
vt 0.388340 0.232324
vt 0.774829 0.441500
vt 0.774829 0.234701
vt 0.981628 0.234701
vt 0.981628 0.441500
vt 0.057101 0.562304
vt 0.187260 0.562304
vt 0.187260 0.692463
vt 0.057101 0.692463
vt 0.190157 0.692463
vt 0.190157 0.562304
vt 0.320316 0.562304
vt 0.320316 0.692463
vt 0.300356 0.824118
vt 0.300356 0.693959
vt 0.430516 0.693959
vt 0.430516 0.824118
vt 0.167897 0.693959
vt 0.298056 0.693959
vt 0.298056 0.824118
vt 0.167897 0.824118
vt 0.057101 0.825615
vt 0.187260 0.825615
vt 0.187260 0.955774
vt 0.057101 0.955774
vt 0.190157 0.825615
vt 0.320316 0.825615
vt 0.320316 0.955774
vt 0.190157 0.955774
vt 0.388340 0.025525
vt 0.595139 0.025525
vt 0.595139 0.232324
vt 0.388340 0.232324
vt 0.599743 0.232324
vt 0.599743 0.025525
vt 0.806541 0.025525
vt 0.806541 0.232324
vt 0.774829 0.441500
vt 0.774829 0.234701
vt 0.981628 0.234701
vt 0.981628 0.441500
vt 0.564375 0.234701
vt 0.771174 0.234701
vt 0.771174 0.441500
vt 0.564375 0.441500
vt 0.388340 0.443878
vt 0.595139 0.443878
vt 0.595139 0.650677
vt 0.388340 0.650677
vt 0.599743 0.443878
vt 0.806542 0.443878
vt 0.806542 0.650677
vt 0.599743 0.650677
vn -0.999962 0.000000 0.008727
vn -0.999962 0.000000 0.008727
vn -0.999962 0.000000 0.008727
vn -0.999962 0.000000 0.008727
vn 0.000000 1.000000 0.000000
vn 0.000000 1.000000 0.000000
vn 0.000000 1.000000 0.000000
vn 0.000000 1.000000 0.000000
vn 0.999962 0.000000 -0.008727
vn 0.999962 0.000000 -0.008727
vn 0.999962 0.000000 -0.008727
vn 0.999962 0.000000 -0.008727
vn 0.000000 -1.000000 0.000000
vn 0.000000 -1.000000 0.000000
vn 0.000000 -1.000000 0.000000
vn 0.000000 -1.000000 0.000000
vn 0.008727 0.000000 0.999962
vn 0.008727 0.000000 0.999962
vn 0.008727 0.000000 0.999962
vn 0.008727 0.000000 0.999962
vn -0.008726 0.000000 -0.999962
vn -0.008727 0.000000 -0.999962
vn -0.008726 0.000000 -0.999962
vn -0.008727 0.000000 -0.999962
vn -0.999962 0.000000 0.008727
vn -0.999962 0.000000 0.008727
vn -0.999962 0.000000 0.008727
vn -0.999962 0.000000 0.008727
vn 0.000000 1.000000 0.000000
vn 0.000000 1.000000 0.000000
vn 0.000000 1.000000 0.000000
vn 0.000000 1.000000 0.000000
vn 0.999962 0.000000 -0.008727
vn 0.999962 0.000000 -0.008727
vn 0.999962 0.000000 -0.008727
vn 0.999962 0.000000 -0.008727
vn 0.000000 -1.000000 0.000000
vn 0.000000 -1.000000 0.000000
vn 0.000000 -1.000000 0.000000
vn 0.000000 -1.000000 0.000000
vn 0.008727 0.000000 0.999962
vn 0.008726 0.000000 0.999962
vn 0.008727 0.000000 0.999962
vn 0.008726 0.000000 0.999962
vn -0.008726 0.000000 -0.999962
vn -0.008727 0.000000 -0.999962
vn -0.008726 0.000000 -0.999962
vn -0.008727 0.000000 -0.999962
vn -0.999962 0.000000 0.008726
vn -0.999962 0.000000 0.008726
vn -0.999962 0.000000 0.008726
vn -0.999962 0.000000 0.008726
vn 0.000000 1.000000 0.000000
vn 0.000000 1.000000 0.000000
vn 0.000000 1.000000 0.000000
vn 0.000000 1.000000 0.000000
vn 0.999962 0.000000 -0.008726
vn 0.999962 0.000000 -0.008726
vn 0.999962 0.000000 -0.008726
vn 0.999962 0.000000 -0.008726
vn 0.000000 -1.000000 0.000000
vn 0.000000 -1.000000 0.000000
vn 0.000000 -1.000000 0.000000
vn 0.000000 -1.000000 0.000000
vn 0.008727 0.000000 0.999962
vn 0.008726 0.000000 0.999962
vn 0.008727 0.000000 0.999962
vn 0.008726 0.000000 0.999962
vn -0.008726 0.000000 -0.999962
vn -0.008726 0.000000 -0.999962
vn -0.008726 0.000000 -0.999962
vn -0.008726 0.000000 -0.999962
s 1
g pCube51
usemtl lambert2SG
f 1/17/1 2/18/2 3/20/3
f 3/20/3 2/18/2 4/19/4
s 2
f 3/9/5 4/10/6 5/12/7
f 5/12/7 4/10/6 6/11/8
s 3
f 5/21/9 6/22/10 7/24/11
f 7/24/11 6/22/10 8/23/12
s 4
f 7/13/13 8/14/14 1/16/15
f 1/16/15 8/14/14 2/15/16
s 5
f 2/1/17 8/2/18 4/4/19
f 4/4/19 8/2/18 6/3/20
s 6
f 7/5/21 1/6/22 5/8/23
f 5/8/23 1/6/22 3/7/24
s 7
f 9/25/25 10/26/26 11/28/27
f 11/28/27 10/26/26 12/27/28
s 8
f 11/29/29 12/30/30 13/32/31
f 13/32/31 12/30/30 14/31/32
s 9
f 13/33/33 14/34/34 15/36/35
f 15/36/35 14/34/34 16/35/36
s 10
f 15/37/37 16/38/38 9/40/39
f 9/40/39 16/38/38 10/39/40
s 11
f 10/41/41 16/42/42 12/44/43
f 12/44/43 16/42/42 14/43/44
s 12
f 15/45/45 9/46/46 13/48/47
f 13/48/47 9/46/46 11/47/48
s 13
f 17/49/49 18/50/50 19/52/51
f 19/52/51 18/50/50 20/51/52
s 14
f 19/53/53 20/54/54 21/56/55
f 21/56/55 20/54/54 22/55/56
s 15
f 21/57/57 22/58/58 23/60/59
f 23/60/59 22/58/58 24/59/60
s 16
f 23/61/61 24/62/62 17/64/63
f 17/64/63 24/62/62 18/63/64
s 17
f 18/65/65 24/66/66 20/68/67
f 20/68/67 24/66/66 22/67/68
s 18
f 23/69/69 17/70/70 21/72/71
f 21/72/71 17/70/70 19/71/72
