# This file uses centimeters as units for non-parametric coordinates.

mtllib Blueprint2.mtl
g default
v 103.398892 0.050717 -96.695466
v 103.393567 0.061839 -96.697406
v 103.385274 0.070666 -96.700425
v 103.374821 0.076334 -96.704228
v 103.363236 0.078286 -96.708445
v 103.351649 0.076334 -96.712662
v 103.341197 0.070666 -96.716468
v 103.332903 0.061839 -96.719485
v 103.327578 0.050717 -96.721425
v 103.325741 0.038387 -96.722091
v 103.327578 0.026058 -96.721425
v 103.332903 0.014936 -96.719485
v 103.341197 0.006109 -96.716468
v 103.351649 0.000441 -96.712662
v 103.363236 -0.001511 -96.708445
v 103.374821 0.000441 -96.704228
v 103.385274 0.006109 -96.700425
v 103.393567 0.014936 -96.697406
v 103.398892 0.026058 -96.695466
v 103.400727 0.038387 -96.694800
v 103.248545 0.050717 -96.282391
v 103.243220 0.061839 -96.284331
v 103.234927 0.070666 -96.287349
v 103.224475 0.076334 -96.291154
v 103.212887 0.078286 -96.295369
v 103.201302 0.076334 -96.299586
v 103.190850 0.070666 -96.303391
v 103.182555 0.061839 -96.306411
v 103.177231 0.050717 -96.308348
v 103.175395 0.038387 -96.309016
v 103.177231 0.026058 -96.308348
v 103.182557 0.014936 -96.306411
v 103.190850 0.006109 -96.303391
v 103.201302 0.000441 -96.299586
v 103.212887 -0.001511 -96.295369
v 103.224475 0.000441 -96.291154
v 103.234927 0.006109 -96.287349
v 103.243220 0.014936 -96.284331
v 103.248545 0.026058 -96.282391
v 103.250380 0.038387 -96.281724
v 103.363236 0.038387 -96.708445
v 103.212887 0.038387 -96.295369
v 103.315064 0.047702 -96.492280
v 103.311041 0.056105 -96.493743
v 103.304774 0.062774 -96.496024
v 103.296877 0.067056 -96.498898
v 103.288125 0.068531 -96.502084
v 103.279372 0.067056 -96.505269
v 103.271475 0.062774 -96.508143
v 103.265210 0.056105 -96.510424
v 103.261187 0.047702 -96.511889
v 103.259801 0.038387 -96.512393
v 103.261187 0.029073 -96.511889
v 103.265210 0.020670 -96.510424
v 103.271475 0.014001 -96.508143
v 103.279372 0.009719 -96.505269
v 103.288125 0.008244 -96.502084
v 103.296877 0.009719 -96.498898
v 103.304774 0.014001 -96.496024
v 103.311041 0.020670 -96.493743
v 103.315064 0.029073 -96.492280
v 103.316451 0.038387 -96.491774
vt 0.973189 0.535145
vt 0.924240 0.439077
vt 0.848000 0.362837
vt 0.751932 0.313888
vt 0.645440 0.297021
vt 0.538947 0.313888
vt 0.442879 0.362837
vt 0.366639 0.439077
vt 0.317690 0.535145
vt 0.300823 0.641638
vt 0.317690 0.748130
vt 0.366639 0.844198
vt 0.442879 0.920438
vt 0.538947 0.969387
vt 0.645440 0.986254
vt 0.751932 0.969387
vt 0.848000 0.920438
vt 0.924240 0.844198
vt 0.973189 0.748130
vt 0.990056 0.641638
vt 0.066285 0.047059
vt 0.078785 0.047059
vt 0.091285 0.047059
vt 0.103785 0.047059
vt 0.116285 0.047059
vt 0.128785 0.047059
vt 0.141285 0.047059
vt 0.153785 0.047059
vt 0.166285 0.047059
vt 0.178785 0.047059
vt 0.191285 0.047059
vt 0.203785 0.047059
vt 0.216285 0.047059
vt 0.228785 0.047059
vt 0.241285 0.047059
vt 0.253785 0.047059
vt 0.266285 0.047059
vt 0.278785 0.047059
vt 0.291285 0.047059
vt 0.303785 0.047059
vt 0.316285 0.047059
vt 0.066285 0.422999
vt 0.078785 0.422999
vt 0.091285 0.422999
vt 0.103785 0.422999
vt 0.116285 0.422999
vt 0.128785 0.422999
vt 0.141285 0.422999
vt 0.153785 0.422999
vt 0.166285 0.422999
vt 0.178785 0.422999
vt 0.191285 0.422999
vt 0.203785 0.422999
vt 0.216285 0.422999
vt 0.228785 0.422999
vt 0.241285 0.422999
vt 0.253785 0.422999
vt 0.266285 0.422999
vt 0.278785 0.422999
vt 0.291285 0.422999
vt 0.303785 0.422999
vt 0.316285 0.422999
vt 0.971638 0.536020
vt 0.922689 0.439952
vt 0.846449 0.363712
vt 0.750381 0.314763
vt 0.643889 0.297896
vt 0.537396 0.314763
vt 0.441328 0.363712
vt 0.365088 0.439952
vt 0.316139 0.536020
vt 0.299272 0.642513
vt 0.316139 0.749005
vt 0.365088 0.845073
vt 0.441328 0.921313
vt 0.537396 0.970262
vt 0.643889 0.987129
vt 0.750381 0.970262
vt 0.846449 0.921313
vt 0.922689 0.845073
vt 0.971638 0.749005
vt 0.988505 0.642513
vt 0.645440 0.627853
vt 0.643889 0.628728
vt 0.316285 0.234809
vt 0.066285 0.234809
vt 0.078785 0.234809
vt 0.091285 0.234809
vt 0.103785 0.234809
vt 0.116285 0.234809
vt 0.128785 0.234809
vt 0.141285 0.234809
vt 0.153785 0.234809
vt 0.166285 0.234809
vt 0.178785 0.234809
vt 0.191285 0.234809
vt 0.203785 0.234809
vt 0.216285 0.234809
vt 0.228785 0.234809
vt 0.241285 0.234809
vt 0.253785 0.234809
vt 0.266285 0.234809
vt 0.278785 0.234809
vt 0.291285 0.234809
vt 0.303785 0.234809
vn 0.893633 0.309235 0.325260
vn 0.760153 0.587895 0.276673
vn 0.908205 0.307966 0.283409
vn 0.774935 0.586766 0.234907
vn 0.552291 0.809052 0.201021
vn 0.567291 0.807957 0.159332
vn 0.290414 0.951045 0.105708
vn 0.305638 0.949988 0.064101
vn -0.000001 1.000000 0.000004
vn 0.015653 0.999018 -0.041437
vn -0.290373 0.951059 -0.105688
vn -0.274370 0.950323 -0.146995
vn -0.552319 0.809030 -0.201031
vn -0.536179 0.808581 -0.242297
vn -0.760247 0.587755 -0.276711
vn -0.744129 0.587498 -0.317991
vn -0.893712 0.308985 -0.325280
vn -0.877557 0.309082 -0.366556
vn -0.939692 0.000111 -0.342022
vn -0.923617 0.000362 -0.383316
vn -0.893774 -0.308780 -0.325305
vn -0.877777 -0.308374 -0.366624
vn -0.760302 -0.587676 -0.276727
vn -0.744639 -0.586755 -0.318169
vn -0.552272 -0.809067 -0.201012
vn -0.537057 -0.807902 -0.242621
vn -0.290345 -0.951069 -0.105678
vn -0.275400 -0.949964 -0.147389
vn 0.000001 -1.000000 0.000005
vn 0.014667 -0.999018 -0.041815
vn 0.290380 -0.951056 0.105696
vn 0.304785 -0.950284 0.063776
vn 0.552242 -0.809091 0.200998
vn 0.566635 -0.808466 0.159085
vn 0.760199 -0.587827 0.276688
vn 0.774424 -0.587515 0.234720
vn 0.893727 -0.308928 0.325294
vn 0.907848 -0.309133 0.283281
vn 0.939693 0.000224 0.342020
vn 0.953923 -0.000698 0.300050
vn 0.342014 0.000000 -0.939695
vn 0.342059 0.000061 -0.939678
vn 0.342023 0.000009 -0.939692
vn 0.341948 0.000000 -0.939719
vn 0.342048 0.000000 -0.939682
vn 0.342251 0.000000 -0.939609
vn 0.342127 0.000061 -0.939654
vn 0.341886 0.000061 -0.939742
vn 0.341948 0.000061 -0.939719
vn 0.342064 -0.000121 -0.939677
vn 0.342083 0.000000 -0.939670
vn 0.342063 0.000121 -0.939677
vn 0.342001 0.000000 -0.939700
vn 0.341939 0.000030 -0.939722
vn 0.342020 -0.000030 -0.939693
vn 0.342144 0.000000 -0.939648
vn 0.341834 0.000000 -0.939760
vn 0.341788 0.000000 -0.939777
vn 0.342067 0.000000 -0.939676
vn 0.342086 -0.000061 -0.939669
vn 0.342087 0.000000 -0.939668
vn -0.342045 -0.000000 0.939684
vn -0.341948 0.000121 0.939719
vn -0.342019 -0.000000 0.939693
vn -0.341993 0.000061 0.939703
vn -0.342020 0.000000 0.939693
vn -0.341930 0.000000 0.939726
vn -0.342048 0.000030 0.939682
vn -0.342142 -0.000030 0.939648
vn -0.342108 -0.000061 0.939661
vn -0.342059 0.000061 0.939678
vn -0.341991 0.000000 0.939703
vn -0.341998 -0.000061 0.939701
vn -0.342067 0.000000 0.939676
vn -0.342216 0.000000 0.939621
vn -0.342155 0.000000 0.939643
vn -0.341930 0.000000 0.939725
vn -0.341913 -0.000030 0.939732
vn -0.341832 -0.000030 0.939761
vn -0.341948 -0.000061 0.939719
vn -0.342045 0.000000 0.939684
vn -0.341991 -0.000000 0.939703
vn 0.877519 0.309115 0.366618
vn 0.744052 0.587570 0.318037
vn 0.536275 0.808482 0.242418
vn 0.274501 0.950261 0.147152
vn -0.015683 0.999014 0.041531
vn -0.305766 0.949949 -0.064059
vn -0.567441 0.807858 -0.159301
vn -0.774996 0.586708 -0.234849
vn -0.908138 0.308259 -0.283307
vn -0.953948 -0.000534 -0.299972
vn -0.907829 -0.309271 -0.283192
vn -0.774411 -0.587566 -0.234636
vn -0.566626 -0.808487 -0.159006
vn -0.304761 -0.950296 -0.063702
vn -0.014678 -0.999015 0.041881
vn 0.275411 -0.949948 0.147473
vn 0.537011 -0.807914 0.242682
vn 0.744485 -0.586941 0.318186
vn 0.877737 -0.308406 0.366693
vn 0.923588 0.000356 0.383387
s 1
g blueprints2
usemtl Blueprint:lambert2SG
f 43/86/1 44/87/2 21/42/3
f 21/42/3 44/87/2 22/43/4
f 44/87/2 45/88/5 22/43/4
f 22/43/4 45/88/5 23/44/6
f 45/88/5 46/89/7 23/44/6
f 23/44/6 46/89/7 24/45/8
f 46/89/7 47/90/9 24/45/8
f 24/45/8 47/90/9 25/46/10
f 47/90/9 48/91/11 25/46/10
f 25/46/10 48/91/11 26/47/12
f 48/91/11 49/92/13 26/47/12
f 26/47/12 49/92/13 27/48/14
f 49/92/13 50/93/15 27/48/14
f 27/48/14 50/93/15 28/49/16
f 50/93/15 51/94/17 28/49/16
f 28/49/16 51/94/17 29/50/18
f 51/94/17 52/95/19 29/50/18
f 29/50/18 52/95/19 30/51/20
f 52/95/19 53/96/21 30/51/20
f 30/51/20 53/96/21 31/52/22
f 53/96/21 54/97/23 31/52/22
f 31/52/22 54/97/23 32/53/24
f 54/97/23 55/98/25 32/53/24
f 32/53/24 55/98/25 33/54/26
f 55/98/25 56/99/27 33/54/26
f 33/54/26 56/99/27 34/55/28
f 56/99/27 57/100/29 34/55/28
f 34/55/28 57/100/29 35/56/30
f 57/100/29 58/101/31 35/56/30
f 35/56/30 58/101/31 36/57/32
f 58/101/31 59/102/33 36/57/32
f 36/57/32 59/102/33 37/58/34
f 59/102/33 60/103/35 37/58/34
f 37/58/34 60/103/35 38/59/36
f 60/103/35 61/104/37 38/59/36
f 38/59/36 61/104/37 39/60/38
f 61/104/37 62/105/39 39/60/38
f 39/60/38 62/105/39 40/61/40
f 62/105/39 43/85/1 40/61/40
f 40/61/40 43/85/1 21/62/3
s 2
f 2/2/41 1/1/42 41/83/43
f 3/3/44 2/2/41 41/83/43
f 4/4/45 3/3/44 41/83/43
f 5/5/46 4/4/45 41/83/43
f 6/6/47 5/5/46 41/83/43
f 7/7/48 6/6/47 41/83/43
f 8/8/49 7/7/48 41/83/43
f 9/9/50 8/8/49 41/83/43
f 10/10/51 9/9/50 41/83/43
f 11/11/52 10/10/51 41/83/43
f 12/12/53 11/11/52 41/83/43
f 13/13/54 12/12/53 41/83/43
f 14/14/55 13/13/54 41/83/43
f 15/15/56 14/14/55 41/83/43
f 16/16/57 15/15/56 41/83/43
f 17/17/58 16/16/57 41/83/43
f 18/18/59 17/17/58 41/83/43
f 19/19/60 18/18/59 41/83/43
f 20/20/61 19/19/60 41/83/43
f 1/1/42 20/20/61 41/83/43
s 3
f 21/81/62 22/80/63 42/84/64
f 22/80/63 23/79/65 42/84/64
f 23/79/65 24/78/66 42/84/64
f 24/78/66 25/77/67 42/84/64
f 25/77/67 26/76/68 42/84/64
f 26/76/68 27/75/69 42/84/64
f 27/75/69 28/74/70 42/84/64
f 28/74/70 29/73/71 42/84/64
f 29/73/71 30/72/72 42/84/64
f 30/72/72 31/71/73 42/84/64
f 31/71/73 32/70/74 42/84/64
f 32/70/74 33/69/75 42/84/64
f 33/69/75 34/68/76 42/84/64
f 34/68/76 35/67/77 42/84/64
f 35/67/77 36/66/78 42/84/64
f 36/66/78 37/65/79 42/84/64
f 37/65/79 38/64/80 42/84/64
f 38/64/80 39/63/81 42/84/64
f 39/63/81 40/82/82 42/84/64
f 40/82/82 21/81/62 42/84/64
s 1
f 1/21/83 2/22/84 43/86/1
f 43/86/1 2/22/84 44/87/2
f 2/22/84 3/23/85 44/87/2
f 44/87/2 3/23/85 45/88/5
f 3/23/85 4/24/86 45/88/5
f 45/88/5 4/24/86 46/89/7
f 4/24/86 5/25/87 46/89/7
f 46/89/7 5/25/87 47/90/9
f 5/25/87 6/26/88 47/90/9
f 47/90/9 6/26/88 48/91/11
f 6/26/88 7/27/89 48/91/11
f 48/91/11 7/27/89 49/92/13
f 7/27/89 8/28/90 49/92/13
f 49/92/13 8/28/90 50/93/15
f 8/28/90 9/29/91 50/93/15
f 50/93/15 9/29/91 51/94/17
f 9/29/91 10/30/92 51/94/17
f 51/94/17 10/30/92 52/95/19
f 10/30/92 11/31/93 52/95/19
f 52/95/19 11/31/93 53/96/21
f 11/31/93 12/32/94 53/96/21
f 53/96/21 12/32/94 54/97/23
f 12/32/94 13/33/95 54/97/23
f 54/97/23 13/33/95 55/98/25
f 13/33/95 14/34/96 55/98/25
f 55/98/25 14/34/96 56/99/27
f 14/34/96 15/35/97 56/99/27
f 56/99/27 15/35/97 57/100/29
f 15/35/97 16/36/98 57/100/29
f 57/100/29 16/36/98 58/101/31
f 16/36/98 17/37/99 58/101/31
f 58/101/31 17/37/99 59/102/33
f 17/37/99 18/38/100 59/102/33
f 59/102/33 18/38/100 60/103/35
f 18/38/100 19/39/101 60/103/35
f 60/103/35 19/39/101 61/104/37
f 19/39/101 20/40/102 61/104/37
f 61/104/37 20/40/102 62/105/39
f 20/40/102 1/41/83 62/105/39
f 62/105/39 1/41/83 43/85/1
