# This file uses centimeters as units for non-parametric coordinates.

mtllib Blueprint2.mtl
g default
v 43.497627 1.265451 37.705166
v 43.495792 1.279389 37.712029
v 43.492928 1.290451 37.722710
v 43.489319 1.297553 37.736176
v 43.485321 1.300000 37.751099
v 43.481323 1.297553 37.766026
v 43.477715 1.290451 37.779488
v 43.474854 1.279389 37.790173
v 43.473015 1.265451 37.797031
v 43.472382 1.250000 37.799397
v 43.473015 1.234549 37.797031
v 43.474854 1.220611 37.790173
v 43.477715 1.209549 37.779488
v 43.481323 1.202447 37.766026
v 43.485321 1.200000 37.751099
v 43.489319 1.202447 37.736176
v 43.492928 1.209549 37.722710
v 43.495792 1.220611 37.712029
v 43.497627 1.234549 37.705166
v 43.498260 1.250000 37.702805
v 44.029732 1.265451 37.847744
v 44.027893 1.279389 37.854603
v 44.025032 1.290451 37.865288
v 44.021423 1.297553 37.878750
v 44.017426 1.300000 37.893677
v 44.013428 1.297553 37.908600
v 44.009819 1.290451 37.922066
v 44.006954 1.279389 37.932747
v 44.005119 1.265451 37.939610
v 44.004486 1.250000 37.941971
v 44.005119 1.234549 37.939610
v 44.006954 1.220611 37.932747
v 44.009819 1.209549 37.922066
v 44.013428 1.202447 37.908600
v 44.017426 1.200000 37.893677
v 44.021423 1.202447 37.878750
v 44.025032 1.209549 37.865288
v 44.027893 1.220611 37.854603
v 44.029732 1.234549 37.847744
v 44.030365 1.250000 37.845379
v 43.485321 1.250000 37.751099
v 44.017426 1.250000 37.893677
v 43.760445 1.261673 37.787624
v 43.759056 1.272203 37.792809
v 43.756893 1.280560 37.800880
v 43.754169 1.285926 37.811050
v 43.751148 1.287775 37.822327
v 43.748127 1.285926 37.833603
v 43.745399 1.280560 37.843773
v 43.743237 1.272203 37.851845
v 43.741848 1.261673 37.857029
v 43.741371 1.250000 37.858814
v 43.741848 1.238327 37.857029
v 43.743237 1.227797 37.851845
v 43.745399 1.219440 37.843773
v 43.748127 1.214074 37.833603
v 43.751148 1.212225 37.822327
v 43.754169 1.214074 37.811050
v 43.756893 1.219440 37.800880
v 43.759056 1.227797 37.792809
v 43.760445 1.238327 37.787624
v 43.760921 1.250000 37.785839
vt 0.973189 0.535145
vt 0.924240 0.439077
vt 0.848000 0.362837
vt 0.751932 0.313888
vt 0.645440 0.297021
vt 0.538947 0.313888
vt 0.442879 0.362837
vt 0.366639 0.439077
vt 0.317690 0.535145
vt 0.300823 0.641638
vt 0.317690 0.748130
vt 0.366639 0.844198
vt 0.442879 0.920438
vt 0.538947 0.969387
vt 0.645440 0.986254
vt 0.751932 0.969387
vt 0.848000 0.920438
vt 0.924240 0.844198
vt 0.973189 0.748130
vt 0.990056 0.641638
vt 0.066285 0.047059
vt 0.078785 0.047059
vt 0.091285 0.047059
vt 0.103785 0.047059
vt 0.116285 0.047059
vt 0.128785 0.047059
vt 0.141285 0.047059
vt 0.153785 0.047059
vt 0.166285 0.047059
vt 0.178785 0.047059
vt 0.191285 0.047059
vt 0.203785 0.047059
vt 0.216285 0.047059
vt 0.228785 0.047059
vt 0.241285 0.047059
vt 0.253785 0.047059
vt 0.266285 0.047059
vt 0.278785 0.047059
vt 0.291285 0.047059
vt 0.303785 0.047059
vt 0.316285 0.047059
vt 0.066285 0.422999
vt 0.078785 0.422999
vt 0.091285 0.422999
vt 0.103785 0.422999
vt 0.116285 0.422999
vt 0.128785 0.422999
vt 0.141285 0.422999
vt 0.153785 0.422999
vt 0.166285 0.422999
vt 0.178785 0.422999
vt 0.191285 0.422999
vt 0.203785 0.422999
vt 0.216285 0.422999
vt 0.228785 0.422999
vt 0.241285 0.422999
vt 0.253785 0.422999
vt 0.266285 0.422999
vt 0.278785 0.422999
vt 0.291285 0.422999
vt 0.303785 0.422999
vt 0.316285 0.422999
vt 0.971638 0.536020
vt 0.922689 0.439952
vt 0.846449 0.363712
vt 0.750381 0.314763
vt 0.643889 0.297896
vt 0.537396 0.314763
vt 0.441328 0.363712
vt 0.365088 0.439952
vt 0.316139 0.536020
vt 0.299272 0.642513
vt 0.316139 0.749005
vt 0.365088 0.845073
vt 0.441328 0.921313
vt 0.537396 0.970262
vt 0.643889 0.987129
vt 0.750381 0.970262
vt 0.846449 0.921313
vt 0.922689 0.845073
vt 0.971638 0.749005
vt 0.988505 0.642513
vt 0.645440 0.627853
vt 0.643889 0.628728
vt 0.316285 0.234809
vt 0.066285 0.234809
vt 0.078785 0.234809
vt 0.091285 0.234809
vt 0.103785 0.234809
vt 0.116285 0.234809
vt 0.128785 0.234809
vt 0.141285 0.234809
vt 0.153785 0.234809
vt 0.166285 0.234809
vt 0.178785 0.234809
vt 0.191285 0.234809
vt 0.203785 0.234809
vt 0.216285 0.234809
vt 0.228785 0.234809
vt 0.241285 0.234809
vt 0.253785 0.234809
vt 0.266285 0.234809
vt 0.278785 0.234809
vt 0.291285 0.234809
vt 0.303785 0.234809
vn 0.246144 0.309041 -0.918644
vn 0.209384 0.587797 -0.781443
vn 0.166392 0.587209 -0.792148
vn 0.203112 0.308758 -0.929201
vn 0.152133 0.809004 -0.567774
vn 0.109187 0.808200 -0.578698
vn 0.079977 0.951057 -0.298487
vn 0.037100 0.950122 -0.309663
vn 0.000004 1.000000 0.000000
vn -0.042792 0.999018 -0.011454
vn -0.079978 0.951060 0.298476
vn -0.122688 0.950128 0.286715
vn -0.152135 0.809009 0.567767
vn -0.194774 0.808226 0.555728
vn -0.209389 0.587806 0.781435
vn -0.251979 0.587219 0.769208
vn -0.246151 0.309026 0.918647
vn -0.288710 0.308689 0.906288
vn -0.258817 0.000000 0.965927
vn -0.301349 0.000000 0.953514
vn -0.246150 -0.309027 0.918647
vn -0.288707 -0.308690 0.906288
vn -0.209390 -0.587809 0.781432
vn -0.251982 -0.587222 0.769204
vn -0.152131 -0.809010 0.567767
vn -0.194774 -0.808226 0.555728
vn -0.079980 -0.951058 0.298483
vn -0.122692 -0.950125 0.286722
vn 0.000001 -1.000000 0.000000
vn -0.042792 -0.999018 -0.011454
vn 0.079976 -0.951057 -0.298488
vn 0.037101 -0.950124 -0.309657
vn 0.152134 -0.809008 -0.567768
vn 0.109185 -0.808208 -0.578686
vn 0.209387 -0.587801 -0.781439
vn 0.166393 -0.587213 -0.792145
vn 0.246143 -0.309042 -0.918644
vn 0.203113 -0.308759 -0.929200
vn 0.258814 -0.000000 -0.965927
vn 0.215765 0.000000 -0.976445
vn -0.965907 0.000154 -0.258891
vn -0.965943 0.000000 -0.258755
vn -0.965931 0.000008 -0.258799
vn -0.965898 0.000154 -0.258924
vn -0.965940 0.000000 -0.258764
vn -0.965948 0.000000 -0.258738
vn -0.965940 -0.000154 -0.258764
vn -0.965944 -0.000154 -0.258753
vn -0.965932 0.000000 -0.258795
vn -0.965923 0.000000 -0.258828
vn -0.965941 0.000154 -0.258762
vn -0.965929 0.000154 -0.258809
vn -0.965933 0.000000 -0.258792
vn -0.965944 0.000077 -0.258751
vn -0.965940 0.000077 -0.258764
vn -0.965948 0.000000 -0.258738
vn -0.965930 0.000000 -0.258803
vn -0.965898 -0.000154 -0.258921
vn -0.965917 -0.000154 -0.258851
vn -0.965938 0.000000 -0.258773
vn -0.965931 0.000000 -0.258801
vn 0.965923 0.000309 0.258828
vn 0.965937 0.000154 0.258776
vn 0.965934 0.000008 0.258787
vn 0.965954 -0.000154 0.258715
vn 0.965940 0.000000 0.258764
vn 0.965948 0.000000 0.258738
vn 0.965930 0.000000 0.258803
vn 0.965908 0.000154 0.258885
vn 0.965927 0.000154 0.258814
vn 0.965943 -0.000309 0.258755
vn 0.965931 0.000000 0.258801
vn 0.965938 0.000309 0.258773
vn 0.965928 -0.000154 0.258812
vn 0.965909 -0.000154 0.258883
vn 0.965930 0.000000 0.258803
vn 0.965948 0.000000 0.258738
vn 0.965940 -0.000077 0.258764
vn 0.965944 0.000077 0.258751
vn 0.965933 -0.000000 0.258792
vn 0.965929 -0.000154 0.258809
vn 0.965946 0.000000 0.258743
vn 0.288769 0.308704 -0.906264
vn 0.252037 0.587229 -0.769181
vn 0.194845 0.808224 -0.555707
vn 0.122770 0.950121 -0.286702
vn 0.042872 0.999015 0.011475
vn -0.037033 0.950122 0.309670
vn -0.109126 0.808207 0.578699
vn -0.166316 0.587236 0.792145
vn -0.203039 0.308743 0.929222
vn -0.215697 0.000000 0.976461
vn -0.203039 -0.308744 0.929221
vn -0.166315 -0.587240 0.792142
vn -0.109118 -0.808208 0.578699
vn -0.037033 -0.950120 0.309678
vn 0.042864 -0.999015 0.011475
vn 0.122766 -0.950119 -0.286709
vn 0.194849 -0.808223 -0.555706
vn 0.252042 -0.587232 -0.769177
vn 0.288766 -0.308706 -0.906264
vn 0.301420 -0.000000 -0.953492
s 1
g Blueprint:pCylinder1
usemtl Blueprint:lambert2SG
f 43/86/1 44/87/2 22/43/3 21/42/4
f 44/87/2 45/88/5 23/44/6 22/43/3
f 45/88/5 46/89/7 24/45/8 23/44/6
f 46/89/7 47/90/9 25/46/10 24/45/8
f 47/90/9 48/91/11 26/47/12 25/46/10
f 48/91/11 49/92/13 27/48/14 26/47/12
f 49/92/13 50/93/15 28/49/16 27/48/14
f 50/93/15 51/94/17 29/50/18 28/49/16
f 51/94/17 52/95/19 30/51/20 29/50/18
f 52/95/19 53/96/21 31/52/22 30/51/20
f 53/96/21 54/97/23 32/53/24 31/52/22
f 54/97/23 55/98/25 33/54/26 32/53/24
f 55/98/25 56/99/27 34/55/28 33/54/26
f 56/99/27 57/100/29 35/56/30 34/55/28
f 57/100/29 58/101/31 36/57/32 35/56/30
f 58/101/31 59/102/33 37/58/34 36/57/32
f 59/102/33 60/103/35 38/59/36 37/58/34
f 60/103/35 61/104/37 39/60/38 38/59/36
f 61/104/37 62/105/39 40/61/40 39/60/38
f 62/105/39 43/85/1 21/62/4 40/61/40
s 2
f 2/2/41 1/1/42 41/83/43
f 3/3/44 2/2/41 41/83/43
f 4/4/45 3/3/44 41/83/43
f 5/5/46 4/4/45 41/83/43
f 6/6/47 5/5/46 41/83/43
f 7/7/48 6/6/47 41/83/43
f 8/8/49 7/7/48 41/83/43
f 9/9/50 8/8/49 41/83/43
f 10/10/51 9/9/50 41/83/43
f 11/11/52 10/10/51 41/83/43
f 12/12/53 11/11/52 41/83/43
f 13/13/54 12/12/53 41/83/43
f 14/14/55 13/13/54 41/83/43
f 15/15/56 14/14/55 41/83/43
f 16/16/57 15/15/56 41/83/43
f 17/17/58 16/16/57 41/83/43
f 18/18/59 17/17/58 41/83/43
f 19/19/60 18/18/59 41/83/43
f 20/20/61 19/19/60 41/83/43
f 1/1/42 20/20/61 41/83/43
s 3
f 21/81/62 22/80/63 42/84/64
f 22/80/63 23/79/65 42/84/64
f 23/79/65 24/78/66 42/84/64
f 24/78/66 25/77/67 42/84/64
f 25/77/67 26/76/68 42/84/64
f 26/76/68 27/75/69 42/84/64
f 27/75/69 28/74/70 42/84/64
f 28/74/70 29/73/71 42/84/64
f 29/73/71 30/72/72 42/84/64
f 30/72/72 31/71/73 42/84/64
f 31/71/73 32/70/74 42/84/64
f 32/70/74 33/69/75 42/84/64
f 33/69/75 34/68/76 42/84/64
f 34/68/76 35/67/77 42/84/64
f 35/67/77 36/66/78 42/84/64
f 36/66/78 37/65/79 42/84/64
f 37/65/79 38/64/80 42/84/64
f 38/64/80 39/63/81 42/84/64
f 39/63/81 40/82/82 42/84/64
f 40/82/82 21/81/62 42/84/64
s 1
f 1/21/83 2/22/84 44/87/2 43/86/1
f 2/22/84 3/23/85 45/88/5 44/87/2
f 3/23/85 4/24/86 46/89/7 45/88/5
f 4/24/86 5/25/87 47/90/9 46/89/7
f 5/25/87 6/26/88 48/91/11 47/90/9
f 6/26/88 7/27/89 49/92/13 48/91/11
f 7/27/89 8/28/90 50/93/15 49/92/13
f 8/28/90 9/29/91 51/94/17 50/93/15
f 9/29/91 10/30/92 52/95/19 51/94/17
f 10/30/92 11/31/93 53/96/21 52/95/19
f 11/31/93 12/32/94 54/97/23 53/96/21
f 12/32/94 13/33/95 55/98/25 54/97/23
f 13/33/95 14/34/96 56/99/27 55/98/25
f 14/34/96 15/35/97 57/100/29 56/99/27
f 15/35/97 16/36/98 58/101/31 57/100/29
f 16/36/98 17/37/99 59/102/33 58/101/31
f 17/37/99 18/38/100 60/103/35 59/102/33
f 18/38/100 19/39/101 61/104/37 60/103/35
f 19/39/101 20/40/102 62/105/39 61/104/37
f 20/40/102 1/41/83 43/85/1 62/105/39
