# This file uses centimeters as units for non-parametric coordinates.

mtllib BulletTrail.mtl
g default
v 0.028905 -0.040551 0.467663
v 0.004042 -0.040551 0.354163
v -0.015897 -0.040551 0.672181
v -0.015897 -0.040551 1.182242
v 0.004042 -0.040551 1.500260
v 0.028905 -0.040551 1.386761
v 0.039971 -0.040551 0.927212
v 0.040230 -0.015551 0.183646
v 0.000000 -0.015551 0.000000
v -0.032262 -0.015551 0.514564
v -0.032262 -0.015551 1.339860
v -0.000000 -0.015551 1.854423
v 0.040230 -0.015551 1.670778
v 0.058134 -0.015551 0.927212
v 0.040230 0.015351 0.183646
v 0.000000 0.015351 0.000000
v -0.032262 0.015351 0.514564
v -0.032262 0.015351 1.339860
v -0.000000 0.015351 1.854423
v 0.040230 0.015351 1.670778
v 0.058134 0.015351 0.927212
v 0.028905 0.040351 0.467663
v 0.004042 0.040351 0.354163
v -0.015897 0.040351 0.672181
v -0.015897 0.040351 1.182242
v 0.004042 0.040351 1.500260
v 0.028905 0.040351 1.386761
v 0.039971 0.040351 0.927212
v 0.010581 -0.050100 0.927212
v 0.010581 0.049900 0.927212
vt 0.000000 0.200000
vt 0.142857 0.200000
vt 0.285714 0.200000
vt 0.428571 0.200000
vt 0.571429 0.200000
vt 0.714286 0.200000
vt 0.857143 0.200000
vt 1.000000 0.200000
vt 0.000000 0.400000
vt 0.142857 0.400000
vt 0.285714 0.400000
vt 0.428571 0.400000
vt 0.571429 0.400000
vt 0.714286 0.400000
vt 0.857143 0.400000
vt 1.000000 0.400000
vt 0.000000 0.600000
vt 0.142857 0.600000
vt 0.285714 0.600000
vt 0.428571 0.600000
vt 0.571429 0.600000
vt 0.714286 0.600000
vt 0.857143 0.600000
vt 1.000000 0.600000
vt 0.000000 0.800000
vt 0.142857 0.800000
vt 0.285714 0.800000
vt 0.428571 0.800000
vt 0.571429 0.800000
vt 0.714286 0.800000
vt 0.857143 0.800000
vt 1.000000 0.800000
vt 0.071429 0.000000
vt 0.214286 0.000000
vt 0.357143 0.000000
vt 0.500000 0.000000
vt 0.642857 0.000000
vt 0.785714 0.000000
vt 0.928571 0.000000
vt 0.071429 1.000000
vt 0.214286 1.000000
vt 0.357143 1.000000
vt 0.500000 1.000000
vt 0.642857 1.000000
vt 0.785714 1.000000
vt 0.928571 1.000000
vn 0.321054 -0.944446 -0.070331
vn 0.321054 -0.944446 -0.070331
vn 0.321054 -0.944446 -0.070331
vn 0.321054 -0.944446 -0.070331
vn -0.689051 -0.723424 -0.043202
vn -0.689051 -0.723424 -0.043202
vn -0.689051 -0.723424 -0.043202
vn -0.689051 -0.723424 -0.043202
vn -0.836684 -0.547687 -0.000000
vn -0.836684 -0.547687 -0.000000
vn -0.836684 -0.547687 -0.000000
vn -0.836684 -0.547687 -0.000000
vn -0.689051 -0.723424 0.043202
vn -0.689051 -0.723424 0.043202
vn -0.689051 -0.723424 0.043202
vn -0.689051 -0.723424 0.043202
vn 0.321053 -0.944446 0.070331
vn 0.321053 -0.944446 0.070331
vn 0.321053 -0.944446 0.070331
vn 0.321053 -0.944446 0.070331
vn 0.808864 -0.587674 0.019476
vn 0.808864 -0.587674 0.019476
vn 0.808863 -0.587674 0.019476
vn 0.808864 -0.587674 0.019476
vn 0.808864 -0.587674 -0.019476
vn 0.808864 -0.587674 -0.019476
vn 0.808864 -0.587674 -0.019476
vn 0.808864 -0.587674 -0.019476
vn 0.976836 0.000000 -0.213990
vn 0.976836 0.000000 -0.213990
vn 0.976836 0.000000 -0.213990
vn 0.976836 0.000000 -0.213990
vn -0.998040 0.000000 -0.062575
vn -0.998040 0.000000 -0.062575
vn -0.998040 0.000000 -0.062575
vn -0.998040 0.000000 -0.062575
vn -1.000000 0.000000 -0.000000
vn -1.000000 0.000000 -0.000000
vn -1.000000 0.000000 -0.000000
vn -1.000000 0.000000 -0.000000
vn -0.998040 0.000000 0.062575
vn -0.998040 0.000000 0.062575
vn -0.998040 0.000000 0.062575
vn -0.998040 0.000000 0.062575
vn 0.976836 0.000000 0.213990
vn 0.976836 0.000000 0.213990
vn 0.976836 0.000000 0.213990
vn 0.976836 0.000000 0.213990
vn 0.999710 0.000000 0.024072
vn 0.999710 0.000000 0.024072
vn 0.999710 0.000000 0.024072
vn 0.999710 0.000000 0.024072
vn 0.999710 0.000000 -0.024072
vn 0.999710 0.000000 -0.024072
vn 0.999710 0.000000 -0.024072
vn 0.999710 0.000000 -0.024072
vn 0.321054 0.944446 -0.070331
vn 0.321054 0.944446 -0.070331
vn 0.321054 0.944446 -0.070331
vn 0.321054 0.944446 -0.070331
vn -0.689051 0.723424 -0.043202
vn -0.689051 0.723424 -0.043202
vn -0.689051 0.723424 -0.043202
vn -0.689051 0.723424 -0.043202
vn -0.836684 0.547687 -0.000000
vn -0.836684 0.547687 -0.000000
vn -0.836684 0.547687 -0.000000
vn -0.836684 0.547687 -0.000000
vn -0.689051 0.723424 0.043202
vn -0.689051 0.723424 0.043202
vn -0.689051 0.723424 0.043202
vn -0.689051 0.723424 0.043202
vn 0.321053 0.944446 0.070331
vn 0.321053 0.944446 0.070331
vn 0.321053 0.944446 0.070331
vn 0.321053 0.944446 0.070331
vn 0.808864 0.587674 0.019476
vn 0.808864 0.587674 0.019476
vn 0.808863 0.587674 0.019476
vn 0.808864 0.587674 0.019476
vn 0.808864 0.587674 -0.019476
vn 0.808864 0.587674 -0.019476
vn 0.808864 0.587674 -0.019476
vn 0.808864 0.587674 -0.019476
vn 0.079979 -0.996643 -0.017521
vn 0.079979 -0.996643 -0.017521
vn 0.079979 -0.996643 -0.017521
vn -0.219353 -0.975549 -0.013753
vn -0.219353 -0.975549 -0.013753
vn -0.219353 -0.975549 -0.013753
vn -0.339247 -0.940697 0.000000
vn -0.339247 -0.940697 0.000000
vn -0.339247 -0.940697 0.000000
vn -0.219354 -0.975549 0.013753
vn -0.219354 -0.975549 0.013753
vn -0.219354 -0.975549 0.013753
vn 0.079979 -0.996643 0.017521
vn 0.079979 -0.996643 0.017521
vn 0.079979 -0.996643 0.017521
vn 0.309008 -0.951030 0.007441
vn 0.309008 -0.951030 0.007441
vn 0.309008 -0.951030 0.007441
vn 0.309008 -0.951030 -0.007441
vn 0.309008 -0.951030 -0.007441
vn 0.309008 -0.951030 -0.007441
vn 0.079979 0.996643 -0.017521
vn 0.079979 0.996643 -0.017521
vn 0.079979 0.996643 -0.017521
vn -0.219353 0.975549 -0.013753
vn -0.219353 0.975549 -0.013753
vn -0.219353 0.975549 -0.013753
vn -0.339247 0.940697 0.000000
vn -0.339247 0.940697 0.000000
vn -0.339247 0.940697 0.000000
vn -0.219353 0.975549 0.013753
vn -0.219353 0.975549 0.013753
vn -0.219353 0.975549 0.013753
vn 0.079979 0.996643 0.017521
vn 0.079979 0.996643 0.017521
vn 0.079979 0.996643 0.017521
vn 0.309008 0.951030 0.007441
vn 0.309008 0.951030 0.007441
vn 0.309008 0.951030 0.007441
vn 0.309008 0.951030 -0.007441
vn 0.309008 0.951030 -0.007441
vn 0.309008 0.951030 -0.007441
s off
g pSphere1
usemtl lambert2SG
f 1/1/1 2/2/2 9/10/3 8/9/4
f 2/2/5 3/3/6 10/11/7 9/10/8
f 3/3/9 4/4/10 11/12/11 10/11/12
f 4/4/13 5/5/14 12/13/15 11/12/16
f 5/5/17 6/6/18 13/14/19 12/13/20
f 6/6/21 7/7/22 14/15/23 13/14/24
f 7/7/25 1/8/26 8/16/27 14/15/28
f 8/9/29 9/10/30 16/18/31 15/17/32
f 9/10/33 10/11/34 17/19/35 16/18/36
f 10/11/37 11/12/38 18/20/39 17/19/40
f 11/12/41 12/13/42 19/21/43 18/20/44
f 12/13/45 13/14/46 20/22/47 19/21/48
f 13/14/49 14/15/50 21/23/51 20/22/52
f 14/15/53 8/16/54 15/24/55 21/23/56
f 15/17/57 16/18/58 23/26/59 22/25/60
f 16/18/61 17/19/62 24/27/63 23/26/64
f 17/19/65 18/20/66 25/28/67 24/27/68
f 18/20/69 19/21/70 26/29/71 25/28/72
f 19/21/73 20/22/74 27/30/75 26/29/76
f 20/22/77 21/23/78 28/31/79 27/30/80
f 21/23/81 15/24/82 22/32/83 28/31/84
f 2/2/85 1/1/86 29/33/87
f 3/3/88 2/2/89 29/34/90
f 4/4/91 3/3/92 29/35/93
f 5/5/94 4/4/95 29/36/96
f 6/6/97 5/5/98 29/37/99
f 7/7/100 6/6/101 29/38/102
f 1/8/103 7/7/104 29/39/105
f 22/25/106 23/26/107 30/40/108
f 23/26/109 24/27/110 30/41/111
f 24/27/112 25/28/113 30/42/114
f 25/28/115 26/29/116 30/43/117
f 26/29/118 27/30/119 30/44/120
f 27/30/121 28/31/122 30/45/123
f 28/31/124 22/32/125 30/46/126
