# This file uses centimeters as units for non-parametric coordinates.

mtllib LeftArm1.mtl
g default
v -0.001403 -0.166142 0.277825
v 0.045912 -0.166142 0.277825
v -0.001403 -0.124430 0.300159
v 0.045912 -0.124430 0.300159
v -0.001403 -0.077506 0.212519
v 0.045912 -0.077506 0.212519
v -0.001403 -0.119219 0.190185
v 0.045912 -0.119219 0.190185
v 0.017579 0.005939 0.000906
v 0.014954 0.010486 0.003401
v 0.010865 0.014005 0.005563
v 0.005712 0.016154 0.007180
v 0.000000 0.016721 0.008095
v -0.005712 0.015652 0.008217
v -0.010865 0.013050 0.007535
v -0.014954 0.009171 0.006115
v -0.017579 0.004395 0.004097
v -0.018484 -0.000812 0.001678
v -0.017579 -0.005940 -0.000906
v -0.014954 -0.010486 -0.003401
v -0.010865 -0.014005 -0.005563
v -0.005712 -0.016154 -0.007180
v 0.000000 -0.016721 -0.008095
v 0.005712 -0.015652 -0.008217
v 0.010865 -0.013050 -0.007535
v 0.014954 -0.009172 -0.006115
v 0.017579 -0.004395 -0.004097
v 0.018484 0.000812 -0.001678
v 0.044293 -0.109498 0.239363
v 0.041668 -0.104952 0.241858
v 0.037579 -0.101432 0.244020
v 0.032426 -0.099284 0.245637
v 0.026714 -0.098716 0.246552
v 0.021002 -0.099786 0.246674
v 0.015850 -0.102387 0.245992
v 0.011760 -0.106266 0.244572
v 0.009135 -0.111043 0.242554
v 0.008230 -0.116250 0.240134
v 0.009135 -0.121377 0.237551
v 0.011760 -0.125923 0.235056
v 0.015850 -0.129443 0.232894
v 0.021002 -0.131592 0.231277
v 0.026714 -0.132159 0.230362
v 0.032426 -0.131090 0.230240
v 0.037579 -0.128488 0.230922
v 0.041668 -0.124609 0.232342
v 0.044293 -0.119833 0.234360
v 0.045198 -0.114626 0.236779
v 0.000000 0.000000 0.000000
v 0.026714 -0.115438 0.238457
v 0.032541 -0.120777 0.261883
v 0.012660 -0.120716 0.261731
v 0.032547 -0.138920 0.253751
v 0.012666 -0.138859 0.253599
v 0.022631 -0.166910 0.338634
v 0.021108 -0.166905 0.338622
v 0.022630 -0.165520 0.339257
v 0.021107 -0.165515 0.339245
vt 0.375000 0.000000
vt 0.625000 0.000000
vt 0.375000 0.250000
vt 0.625000 0.250000
vt 0.375000 0.500000
vt 0.625000 0.500000
vt 0.375000 0.750000
vt 0.625000 0.750000
vt 0.375000 1.000000
vt 0.625000 1.000000
vt 0.875000 0.000000
vt 0.875000 0.250000
vt 0.125000 0.000000
vt 0.125000 0.250000
vt 0.375000 0.312500
vt 0.387500 0.312500
vt 0.387500 0.688440
vt 0.375000 0.688440
vt 0.400000 0.312500
vt 0.400000 0.688440
vt 0.412500 0.312500
vt 0.412500 0.688440
vt 0.425000 0.312500
vt 0.425000 0.688440
vt 0.437500 0.312500
vt 0.437500 0.688440
vt 0.450000 0.312500
vt 0.450000 0.688440
vt 0.462500 0.312500
vt 0.462500 0.688440
vt 0.475000 0.312500
vt 0.475000 0.688440
vt 0.487500 0.312500
vt 0.487500 0.688440
vt 0.500000 0.312500
vt 0.500000 0.688440
vt 0.512500 0.312500
vt 0.512500 0.688440
vt 0.525000 0.312500
vt 0.525000 0.688440
vt 0.537500 0.312500
vt 0.537500 0.688440
vt 0.550000 0.312500
vt 0.550000 0.688440
vt 0.562500 0.312500
vt 0.562500 0.688440
vt 0.575000 0.312500
vt 0.575000 0.688440
vt 0.587500 0.312500
vt 0.587500 0.688440
vt 0.600000 0.312500
vt 0.600000 0.688440
vt 0.612500 0.312500
vt 0.612500 0.688440
vt 0.625000 0.312500
vt 0.625000 0.688440
vt 0.626409 0.064408
vt 0.648603 0.107966
vt 0.500000 0.150000
vt 0.591842 0.029841
vt 0.548284 0.007647
vt 0.500000 -0.000000
vt 0.451716 0.007647
vt 0.408159 0.029841
vt 0.373591 0.064409
vt 0.351397 0.107966
vt 0.343750 0.156250
vt 0.351397 0.204534
vt 0.373591 0.248091
vt 0.408159 0.282659
vt 0.451716 0.304853
vt 0.500000 0.312500
vt 0.548284 0.304853
vt 0.591841 0.282659
vt 0.626409 0.248091
vt 0.648603 0.204534
vt 0.656250 0.156250
vt 0.648603 0.892034
vt 0.626409 0.935591
vt 0.500000 0.837500
vt 0.591841 0.970159
vt 0.548284 0.992353
vt 0.500000 1.000000
vt 0.451716 0.992353
vt 0.408159 0.970159
vt 0.373591 0.935591
vt 0.351397 0.892034
vt 0.343750 0.843750
vt 0.351397 0.795466
vt 0.373591 0.751909
vt 0.408159 0.717341
vt 0.451716 0.695147
vt 0.500000 0.687500
vt 0.548284 0.695147
vt 0.591842 0.717341
vt 0.626409 0.751908
vt 0.648603 0.795466
vt 0.656250 0.843750
vt 0.375000 0.000000
vt 0.375000 0.250000
vt 0.625000 0.250000
vt 0.625000 0.000000
vt 0.375000 0.500000
vt 0.625000 0.500000
vt 0.375000 0.750000
vt 0.625000 0.750000
vt 0.375000 1.000000
vt 0.625000 1.000000
vt 0.875000 0.250000
vt 0.875000 0.000000
vt 0.125000 0.000000
vt 0.125000 0.250000
vn 0.000000 -0.472015 0.881591
vn 0.000000 -0.472014 0.881591
vn 0.000000 -0.472014 0.881591
vn 0.000000 -0.472014 0.881591
vn 0.000000 0.881591 0.472015
vn 0.000000 0.881591 0.472015
vn 0.000000 0.881591 0.472015
vn 0.000000 0.881591 0.472015
vn 0.000000 0.472014 -0.881591
vn 0.000000 0.472014 -0.881591
vn 0.000000 0.472014 -0.881591
vn 0.000000 0.472014 -0.881591
vn 0.000000 -0.881591 -0.472014
vn 0.000000 -0.881591 -0.472014
vn 0.000000 -0.881591 -0.472015
vn 0.000000 -0.881590 -0.472015
vn 1.000000 -0.000002 0.000000
vn 1.000000 0.000001 0.000000
vn 1.000000 -0.000001 0.000000
vn 1.000000 0.000002 0.000000
vn -1.000000 -0.000000 0.000000
vn -1.000000 -0.000000 0.000000
vn -1.000000 -0.000000 0.000000
vn -1.000000 0.000000 0.000000
vn 0.946258 0.319714 0.048767
vn 0.804936 0.564417 0.183060
vn 0.946258 0.319715 0.048765
vn 0.804937 0.564416 0.183058
vn 0.584822 0.753871 0.299436
vn 0.584821 0.753872 0.299436
vn 0.307462 0.869533 0.386497
vn 0.307453 0.869534 0.386502
vn 0.000002 0.900078 0.435729
vn -0.000003 0.900077 0.435731
vn -0.307464 0.842514 0.442308
vn -0.307459 0.842515 0.442309
vn -0.584817 0.702485 0.405591
vn -0.584819 0.702483 0.405592
vn -0.804934 0.493688 0.329171
vn -0.804933 0.493689 0.329172
vn -0.946259 0.236561 0.220529
vn -0.946258 0.236566 0.220529
vn -0.994955 -0.043720 0.090301
vn -0.994955 -0.043715 0.090302
vn -0.946259 -0.319713 -0.048767
vn -0.946257 -0.319719 -0.048766
vn -0.804936 -0.564417 -0.183060
vn -0.804936 -0.564417 -0.183060
vn -0.584815 -0.753877 -0.299435
vn -0.584819 -0.753874 -0.299436
vn -0.307451 -0.869535 -0.386500
vn -0.307454 -0.869535 -0.386499
vn -0.000001 -0.900078 -0.435729
vn 0.000000 -0.900077 -0.435732
vn 0.307459 -0.842516 -0.442307
vn 0.307458 -0.842515 -0.442309
vn 0.584817 -0.702485 -0.405591
vn 0.584816 -0.702485 -0.405591
vn 0.804934 -0.493687 -0.329172
vn 0.804931 -0.493692 -0.329173
vn 0.946259 -0.236561 -0.220529
vn 0.946259 -0.236560 -0.220530
vn 0.994955 0.043710 -0.090302
vn 0.994954 0.043719 -0.090302
vn -0.100326 0.433530 -0.895537
vn -0.100326 0.433531 -0.895537
vn -0.100327 0.433531 -0.895536
vn -0.100324 0.433535 -0.895535
vn -0.100327 0.433532 -0.895536
vn -0.100330 0.433529 -0.895537
vn -0.100326 0.433534 -0.895535
vn -0.100327 0.433528 -0.895538
vn -0.100327 0.433530 -0.895537
vn -0.100325 0.433538 -0.895533
vn -0.100325 0.433530 -0.895537
vn -0.100325 0.433527 -0.895539
vn -0.100327 0.433533 -0.895535
vn -0.100327 0.433533 -0.895536
vn -0.100326 0.433531 -0.895536
vn -0.100327 0.433532 -0.895536
vn -0.100327 0.433534 -0.895535
vn -0.100326 0.433530 -0.895537
vn -0.100327 0.433528 -0.895538
vn -0.100328 0.433531 -0.895536
vn -0.100328 0.433532 -0.895536
vn 0.100324 -0.433531 0.895537
vn 0.100326 -0.433531 0.895537
vn 0.100327 -0.433532 0.895536
vn 0.100329 -0.433535 0.895534
vn 0.100329 -0.433534 0.895535
vn 0.100329 -0.433532 0.895536
vn 0.100323 -0.433535 0.895535
vn 0.100330 -0.433533 0.895535
vn 0.100334 -0.433532 0.895535
vn 0.100325 -0.433538 0.895533
vn 0.100325 -0.433535 0.895535
vn 0.100325 -0.433530 0.895537
vn 0.100328 -0.433529 0.895537
vn 0.100327 -0.433529 0.895537
vn 0.100325 -0.433529 0.895538
vn 0.100327 -0.433528 0.895538
vn 0.100322 -0.433532 0.895536
vn 0.100327 -0.433528 0.895538
vn 0.100330 -0.433532 0.895536
vn 0.100325 -0.433533 0.895536
vn 0.100326 -0.433531 0.895537
vn 0.008251 0.408992 -0.912501
vn 0.008252 0.408993 -0.912500
vn 0.008252 0.408993 -0.912500
vn 0.008253 0.408994 -0.912500
vn -0.000588 -0.949678 -0.313228
vn -0.000551 -0.949681 -0.313217
vn -0.000533 -0.949683 -0.313212
vn -0.000533 -0.949683 -0.313212
vn -0.008203 -0.409024 0.912487
vn -0.008229 -0.408987 0.912503
vn -0.008229 -0.408987 0.912503
vn -0.008256 -0.408950 0.912520
vn -0.001164 0.865755 0.500466
vn -0.001160 0.865747 0.500481
vn -0.001162 0.865750 0.500476
vn -0.001160 0.865747 0.500481
vn -0.995534 -0.038881 0.086024
vn -0.995534 -0.038891 0.086020
vn -0.995534 -0.038895 0.086018
vn -0.995534 -0.038895 0.086018
vn 0.993840 -0.045058 0.101248
vn 0.993841 -0.045049 0.101250
vn 0.993841 -0.045045 0.101251
vn 0.993841 -0.045045 0.101251
s 1
g LeftArm
usemtl initialShadingGroup
f 1/1/1 2/2/2 3/3/3
f 3/3/3 2/2/2 4/4/4
s 2
f 3/3/5 4/4/6 5/5/7
f 5/5/7 4/4/6 6/6/8
s 3
f 5/5/9 6/6/10 7/7/11
f 7/7/11 6/6/10 8/8/12
s 4
f 7/7/13 8/8/14 1/9/15
f 1/9/15 8/8/14 2/10/16
s 5
f 2/2/17 8/11/18 4/4/19
f 4/4/19 8/11/18 6/12/20
s 6
f 7/13/21 1/1/22 5/14/23
f 5/14/23 1/1/22 3/3/24
s 7
f 9/15/25 10/16/26 29/18/27
f 29/18/27 10/16/26 30/17/28
f 10/16/26 11/19/29 30/17/28
f 30/17/28 11/19/29 31/20/30
f 11/19/29 12/21/31 31/20/30
f 31/20/30 12/21/31 32/22/32
f 12/21/31 13/23/33 32/22/32
f 32/22/32 13/23/33 33/24/34
f 13/23/33 14/25/35 33/24/34
f 33/24/34 14/25/35 34/26/36
f 14/25/35 15/27/37 34/26/36
f 34/26/36 15/27/37 35/28/38
f 15/27/37 16/29/39 35/28/38
f 35/28/38 16/29/39 36/30/40
f 16/29/39 17/31/41 36/30/40
f 36/30/40 17/31/41 37/32/42
f 17/31/41 18/33/43 37/32/42
f 37/32/42 18/33/43 38/34/44
f 18/33/43 19/35/45 38/34/44
f 38/34/44 19/35/45 39/36/46
f 19/35/45 20/37/47 39/36/46
f 39/36/46 20/37/47 40/38/48
f 20/37/47 21/39/49 40/38/48
f 40/38/48 21/39/49 41/40/50
f 21/39/49 22/41/51 41/40/50
f 41/40/50 22/41/51 42/42/52
f 22/41/51 23/43/53 42/42/52
f 42/42/52 23/43/53 43/44/54
f 23/43/53 24/45/55 43/44/54
f 43/44/54 24/45/55 44/46/56
f 24/45/55 25/47/57 44/46/56
f 44/46/56 25/47/57 45/48/58
f 25/47/57 26/49/59 45/48/58
f 45/48/58 26/49/59 46/50/60
f 26/49/59 27/51/61 46/50/60
f 46/50/60 27/51/61 47/52/62
f 27/51/61 28/53/63 47/52/62
f 47/52/62 28/53/63 48/54/64
f 28/53/63 9/55/25 48/54/64
f 48/54/64 9/55/25 29/56/27
s 8
f 10/57/65 9/58/66 49/59/67
f 11/60/68 10/57/65 49/59/67
f 12/61/69 11/60/68 49/59/67
f 13/62/70 12/61/69 49/59/67
f 14/63/71 13/62/70 49/59/67
f 15/64/72 14/63/71 49/59/67
f 16/65/73 15/64/72 49/59/67
f 17/66/74 16/65/73 49/59/67
f 18/67/75 17/66/74 49/59/67
f 19/68/76 18/67/75 49/59/67
f 20/69/77 19/68/76 49/59/67
f 21/70/78 20/69/77 49/59/67
f 22/71/79 21/70/78 49/59/67
f 23/72/80 22/71/79 49/59/67
f 24/73/81 23/72/80 49/59/67
f 25/74/82 24/73/81 49/59/67
f 26/75/83 25/74/82 49/59/67
f 27/76/84 26/75/83 49/59/67
f 28/77/85 27/76/84 49/59/67
f 9/58/66 28/77/85 49/59/67
s 9
f 29/78/86 30/79/87 50/80/88
f 30/79/87 31/81/89 50/80/88
f 31/81/89 32/82/90 50/80/88
f 32/82/90 33/83/91 50/80/88
f 33/83/91 34/84/92 50/80/88
f 34/84/92 35/85/93 50/80/88
f 35/85/93 36/86/94 50/80/88
f 36/86/94 37/87/95 50/80/88
f 37/87/95 38/88/96 50/80/88
f 38/88/96 39/89/97 50/80/88
f 39/89/97 40/90/98 50/80/88
f 40/90/98 41/91/99 50/80/88
f 41/91/99 42/92/100 50/80/88
f 42/92/100 43/93/101 50/80/88
f 43/93/101 44/94/102 50/80/88
f 44/94/102 45/95/103 50/80/88
f 45/95/103 46/96/104 50/80/88
f 46/96/104 47/97/105 50/80/88
f 47/97/105 48/98/106 50/80/88
f 48/98/106 29/78/86 50/80/88
s 10
f 51/99/107 53/100/108 52/102/109
f 52/102/109 53/100/108 54/101/110
s 11
f 55/103/111 56/104/112 53/100/113
f 53/100/113 56/104/112 54/101/114
s 12
f 55/103/115 57/105/116 56/104/117
f 56/104/117 57/105/116 58/106/118
s 13
f 57/105/119 51/107/120 58/106/121
f 51/107/120 52/108/122 58/106/121
s 14
f 56/109/123 58/110/124 54/101/125
f 52/102/126 54/101/125 58/110/124
s 15
f 57/111/127 55/112/128 51/99/129
f 55/112/128 53/100/130 51/99/129
