# This file uses centimeters as units for non-parametric coordinates.

mtllib InteractableItem_Teleporter_OBJ.mtl
g default
v 1.800000 0.005610 1.800000
v 1.800000 0.031112 1.800000
v -1.800000 0.031112 -1.800000
v 1.800000 0.031112 -1.800000
v -1.800000 0.005610 -1.800000
v 1.800000 0.005610 -1.800000
v -1.800000 0.007014 1.080000
v -1.080000 0.007014 1.800000
v -1.080000 0.005610 1.800000
v -1.800000 0.005610 1.080000
v 1.650000 4.005610 1.650000
v 1.650000 4.031112 1.650000
v -1.650000 4.031112 -1.650000
v 1.650000 4.031112 -1.650000
v -1.650000 4.005610 -1.650000
v 1.650000 4.005610 -1.650000
v -1.650000 4.007014 0.990000
v -0.990000 4.007014 1.650000
v -0.990000 4.005610 1.650000
v -1.650000 4.005610 0.990000
vt 0.535901 0.000000
vt 0.735901 0.000000
vt 0.535901 0.250000
vt 0.735901 0.250000
vt 0.735901 0.500000
vt 0.485901 0.300000
vt 0.485901 0.500000
vt 0.485901 0.750000
vt 0.735901 0.750000
vt 0.985901 0.000000
vt 0.985901 0.250000
vt 0.739063 0.000000
vt 0.739063 0.250000
vt 0.539063 0.000000
vt 0.539063 0.250000
vt 0.485901 0.950000
vt 0.535901 1.000000
vt 0.735901 1.000000
vt 0.069647 0.000000
vt 0.269647 0.000000
vt 0.069647 0.250000
vt 0.269647 0.250000
vt 0.269647 0.500000
vt 0.019647 0.300000
vt 0.019647 0.500000
vt 0.019647 0.750000
vt 0.269647 0.750000
vt 0.519647 0.000000
vt 0.519647 0.250000
vt 0.271301 0.000000
vt 0.271301 0.250000
vt 0.071301 0.000000
vt 0.071301 0.250000
vt 0.019647 0.950000
vt 0.069647 1.000000
vt 0.269647 1.000000
vn 0.000000 0.000000 1.000000
vn 0.000000 0.000000 1.000000
vn 0.000000 0.000000 1.000000
vn 0.000000 0.000000 1.000000
vn -0.008367 0.999965 0.000000
vn -0.004152 0.999983 0.004152
vn -0.006400 0.999978 0.001573
vn -0.001573 0.999978 0.006400
vn 0.000000 0.999965 0.008367
vn 0.000000 0.000000 -1.000000
vn 0.000000 0.000000 -1.000000
vn 0.000000 0.000000 -1.000000
vn 0.000000 0.000000 -1.000000
vn 1.000000 0.000000 0.000000
vn 1.000000 0.000000 0.000000
vn 1.000000 0.000000 0.000000
vn 1.000000 0.000000 0.000000
vn -1.000000 0.000000 0.000000
vn -1.000000 0.000000 0.000000
vn -1.000000 0.000000 0.000000
vn -1.000000 0.000000 0.000000
vn 0.000000 -1.000000 0.000000
vn 0.000000 -1.000000 -0.000000
vn 0.000000 -1.000000 -0.000000
vn 0.000000 -1.000000 -0.000000
vn 0.000000 -1.000000 0.000000
vn 0.000000 0.000000 1.000000
vn 0.000000 0.000000 1.000000
vn 0.000000 0.000000 1.000000
vn 0.000000 0.000000 1.000000
vn -0.009127 0.999958 0.000000
vn -0.004529 0.999980 0.004529
vn -0.006982 0.999974 0.001716
vn -0.001716 0.999974 0.006982
vn 0.000000 0.999958 0.009127
vn 0.000000 0.000000 -1.000000
vn 0.000000 0.000000 -1.000000
vn 0.000000 0.000000 -1.000000
vn 0.000000 0.000000 -1.000000
vn 1.000000 0.000000 0.000000
vn 1.000000 0.000000 0.000000
vn 1.000000 0.000000 0.000000
vn 1.000000 0.000000 0.000000
vn -1.000000 0.000000 0.000000
vn -1.000000 0.000000 0.000000
vn -1.000000 0.000000 0.000000
vn -1.000000 0.000000 0.000000
vn 0.000000 -1.000000 0.000000
vn 0.000000 -1.000000 -0.000000
vn 0.000000 -1.000000 -0.000000
vn 0.000000 -1.000000 -0.000000
vn 0.000000 -1.000000 0.000000
s 1
g polySurface2
usemtl lambert2SG
f 9/1/1 1/2/2 8/3/3
f 8/3/3 1/2/2 2/4/4
s 2
f 2/4/5 4/5/6 8/3/7
f 8/3/7 4/5/6 7/6/8
f 7/6/8 4/5/6 3/7/9
s 3
f 3/7/10 4/5/11 5/8/12
f 5/8/12 4/5/11 6/9/13
s 4
f 1/2/14 6/10/15 2/4/16
f 2/4/16 6/10/15 4/11/17
s 5
f 10/12/18 7/13/19 5/14/20
f 5/14/20 7/13/19 3/15/21
s 6
f 5/8/22 6/9/23 10/16/24
f 10/16/24 6/9/23 9/17/25
f 6/9/23 1/18/26 9/17/25
s 7
f 19/19/27 11/20/28 18/21/29
f 18/21/29 11/20/28 12/22/30
s 8
f 12/22/31 14/23/32 18/21/33
f 18/21/33 14/23/32 17/24/34
f 17/24/34 14/23/32 13/25/35
s 9
f 13/25/36 14/23/37 15/26/38
f 15/26/38 14/23/37 16/27/39
s 10
f 11/20/40 16/28/41 12/22/42
f 12/22/42 16/28/41 14/29/43
s 11
f 20/30/44 17/31/45 15/32/46
f 15/32/46 17/31/45 13/33/47
s 12
f 15/26/48 16/27/49 20/34/50
f 20/34/50 16/27/49 19/35/51
f 16/27/49 11/36/52 19/35/51
