# This file uses centimeters as units for non-parametric coordinates.

mtllib InteractableItem_OffTablet_OBJ.mtl
g default
v -0.048500 -0.010000 0.075000
v -0.029100 -0.010000 0.075000
v -0.009700 -0.010000 0.075000
v 0.009700 -0.010000 0.075000
v 0.029100 -0.010000 0.075000
v 0.048500 -0.010000 0.075000
v -0.048500 0.010000 0.075000
v -0.029100 0.010000 0.075000
v -0.009700 0.010000 0.075000
v 0.009700 0.010000 0.075000
v 0.029100 0.010000 0.075000
v 0.048500 0.010000 0.075000
v -0.048500 0.010000 0.045000
v 0.048500 0.010000 0.045000
v -0.048500 0.010000 0.015000
v 0.048500 0.010000 0.015000
v -0.048500 0.010000 -0.015000
v 0.048500 0.010000 -0.015000
v -0.048500 0.010000 -0.045000
v 0.048500 0.010000 -0.045000
v -0.048500 0.010000 -0.075000
v -0.029100 0.010000 -0.075000
v -0.009700 0.010000 -0.075000
v 0.009700 0.010000 -0.075000
v 0.029100 0.010000 -0.075000
v 0.048500 0.010000 -0.075000
v -0.048500 -0.010000 -0.075000
v -0.029100 -0.010000 -0.075000
v -0.009700 -0.010000 -0.075000
v 0.009700 -0.010000 -0.075000
v 0.029100 -0.010000 -0.075000
v 0.048500 -0.010000 -0.075000
v -0.048500 -0.010000 -0.045000
v -0.029100 -0.010000 -0.045000
v -0.009700 -0.010000 -0.045000
v 0.009700 -0.010000 -0.045000
v 0.029100 -0.010000 -0.045000
v 0.048500 -0.010000 -0.045000
v -0.048500 -0.010000 -0.015000
v -0.029100 -0.010000 -0.015000
v -0.009700 -0.010000 -0.015000
v 0.009700 -0.010000 -0.015000
v 0.029100 -0.010000 -0.015000
v 0.048500 -0.010000 -0.015000
v -0.048500 -0.010000 0.015000
v -0.029100 -0.010000 0.015000
v -0.009700 -0.010000 0.015000
v 0.009700 -0.010000 0.015000
v 0.029100 -0.010000 0.015000
v 0.048500 -0.010000 0.015000
v -0.048500 -0.010000 0.045000
v -0.029100 -0.010000 0.045000
v -0.009700 -0.010000 0.045000
v 0.009700 -0.010000 0.045000
v 0.029100 -0.010000 0.045000
v 0.048500 -0.010000 0.045000
v -0.048500 0.010000 0.060000
v -0.029100 0.010000 0.060000
v -0.009700 0.010000 0.060000
v 0.009700 0.010000 0.060000
v 0.029100 0.010000 0.060000
v 0.048500 0.010000 0.060000
v -0.048500 0.010000 -0.060000
v -0.029100 0.010000 -0.060000
v -0.009700 0.010000 -0.060000
v 0.009700 0.010000 -0.060000
v 0.029100 0.010000 -0.060000
v 0.048500 0.010000 -0.060000
v 0.038800 0.010000 0.060000
v 0.038800 0.010000 0.045000
v 0.038800 0.010000 0.015000
v 0.038800 0.010000 -0.015000
v 0.038800 0.010000 -0.045000
v 0.038800 0.010000 -0.060000
v -0.038800 0.010000 -0.060000
v -0.038800 0.010000 -0.045000
v -0.038800 0.010000 -0.015000
v -0.038800 0.010000 0.015000
v -0.038800 0.010000 0.045000
v -0.038800 0.010000 0.060000
v -0.038800 0.016000 0.045000
v -0.038800 0.016000 0.060000
v -0.029100 0.016000 0.060000
v -0.029100 0.016000 0.045000
v -0.009700 0.016000 0.060000
v -0.009700 0.016000 0.045000
v 0.009700 0.016000 0.060000
v 0.009700 0.016000 0.045000
v 0.029100 0.016000 0.060000
v 0.029100 0.016000 0.045000
v 0.038800 0.016000 0.060000
v 0.038800 0.016000 0.045000
v -0.038800 0.016000 0.015000
v -0.029100 0.016000 0.015000
v -0.009700 0.016000 0.015000
v 0.009700 0.016000 0.015000
v 0.029100 0.016000 0.015000
v 0.038800 0.016000 0.015000
v -0.038800 0.016000 -0.015000
v -0.029100 0.016000 -0.015000
v -0.009700 0.016000 -0.015000
v 0.009700 0.016000 -0.015000
v 0.029100 0.016000 -0.015000
v 0.038800 0.016000 -0.015000
v -0.038800 0.016000 -0.045000
v -0.029100 0.016000 -0.045000
v -0.009700 0.016000 -0.045000
v 0.009700 0.016000 -0.045000
v 0.029100 0.016000 -0.045000
v 0.038800 0.016000 -0.045000
v -0.038800 0.016000 -0.060000
v -0.029100 0.016000 -0.060000
v -0.009700 0.016000 -0.060000
v 0.009700 0.016000 -0.060000
v 0.029100 0.016000 -0.060000
v 0.038800 0.016000 -0.060000
vt 0.385463 0.000000
vt 0.435463 0.000000
vt 0.485463 0.000000
vt 0.535463 0.000000
vt 0.585463 0.000000
vt 0.635463 0.000000
vt 0.385463 0.250000
vt 0.435463 0.250000
vt 0.485463 0.250000
vt 0.535463 0.250000
vt 0.585463 0.250000
vt 0.635463 0.250000
vt 0.385463 0.300000
vt 0.435463 0.300000
vt 0.485463 0.300000
vt 0.535463 0.300000
vt 0.585463 0.300000
vt 0.635463 0.300000
vt 0.385463 0.350000
vt 0.435463 0.350000
vt 0.485463 0.350000
vt 0.535463 0.350000
vt 0.585463 0.350000
vt 0.635463 0.350000
vt 0.385463 0.400000
vt 0.435463 0.400000
vt 0.485463 0.400000
vt 0.535463 0.400000
vt 0.585463 0.400000
vt 0.635463 0.400000
vt 0.385463 0.450000
vt 0.435463 0.450000
vt 0.485463 0.450000
vt 0.535463 0.450000
vt 0.585463 0.450000
vt 0.635463 0.450000
vt 0.385463 0.500000
vt 0.435463 0.500000
vt 0.485463 0.500000
vt 0.535463 0.500000
vt 0.585463 0.500000
vt 0.635463 0.500000
vt 0.385463 0.750000
vt 0.435463 0.750000
vt 0.485463 0.750000
vt 0.535463 0.750000
vt 0.585463 0.750000
vt 0.635463 0.750000
vt 0.385463 0.800000
vt 0.435463 0.800000
vt 0.485463 0.800000
vt 0.535463 0.800000
vt 0.585463 0.800000
vt 0.635463 0.800000
vt 0.385463 0.850000
vt 0.435463 0.850000
vt 0.485463 0.850000
vt 0.535463 0.850000
vt 0.585463 0.850000
vt 0.635463 0.850000
vt 0.385463 0.900000
vt 0.435463 0.900000
vt 0.485463 0.900000
vt 0.535463 0.900000
vt 0.585463 0.900000
vt 0.635463 0.900000
vt 0.385463 0.950000
vt 0.435463 0.950000
vt 0.485463 0.950000
vt 0.535463 0.950000
vt 0.585463 0.950000
vt 0.635463 0.950000
vt 0.385463 1.000000
vt 0.435463 1.000000
vt 0.485463 1.000000
vt 0.535463 1.000000
vt 0.585463 1.000000
vt 0.635463 1.000000
vt 0.885463 0.000000
vt 0.835463 0.000000
vt 0.785463 0.000000
vt 0.735463 0.000000
vt 0.685463 0.000000
vt 0.885463 0.250000
vt 0.835463 0.250000
vt 0.785463 0.250000
vt 0.735463 0.250000
vt 0.685463 0.250000
vt 0.135463 0.000000
vt 0.185463 0.000000
vt 0.235463 0.000000
vt 0.285463 0.000000
vt 0.335463 0.000000
vt 0.135463 0.250000
vt 0.185463 0.250000
vt 0.235463 0.250000
vt 0.285463 0.250000
vt 0.335463 0.250000
vt 0.360463 0.250000
vt 0.385463 0.275000
vt 0.435463 0.275000
vt 0.485463 0.275000
vt 0.535463 0.275000
vt 0.585463 0.275000
vt 0.635463 0.275000
vt 0.660463 0.250000
vt 0.160463 0.250000
vt 0.385463 0.475000
vt 0.435463 0.475000
vt 0.485463 0.475000
vt 0.535463 0.475000
vt 0.585463 0.475000
vt 0.635463 0.475000
vt 0.860463 0.250000
vt 0.610463 0.275000
vt 0.610463 0.300000
vt 0.610463 0.350000
vt 0.610463 0.400000
vt 0.610463 0.450000
vt 0.610463 0.475000
vt 0.410463 0.475000
vt 0.410463 0.450000
vt 0.410463 0.400000
vt 0.410463 0.350000
vt 0.410463 0.300000
vt 0.410463 0.275000
vt 0.410463 0.300000
vt 0.410463 0.275000
vt 0.435463 0.275000
vt 0.485463 0.275000
vt 0.535463 0.275000
vt 0.585463 0.275000
vt 0.610463 0.275000
vt 0.610463 0.300000
vt 0.410463 0.350000
vt 0.610463 0.350000
vt 0.410463 0.400000
vt 0.610463 0.400000
vt 0.410463 0.450000
vt 0.610463 0.450000
vt 0.410463 0.475000
vt 0.435463 0.475000
vt 0.485463 0.475000
vt 0.535463 0.475000
vt 0.585463 0.475000
vt 0.610463 0.475000
vn 0.000000 0.000000 1.000000
vn 0.000000 0.000000 1.000000
vn 0.000000 0.000000 1.000000
vn 0.000000 0.000000 1.000000
vn 0.000000 0.000000 1.000000
vn 0.000000 0.000000 1.000000
vn 0.000000 0.000000 1.000000
vn 0.000000 0.000000 1.000000
vn 0.000000 0.000000 1.000000
vn 0.000000 0.000000 1.000000
vn 0.000000 0.000000 1.000000
vn 0.000000 0.000000 1.000000
vn 0.000000 1.000000 0.000000
vn 0.000000 1.000000 0.000000
vn 0.000000 1.000000 0.000000
vn 0.000000 1.000000 0.000000
vn 0.000000 1.000000 0.000000
vn 0.000000 1.000000 0.000000
vn 0.000000 1.000000 0.000000
vn 0.000000 1.000000 0.000000
vn 0.000000 1.000000 0.000000
vn 0.000000 1.000000 0.000000
vn 0.000000 1.000000 0.000000
vn 0.000000 1.000000 0.000000
vn 0.000000 1.000000 0.000000
vn 0.000000 1.000000 0.000000
vn 0.000000 1.000000 0.000000
vn 0.000000 1.000000 0.000000
vn 0.000000 1.000000 0.000000
vn 0.000000 1.000000 0.000000
vn 0.000000 1.000000 0.000000
vn 0.000000 1.000000 0.000000
vn 0.000000 1.000000 0.000000
vn 0.000000 1.000000 0.000000
vn 0.000000 1.000000 0.000000
vn 0.000000 1.000000 0.000000
vn 0.000000 1.000000 0.000000
vn 0.000000 1.000000 0.000000
vn 0.000000 1.000000 0.000000
vn 0.000000 1.000000 0.000000
vn 0.000000 1.000000 0.000000
vn 0.000000 1.000000 0.000000
vn 0.000000 1.000000 0.000000
vn 0.000000 1.000000 -0.000000
vn 0.000000 1.000000 -0.000000
vn 0.000000 1.000000 -0.000000
vn 0.000000 1.000000 0.000000
vn 0.000000 1.000000 0.000000
vn 0.000000 1.000000 0.000000
vn 0.000000 1.000000 0.000000
vn 0.000000 1.000000 0.000000
vn 0.000000 1.000000 0.000000
vn 0.000000 1.000000 -0.000000
vn 0.000000 1.000000 -0.000000
vn 0.000000 1.000000 -0.000000
vn 0.000000 1.000000 0.000000
vn 0.000000 0.000000 -1.000000
vn 0.000000 0.000000 -1.000000
vn 0.000000 0.000000 -1.000000
vn 0.000000 0.000000 -1.000000
vn 0.000000 0.000000 -1.000000
vn 0.000000 0.000000 -1.000000
vn 0.000000 0.000000 -1.000000
vn 0.000000 0.000000 -1.000000
vn 0.000000 0.000000 -1.000000
vn 0.000000 0.000000 -1.000000
vn 0.000000 0.000000 -1.000000
vn 0.000000 0.000000 -1.000000
vn 0.000000 -1.000000 0.000000
vn 0.000000 -1.000000 0.000000
vn 0.000000 -1.000000 0.000000
vn 0.000000 -1.000000 0.000000
vn 0.000000 -1.000000 0.000000
vn 0.000000 -1.000000 0.000000
vn 0.000000 -1.000000 0.000000
vn 0.000000 -1.000000 0.000000
vn 0.000000 -1.000000 0.000000
vn 0.000000 -1.000000 0.000000
vn 0.000000 -1.000000 0.000000
vn 0.000000 -1.000000 0.000000
vn 0.000000 -1.000000 0.000000
vn 0.000000 -1.000000 0.000000
vn 0.000000 -1.000000 0.000000
vn 0.000000 -1.000000 0.000000
vn 0.000000 -1.000000 0.000000
vn 0.000000 -1.000000 0.000000
vn 0.000000 -1.000000 0.000000
vn 0.000000 -1.000000 0.000000
vn 0.000000 -1.000000 0.000000
vn 0.000000 -1.000000 0.000000
vn 0.000000 -1.000000 0.000000
vn 0.000000 -1.000000 0.000000
vn 0.000000 -1.000000 0.000000
vn 0.000000 -1.000000 0.000000
vn 0.000000 -1.000000 0.000000
vn 0.000000 -1.000000 0.000000
vn 0.000000 -1.000000 0.000000
vn 0.000000 -1.000000 0.000000
vn 0.000000 -1.000000 0.000000
vn 0.000000 -1.000000 0.000000
vn 0.000000 -1.000000 0.000000
vn 0.000000 -1.000000 0.000000
vn 0.000000 -1.000000 0.000000
vn 0.000000 -1.000000 0.000000
vn 1.000000 -0.000000 0.000000
vn 1.000000 0.000000 0.000000
vn 1.000000 0.000000 0.000000
vn 1.000000 0.000000 0.000000
vn 1.000000 0.000000 0.000000
vn 1.000000 -0.000000 0.000000
vn 1.000000 -0.000000 0.000000
vn 1.000000 -0.000000 0.000000
vn 1.000000 -0.000000 0.000000
vn 1.000000 0.000000 0.000000
vn 1.000000 0.000000 0.000000
vn 1.000000 0.000000 0.000000
vn 1.000000 0.000000 0.000000
vn 1.000000 0.000000 0.000000
vn -1.000000 0.000000 0.000000
vn -1.000000 0.000000 0.000000
vn -1.000000 0.000000 0.000000
vn -1.000000 0.000000 0.000000
vn -1.000000 0.000000 0.000000
vn -1.000000 -0.000000 0.000000
vn -1.000000 0.000000 0.000000
vn -1.000000 0.000000 0.000000
vn -1.000000 0.000000 0.000000
vn -1.000000 0.000000 0.000000
vn -1.000000 0.000000 0.000000
vn -1.000000 0.000000 0.000000
vn -1.000000 0.000000 0.000000
vn -1.000000 0.000000 0.000000
vn 0.000000 1.000000 0.000000
vn 0.000000 1.000000 0.000000
vn 0.000000 1.000000 0.000000
vn 0.000000 1.000000 0.000000
vn 0.000000 1.000000 0.000000
vn 0.000000 1.000000 0.000000
vn 0.000000 1.000000 0.000000
vn 0.000000 1.000000 0.000000
vn 0.000000 1.000000 0.000000
vn 0.000000 1.000000 0.000000
vn 0.000000 1.000000 0.000000
vn 0.000000 1.000000 0.000000
vn 0.000000 1.000000 0.000000
vn 0.000000 1.000000 0.000000
vn 0.000000 1.000000 0.000000
vn 0.000000 1.000000 0.000000
vn 0.000000 1.000000 0.000000
vn 0.000000 1.000000 0.000000
vn 0.000000 1.000000 0.000000
vn 0.000000 1.000000 0.000000
vn 0.000000 1.000000 0.000000
vn 0.000000 1.000000 0.000000
vn 0.000000 1.000000 0.000000
vn 0.000000 1.000000 0.000000
vn 0.000000 1.000000 0.000000
vn 0.000000 1.000000 0.000000
vn 0.000000 1.000000 0.000000
vn 0.000000 1.000000 0.000000
vn 0.000000 1.000000 0.000000
vn 0.000000 1.000000 0.000000
vn 0.000000 1.000000 0.000000
vn 0.000000 1.000000 0.000000
vn 0.000000 1.000000 0.000000
vn 0.000000 1.000000 0.000000
vn 0.000000 1.000000 0.000000
vn 0.000000 1.000000 0.000000
vn -1.000000 0.000000 0.000000
vn -1.000000 0.000000 0.000000
vn -1.000000 0.000000 0.000000
vn -1.000000 0.000000 0.000000
vn 0.000000 0.000000 1.000000
vn 0.000000 0.000000 1.000000
vn 0.000000 0.000000 1.000000
vn 0.000000 0.000000 1.000000
vn 0.000000 0.000000 1.000000
vn 0.000000 0.000000 1.000000
vn 0.000000 0.000000 1.000000
vn 0.000000 0.000000 1.000000
vn 0.000000 0.000000 1.000000
vn 0.000000 0.000000 1.000000
vn 0.000000 0.000000 1.000000
vn 0.000000 0.000000 1.000000
vn 1.000000 0.000000 0.000000
vn 1.000000 0.000000 0.000000
vn 1.000000 0.000000 0.000000
vn 1.000000 0.000000 0.000000
vn -1.000000 0.000000 0.000000
vn -1.000000 0.000000 0.000000
vn 1.000000 0.000000 0.000000
vn 1.000000 0.000000 0.000000
vn -1.000000 0.000000 0.000000
vn -1.000000 0.000000 0.000000
vn 1.000000 0.000000 0.000000
vn 1.000000 0.000000 0.000000
vn -1.000000 0.000000 0.000000
vn -1.000000 0.000000 0.000000
vn 1.000000 0.000000 0.000000
vn 1.000000 0.000000 0.000000
vn -1.000000 0.000000 0.000000
vn -1.000000 0.000000 0.000000
vn 0.000000 0.000000 -1.000000
vn 0.000000 0.000000 -1.000000
vn 0.000000 0.000000 -1.000000
vn 0.000000 0.000000 -1.000000
vn 0.000000 0.000000 -1.000000
vn 0.000000 0.000000 -1.000000
vn 0.000000 0.000000 -1.000000
vn 0.000000 0.000000 -1.000000
vn 0.000000 0.000000 -1.000000
vn 0.000000 0.000000 -1.000000
vn 1.000000 0.000000 0.000000
vn 1.000000 0.000000 0.000000
vn 0.000000 0.000000 -1.000000
vn 0.000000 0.000000 -1.000000
s 1
g pCube1
usemtl lambert3SG
f 1/1/1 2/2/2 7/7/3
f 7/7/3 2/2/2 8/8/4
f 2/2/2 3/3/5 8/8/4
f 8/8/4 3/3/5 9/9/6
f 3/3/5 4/4/7 9/9/6
f 9/9/6 4/4/7 10/10/8
f 4/4/7 5/5/9 10/10/8
f 10/10/8 5/5/9 11/11/10
f 5/5/9 6/6/11 11/11/10
f 11/11/10 6/6/11 12/12/12
s 2
f 81/127/13 82/128/14 84/14/15
f 84/14/15 82/128/14 83/129/16
f 83/129/16 85/130/17 84/14/15
f 84/14/15 85/130/17 86/15/18
f 85/130/17 87/131/19 86/15/18
f 86/15/18 87/131/19 88/16/20
f 87/131/19 89/132/21 88/16/20
f 88/16/20 89/132/21 90/17/22
f 89/132/21 91/133/23 90/17/22
f 90/17/22 91/133/23 92/134/24
f 93/135/25 81/127/13 94/20/26
f 94/20/26 81/127/13 84/14/15
f 84/14/15 86/15/18 94/20/26
f 94/20/26 86/15/18 95/21/27
f 86/15/18 88/16/20 95/21/27
f 95/21/27 88/16/20 96/22/28
f 88/16/20 90/17/22 96/22/28
f 96/22/28 90/17/22 97/23/29
f 90/17/22 92/134/24 97/23/29
f 97/23/29 92/134/24 98/136/30
f 99/137/31 93/135/25 100/26/32
f 100/26/32 93/135/25 94/20/26
f 94/20/26 95/21/27 100/26/32
f 100/26/32 95/21/27 101/27/33
f 95/21/27 96/22/28 101/27/33
f 101/27/33 96/22/28 102/28/34
f 96/22/28 97/23/29 102/28/34
f 102/28/34 97/23/29 103/29/35
f 97/23/29 98/136/30 103/29/35
f 103/29/35 98/136/30 104/138/36
f 105/139/37 99/137/31 106/32/38
f 106/32/38 99/137/31 100/26/32
f 100/26/32 101/27/33 106/32/38
f 106/32/38 101/27/33 107/33/39
f 101/27/33 102/28/34 107/33/39
f 107/33/39 102/28/34 108/34/40
f 102/28/34 103/29/35 108/34/40
f 108/34/40 103/29/35 109/35/41
f 103/29/35 104/138/36 109/35/41
f 109/35/41 104/138/36 110/140/42
s 3
f 63/108/43 75/121/44 21/37/45
f 21/37/45 75/121/44 22/38/46
f 75/121/44 64/109/47 22/38/46
f 64/109/47 65/110/48 22/38/46
f 22/38/46 65/110/48 23/39/49
f 65/110/48 66/111/50 23/39/49
f 23/39/49 66/111/50 24/40/51
f 66/111/50 67/112/52 24/40/51
f 24/40/51 67/112/52 25/41/53
f 67/112/52 74/120/54 25/41/53
f 25/41/53 74/120/54 26/42/55
f 74/120/54 68/113/56 26/42/55
s 4
f 21/37/57 22/38/58 27/43/59
f 27/43/59 22/38/58 28/44/60
f 22/38/58 23/39/61 28/44/60
f 28/44/60 23/39/61 29/45/62
f 23/39/61 24/40/63 29/45/62
f 29/45/62 24/40/63 30/46/64
f 24/40/63 25/41/65 30/46/64
f 30/46/64 25/41/65 31/47/66
f 25/41/65 26/42/67 31/47/66
f 31/47/66 26/42/67 32/48/68
s 5
f 27/43/69 28/44/70 33/49/71
f 33/49/71 28/44/70 34/50/72
f 28/44/70 29/45/73 34/50/72
f 34/50/72 29/45/73 35/51/74
f 29/45/73 30/46/75 35/51/74
f 35/51/74 30/46/75 36/52/76
f 30/46/75 31/47/77 36/52/76
f 36/52/76 31/47/77 37/53/78
f 31/47/77 32/48/79 37/53/78
f 37/53/78 32/48/79 38/54/80
f 33/49/71 34/50/72 39/55/81
f 39/55/81 34/50/72 40/56/82
f 34/50/72 35/51/74 40/56/82
f 40/56/82 35/51/74 41/57/83
f 35/51/74 36/52/76 41/57/83
f 41/57/83 36/52/76 42/58/84
f 36/52/76 37/53/78 42/58/84
f 42/58/84 37/53/78 43/59/85
f 37/53/78 38/54/80 43/59/85
f 43/59/85 38/54/80 44/60/86
f 39/55/81 40/56/82 45/61/87
f 45/61/87 40/56/82 46/62/88
f 40/56/82 41/57/83 46/62/88
f 46/62/88 41/57/83 47/63/89
f 41/57/83 42/58/84 47/63/89
f 47/63/89 42/58/84 48/64/90
f 42/58/84 43/59/85 48/64/90
f 48/64/90 43/59/85 49/65/91
f 43/59/85 44/60/86 49/65/91
f 49/65/91 44/60/86 50/66/92
f 45/61/87 46/62/88 51/67/93
f 51/67/93 46/62/88 52/68/94
f 46/62/88 47/63/89 52/68/94
f 52/68/94 47/63/89 53/69/95
f 47/63/89 48/64/90 53/69/95
f 53/69/95 48/64/90 54/70/96
f 48/64/90 49/65/91 54/70/96
f 54/70/96 49/65/91 55/71/97
f 49/65/91 50/66/92 55/71/97
f 55/71/97 50/66/92 56/72/98
f 51/67/93 52/68/94 1/73/99
f 1/73/99 52/68/94 2/74/100
f 52/68/94 53/69/95 2/74/100
f 2/74/100 53/69/95 3/75/101
f 53/69/95 54/70/96 3/75/101
f 3/75/101 54/70/96 4/76/102
f 54/70/96 55/71/97 4/76/102
f 4/76/102 55/71/97 5/77/103
f 55/71/97 56/72/98 5/77/103
f 5/77/103 56/72/98 6/78/104
s 6
f 38/80/105 32/79/106 20/85/107
f 20/85/107 32/79/106 68/114/108
f 32/79/106 26/84/109 68/114/108
f 44/81/110 38/80/105 18/86/111
f 18/86/111 38/80/105 20/85/107
f 50/82/112 44/81/110 16/87/113
f 16/87/113 44/81/110 18/86/111
f 56/83/114 50/82/112 14/88/115
f 14/88/115 50/82/112 16/87/113
f 6/6/116 56/83/114 12/12/117
f 12/12/117 56/83/114 62/106/118
f 56/83/114 14/88/115 62/106/118
s 8
f 27/89/119 33/90/120 21/94/121
f 21/94/121 33/90/120 63/107/122
f 33/90/120 19/95/123 63/107/122
f 33/90/120 39/91/124 19/95/123
f 19/95/123 39/91/124 17/96/125
f 39/91/124 45/92/126 17/96/125
f 17/96/125 45/92/126 15/97/127
f 45/92/126 51/93/128 15/97/127
f 15/97/127 51/93/128 13/98/129
f 51/93/128 1/1/130 13/98/129
f 13/98/129 1/1/130 57/99/131
f 1/1/130 7/7/132 57/99/131
s 3
f 7/7/133 8/8/134 57/100/135
f 57/100/135 8/8/134 80/126/136
f 8/8/134 58/101/137 80/126/136
f 8/8/134 9/9/138 58/101/137
f 58/101/137 9/9/138 59/102/139
f 9/9/138 10/10/140 59/102/139
f 59/102/139 10/10/140 60/103/141
f 10/10/140 11/11/142 60/103/141
f 60/103/141 11/11/142 61/104/143
f 11/11/142 12/12/144 61/104/143
f 61/104/143 12/12/144 69/115/145
f 12/12/144 62/105/146 69/115/145
s 2
f 111/141/147 105/139/37 112/142/148
f 112/142/148 105/139/37 106/32/38
f 106/32/38 107/33/39 112/142/148
f 112/142/148 107/33/39 113/143/149
f 107/33/39 108/34/40 113/143/149
f 113/143/149 108/34/40 114/144/150
f 108/34/40 109/35/41 114/144/150
f 114/144/150 109/35/41 115/145/151
f 109/35/41 110/140/42 115/145/151
f 115/145/151 110/140/42 116/146/152
s 3
f 70/116/153 69/115/145 14/18/154
f 14/18/154 69/115/145 62/105/146
f 71/117/155 70/116/153 16/24/156
f 16/24/156 70/116/153 14/18/154
f 72/118/157 71/117/155 18/30/158
f 18/30/158 71/117/155 16/24/156
f 73/119/159 72/118/157 20/36/160
f 20/36/160 72/118/157 18/30/158
f 74/120/54 73/119/159 68/113/56
f 68/113/56 73/119/159 20/36/160
f 19/31/161 76/122/162 63/108/43
f 63/108/43 76/122/162 75/121/44
f 17/25/163 77/123/164 19/31/161
f 19/31/161 77/123/164 76/122/162
f 15/19/165 78/124/166 17/25/163
f 17/25/163 78/124/166 77/123/164
f 13/13/167 79/125/168 15/19/165
f 15/19/165 79/125/168 78/124/166
f 57/100/135 80/126/136 13/13/167
f 13/13/167 80/126/136 79/125/168
s 14
f 79/125/169 80/126/170 81/127/171
f 81/127/171 80/126/170 82/128/172
s 15
f 80/126/173 58/101/174 82/128/175
f 82/128/175 58/101/174 83/129/176
f 58/101/174 59/102/177 83/129/176
f 83/129/176 59/102/177 85/130/178
f 59/102/177 60/103/179 85/130/178
f 85/130/178 60/103/179 87/131/180
f 60/103/179 61/104/181 87/131/180
f 87/131/180 61/104/181 89/132/182
f 61/104/181 69/115/183 89/132/182
f 89/132/182 69/115/183 91/133/184
s 16
f 69/115/185 70/116/186 91/133/187
f 91/133/187 70/116/186 92/134/188
s 14
f 78/124/189 79/125/169 93/135/190
f 93/135/190 79/125/169 81/127/171
s 16
f 70/116/186 71/117/191 92/134/188
f 92/134/188 71/117/191 98/136/192
s 14
f 77/123/193 78/124/189 99/137/194
f 99/137/194 78/124/189 93/135/190
s 16
f 71/117/191 72/118/195 98/136/192
f 98/136/192 72/118/195 104/138/196
s 14
f 76/122/197 77/123/193 105/139/198
f 105/139/198 77/123/193 99/137/194
s 16
f 72/118/195 73/119/199 104/138/196
f 104/138/196 73/119/199 110/140/200
s 14
f 75/121/201 76/122/197 111/141/202
f 111/141/202 76/122/197 105/139/198
s 17
f 64/109/203 75/121/204 112/142/205
f 112/142/205 75/121/204 111/141/206
f 65/110/207 64/109/203 113/143/208
f 113/143/208 64/109/203 112/142/205
f 66/111/209 65/110/207 114/144/210
f 114/144/210 65/110/207 113/143/208
f 67/112/211 66/111/209 115/145/212
f 115/145/212 66/111/209 114/144/210
s 16
f 73/119/199 74/120/213 110/140/200
f 110/140/200 74/120/213 116/146/214
s 17
f 74/120/215 67/112/211 116/146/216
f 116/146/216 67/112/211 115/145/212
