# This file uses centimeters as units for non-parametric coordinates.

mtllib InteractableItem_Teleporter_OBJ.mtl
g default
v 0.825000 3.005610 0.825000
v 0.825000 3.031112 0.825000
v -0.825000 3.031112 -0.825000
v 0.825000 3.031112 -0.825000
v -0.825000 3.005610 -0.825000
v 0.825000 3.005610 -0.825000
v -0.825000 3.007014 0.495000
v -0.495000 3.007014 0.825000
v -0.495000 3.005610 0.825000
v -0.825000 3.005610 0.495000
v 0.900000 0.005610 0.900000
v 0.900000 0.031112 0.900000
v -0.900000 0.031112 -0.900000
v 0.900000 0.031112 -0.900000
v -0.900000 0.005610 -0.900000
v 0.900000 0.005610 -0.900000
v -0.900000 0.007014 0.540000
v -0.540000 0.007014 0.900000
v -0.540000 0.005610 0.900000
v -0.900000 0.005610 0.540000
vt 0.269647 0.000000
vt 0.269647 0.250000
vt 0.019647 0.500000
vt 0.269647 0.500000
vt 0.019647 0.750000
vt 0.269647 0.750000
vt 0.269647 1.000000
vt 0.519647 0.000000
vt 0.519647 0.250000
vt 0.071301 0.000000
vt 0.071301 0.250000
vt 0.271301 0.250000
vt 0.019647 0.300000
vt 0.069647 0.250000
vt 0.069647 0.000000
vt 0.069647 1.000000
vt 0.271301 0.000000
vt 0.019647 0.950000
vt 0.535901 0.250000
vt 0.535901 0.000000
vt 0.735901 0.000000
vt 0.735901 0.250000
vt 0.485901 0.300000
vt 0.735901 0.500000
vt 0.485901 0.500000
vt 0.735901 0.750000
vt 0.485901 0.750000
vt 0.985901 0.000000
vt 0.985901 0.250000
vt 0.539063 0.000000
vt 0.739063 0.000000
vt 0.739063 0.250000
vt 0.539063 0.250000
vt 0.735901 1.000000
vt 0.535901 1.000000
vt 0.485901 0.950000
vn 0.000000 0.000000 1.000000
vn 0.000000 0.000000 1.000000
vn 0.000000 0.000000 1.000000
vn 0.000000 0.000000 1.000000
vn -0.018253 0.999833 0.000000
vn -0.009057 0.999918 0.009057
vn -0.013963 0.999897 0.003433
vn -0.003432 0.999897 0.013963
vn 0.000000 0.999834 0.018253
vn 0.000000 0.000000 -1.000000
vn 0.000000 0.000000 -1.000000
vn 0.000000 0.000000 -1.000000
vn 0.000000 0.000000 -1.000000
vn 1.000000 0.000000 0.000000
vn 1.000000 0.000000 0.000000
vn 1.000000 0.000000 0.000000
vn 1.000000 0.000000 0.000000
vn -1.000000 0.000000 0.000000
vn -1.000000 0.000000 0.000000
vn -1.000000 0.000000 0.000000
vn -1.000000 0.000000 0.000000
vn 0.000000 -1.000000 0.000000
vn 0.000000 -1.000000 0.000000
vn 0.000000 -1.000000 0.000000
vn 0.000000 -1.000000 0.000000
vn 0.000000 -1.000000 0.000000
vn 0.000000 0.000000 1.000000
vn 0.000000 0.000000 1.000000
vn 0.000000 0.000000 1.000000
vn 0.000000 0.000000 1.000000
vn -0.016732 0.999860 0.000000
vn -0.008303 0.999931 0.008303
vn -0.012800 0.999913 0.003146
vn -0.003146 0.999913 0.012800
vn 0.000000 0.999860 0.016732
vn 0.000000 0.000000 -1.000000
vn 0.000000 0.000000 -1.000000
vn 0.000000 0.000000 -1.000000
vn 0.000000 0.000000 -1.000000
vn 1.000000 0.000000 0.000000
vn 1.000000 0.000000 0.000000
vn 1.000000 0.000000 0.000000
vn 1.000000 0.000000 0.000000
vn -1.000000 0.000000 0.000000
vn -1.000000 0.000000 0.000000
vn -1.000000 0.000000 0.000000
vn -1.000000 0.000000 0.000000
vn 0.000000 -1.000000 0.000000
vn 0.000000 -1.000000 -0.000000
vn 0.000000 -1.000000 -0.000000
vn 0.000000 -1.000000 -0.000000
vn 0.000000 -1.000000 0.000000
s 1
g pCube3
usemtl lambert2SG
f 9/15/1 1/1/2 8/14/3
f 8/14/3 1/1/2 2/2/4
s 2
f 2/2/5 4/4/6 8/14/7
f 8/14/7 4/4/6 7/13/8
f 7/13/8 4/4/6 3/3/9
s 3
f 3/3/10 4/4/11 5/5/12
f 5/5/12 4/4/11 6/6/13
s 4
f 1/1/14 6/8/15 2/2/16
f 2/2/16 6/8/15 4/9/17
s 5
f 10/17/18 7/12/19 5/10/20
f 5/10/20 7/12/19 3/11/21
s 6
f 5/5/22 6/6/23 10/18/24
f 10/18/24 6/6/23 9/16/25
f 6/6/23 1/7/26 9/16/25
s 7
f 19/20/27 11/21/28 18/19/29
f 18/19/29 11/21/28 12/22/30
s 8
f 12/22/31 14/24/32 18/19/33
f 18/19/33 14/24/32 17/23/34
f 17/23/34 14/24/32 13/25/35
s 9
f 13/25/36 14/24/37 15/27/38
f 15/27/38 14/24/37 16/26/39
s 10
f 11/21/40 16/28/41 12/22/42
f 12/22/42 16/28/41 14/29/43
s 11
f 20/31/44 17/32/45 15/30/46
f 15/30/46 17/32/45 13/33/47
s 12
f 15/27/48 16/26/49 20/36/50
f 20/36/50 16/26/49 19/35/51
f 16/26/49 11/34/52 19/35/51
g default
v 0.825000 3.005610 0.825000
v 0.825000 3.031112 0.825000
v -0.825000 3.031112 -0.825000
v 0.825000 3.031112 -0.825000
v -0.825000 3.005610 -0.825000
v 0.825000 3.005610 -0.825000
v -0.825000 3.007014 0.495000
v -0.495000 3.007014 0.825000
v -0.495000 3.005610 0.825000
v -0.825000 3.005610 0.495000
v 0.900000 0.005610 0.900000
v 0.900000 0.031112 0.900000
v -0.900000 0.031112 -0.900000
v 0.900000 0.031112 -0.900000
v -0.900000 0.005610 -0.900000
v 0.900000 0.005610 -0.900000
v -0.900000 0.007014 0.540000
v -0.540000 0.007014 0.900000
v -0.540000 0.005610 0.900000
v -0.900000 0.005610 0.540000
vt 0.269647 0.000000
vt 0.269647 0.250000
vt 0.019647 0.500000
vt 0.269647 0.500000
vt 0.019647 0.750000
vt 0.269647 0.750000
vt 0.269647 1.000000
vt 0.519647 0.000000
vt 0.519647 0.250000
vt 0.071301 0.000000
vt 0.071301 0.250000
vt 0.271301 0.250000
vt 0.019647 0.300000
vt 0.069647 0.250000
vt 0.069647 0.000000
vt 0.069647 1.000000
vt 0.271301 0.000000
vt 0.019647 0.950000
vt 0.535901 0.250000
vt 0.535901 0.000000
vt 0.735901 0.000000
vt 0.735901 0.250000
vt 0.485901 0.300000
vt 0.735901 0.500000
vt 0.485901 0.500000
vt 0.735901 0.750000
vt 0.485901 0.750000
vt 0.985901 0.000000
vt 0.985901 0.250000
vt 0.539063 0.000000
vt 0.739063 0.000000
vt 0.739063 0.250000
vt 0.539063 0.250000
vt 0.735901 1.000000
vt 0.535901 1.000000
vt 0.485901 0.950000
vn 0.000000 0.000000 1.000000
vn 0.000000 0.000000 1.000000
vn 0.000000 0.000000 1.000000
vn 0.000000 0.000000 1.000000
vn -0.018253 0.999833 0.000000
vn -0.009057 0.999918 0.009057
vn -0.013963 0.999897 0.003433
vn -0.003432 0.999897 0.013963
vn 0.000000 0.999834 0.018253
vn 0.000000 0.000000 -1.000000
vn 0.000000 0.000000 -1.000000
vn 0.000000 0.000000 -1.000000
vn 0.000000 0.000000 -1.000000
vn 1.000000 0.000000 0.000000
vn 1.000000 0.000000 0.000000
vn 1.000000 0.000000 0.000000
vn 1.000000 0.000000 0.000000
vn -1.000000 0.000000 0.000000
vn -1.000000 0.000000 0.000000
vn -1.000000 0.000000 0.000000
vn -1.000000 0.000000 0.000000
vn 0.000000 -1.000000 0.000000
vn 0.000000 -1.000000 0.000000
vn 0.000000 -1.000000 0.000000
vn 0.000000 -1.000000 0.000000
vn 0.000000 -1.000000 0.000000
vn 0.000000 0.000000 1.000000
vn 0.000000 0.000000 1.000000
vn 0.000000 0.000000 1.000000
vn 0.000000 0.000000 1.000000
vn -0.016732 0.999860 0.000000
vn -0.008303 0.999931 0.008303
vn -0.012800 0.999913 0.003146
vn -0.003146 0.999913 0.012800
vn 0.000000 0.999860 0.016732
vn 0.000000 0.000000 -1.000000
vn 0.000000 0.000000 -1.000000
vn 0.000000 0.000000 -1.000000
vn 0.000000 0.000000 -1.000000
vn 1.000000 0.000000 0.000000
vn 1.000000 0.000000 0.000000
vn 1.000000 0.000000 0.000000
vn 1.000000 0.000000 0.000000
vn -1.000000 0.000000 0.000000
vn -1.000000 0.000000 0.000000
vn -1.000000 0.000000 0.000000
vn -1.000000 0.000000 0.000000
vn 0.000000 -1.000000 0.000000
vn 0.000000 -1.000000 -0.000000
vn 0.000000 -1.000000 -0.000000
vn 0.000000 -1.000000 -0.000000
vn 0.000000 -1.000000 0.000000
s 1
g pCube3
f 29/51/53 21/37/54 28/50/55
f 28/50/55 21/37/54 22/38/56
s 2
f 22/38/57 24/40/58 28/50/59
f 28/50/59 24/40/58 27/49/60
f 27/49/60 24/40/58 23/39/61
s 3
f 23/39/62 24/40/63 25/41/64
f 25/41/64 24/40/63 26/42/65
s 4
f 21/37/66 26/44/67 22/38/68
f 22/38/68 26/44/67 24/45/69
s 5
f 30/53/70 27/48/71 25/46/72
f 25/46/72 27/48/71 23/47/73
s 6
f 25/41/74 26/42/75 30/54/76
f 30/54/76 26/42/75 29/52/77
f 26/42/75 21/43/78 29/52/77
s 7
f 39/56/79 31/57/80 38/55/81
f 38/55/81 31/57/80 32/58/82
s 8
f 32/58/83 34/60/84 38/55/85
f 38/55/85 34/60/84 37/59/86
f 37/59/86 34/60/84 33/61/87
s 9
f 33/61/88 34/60/89 35/63/90
f 35/63/90 34/60/89 36/62/91
s 10
f 31/57/92 36/64/93 32/58/94
f 32/58/94 36/64/93 34/65/95
s 11
f 40/67/96 37/68/97 35/66/98
f 35/66/98 37/68/97 33/69/99
s 12
f 35/63/100 36/62/101 40/72/102
f 40/72/102 36/62/101 39/71/103
f 36/62/101 31/70/104 39/71/103
