# This file uses centimeters as units for non-parametric coordinates.

mtllib MedicalTent1_OBJ.mtl
g default
v 4.739458 -0.006289 16.631681
v 7.029229 -0.006289 14.138178
v 4.535727 -0.006289 11.848407
v 2.245956 -0.006289 14.341910
v 4.637592 2.387516 14.240044
vt 0.500000 0.000000
vt 0.750000 0.250000
vt 0.594562 0.500000
vt 0.250000 0.250000
vt 0.459244 0.500000
vt 0.571744 0.500000
vt 0.690748 0.950000
vt 0.075645 0.500000
vt 0.271458 0.500000
vt 0.187553 0.905000
vt 0.586943 0.500000
vt 0.604880 0.500000
vt 0.497320 0.905000
vt 0.729880 0.500000
vn 0.000000 -1.000000 0.000000
vn 0.000000 -1.000000 0.000000
vn 0.000000 -1.000000 0.000000
vn 0.000000 -1.000000 0.000000
vn 0.601396 0.577350 0.552258
vn 0.601396 0.577350 0.552258
vn 0.601396 0.577350 0.552258
vn 0.552258 0.577350 -0.601396
vn 0.552258 0.577350 -0.601396
vn 0.552258 0.577350 -0.601396
vn -0.601396 0.577350 -0.552258
vn -0.601396 0.577350 -0.552258
vn -0.601396 0.577350 -0.552258
vn -0.552258 0.577350 0.601396
vn -0.552258 0.577350 0.601396
vn -0.552258 0.577350 0.601396
s off
g MedicalTent3
usemtl lambert5SG
f 1/1/1 4/2/2 3/3/3 2/4/4
f 1/5/5 2/6/6 5/7/7
f 2/8/8 3/9/9 5/10/10
f 3/11/11 4/12/12 5/13/13
f 4/12/14 1/14/15 5/13/16
