# This file uses centimeters as units for non-parametric coordinates.

mtllib MedicalTent_OBJ.mtl
g default
v 20.544014 -0.006289 5.906512
v 17.198711 -0.006289 6.425695
v 17.717896 -0.006289 9.770999
v 21.063198 -0.006289 9.251816
v 19.130955 2.387516 7.838756
v 21.524309 -0.006289 15.868307
v 19.177422 -0.006289 13.428486
v 16.737600 -0.006289 15.775373
v 19.084488 -0.006289 18.215195
v 19.130955 2.387516 15.821840
v 12.723886 -0.006289 21.494492
v 13.082651 -0.006289 18.128204
v 9.716363 -0.006289 17.769440
v 9.357597 -0.006289 21.135727
v 11.220124 2.387516 19.631966
v 4.739458 -0.006289 16.631681
v 7.029229 -0.006289 14.138179
v 4.535727 -0.006289 11.848408
v 2.245955 -0.006289 14.341910
v 4.637592 2.387516 14.240045
vt 0.500000 0.000000
vt 0.750000 0.250000
vt 0.594562 0.500000
vt 0.250000 0.250000
vt 0.459244 0.500000
vt 0.571744 0.500000
vt 0.690748 0.950000
vt 0.075645 0.500000
vt 0.271458 0.500000
vt 0.187553 0.905000
vt 0.586943 0.500000
vt 0.604880 0.500000
vt 0.497320 0.905000
vt 0.729880 0.500000
vt 0.500000 0.000000
vt 0.750000 0.250000
vt 0.594562 0.500000
vt 0.250000 0.250000
vt 0.459244 0.500000
vt 0.571744 0.500000
vt 0.690748 0.950000
vt 0.075645 0.500000
vt 0.271458 0.500000
vt 0.187553 0.905000
vt 0.586943 0.500000
vt 0.604880 0.500000
vt 0.497320 0.905000
vt 0.729880 0.500000
vt 0.500000 0.000000
vt 0.750000 0.250000
vt 0.594562 0.500000
vt 0.250000 0.250000
vt 0.459244 0.500000
vt 0.571744 0.500000
vt 0.690748 0.950000
vt 0.075645 0.500000
vt 0.271458 0.500000
vt 0.187553 0.905000
vt 0.586943 0.500000
vt 0.604880 0.500000
vt 0.497320 0.905000
vt 0.729880 0.500000
vt 0.500000 0.000000
vt 0.750000 0.250000
vt 0.594562 0.500000
vt 0.250000 0.250000
vt 0.459244 0.500000
vt 0.571744 0.500000
vt 0.690748 0.950000
vt 0.075645 0.500000
vt 0.271458 0.500000
vt 0.187553 0.905000
vt 0.586943 0.500000
vt 0.604880 0.500000
vt 0.497320 0.905000
vt 0.729880 0.500000
vn 0.000000 -1.000000 0.000000
vn 0.000000 -1.000000 0.000000
vn 0.000000 -1.000000 0.000000
vn 0.000000 -1.000000 0.000000
vn -0.125220 0.577350 -0.806838
vn -0.125220 0.577350 -0.806838
vn -0.125220 0.577350 -0.806838
vn -0.806838 0.577350 0.125220
vn -0.806838 0.577350 0.125220
vn -0.806838 0.577350 0.125220
vn 0.125220 0.577350 0.806838
vn 0.125220 0.577350 0.806838
vn 0.125220 0.577350 0.806838
vn 0.806838 0.577350 -0.125220
vn 0.806838 0.577350 -0.125220
vn 0.806838 0.577350 -0.125220
vn 0.000000 -1.000000 0.000000
vn 0.000000 -1.000000 0.000000
vn 0.000000 -1.000000 0.000000
vn 0.000000 -1.000000 0.000000
vn 0.588448 0.577350 -0.566035
vn 0.588448 0.577350 -0.566035
vn 0.588448 0.577350 -0.566035
vn -0.566035 0.577350 -0.588448
vn -0.566035 0.577350 -0.588448
vn -0.566035 0.577350 -0.588448
vn -0.588448 0.577350 0.566035
vn -0.588448 0.577350 0.566035
vn -0.588448 0.577350 0.566035
vn 0.566035 0.577350 0.588448
vn 0.566035 0.577350 0.588448
vn 0.566035 0.577350 0.588448
vn 0.000000 -1.000000 0.000000
vn 0.000000 -1.000000 0.000000
vn 0.000000 -1.000000 0.000000
vn 0.000000 -1.000000 0.000000
vn 0.811899 0.577350 0.086528
vn 0.811899 0.577350 0.086528
vn 0.811899 0.577350 0.086528
vn 0.086528 0.577350 -0.811899
vn 0.086528 0.577350 -0.811899
vn 0.086528 0.577350 -0.811899
vn -0.811899 0.577350 -0.086528
vn -0.811899 0.577350 -0.086528
vn -0.811899 0.577350 -0.086528
vn -0.086528 0.577350 0.811899
vn -0.086528 0.577350 0.811899
vn -0.086528 0.577350 0.811899
vn 0.000000 -1.000000 0.000000
vn 0.000000 -1.000000 0.000000
vn 0.000000 -1.000000 0.000000
vn 0.000000 -1.000000 0.000000
vn 0.601396 0.577350 0.552258
vn 0.601396 0.577350 0.552258
vn 0.601396 0.577350 0.552258
vn 0.552258 0.577350 -0.601396
vn 0.552258 0.577350 -0.601396
vn 0.552258 0.577350 -0.601396
vn -0.601396 0.577350 -0.552258
vn -0.601396 0.577350 -0.552258
vn -0.601396 0.577350 -0.552258
vn -0.552258 0.577350 0.601396
vn -0.552258 0.577350 0.601396
vn -0.552258 0.577350 0.601396
s off
g MedicalTents
usemtl lambert5SG
f 1/1/1 4/2/2 3/3/3 2/4/4
f 1/5/5 2/6/6 5/7/7
f 2/8/8 3/9/9 5/10/10
f 3/11/11 4/12/12 5/13/13
f 4/12/14 1/14/15 5/13/16
f 6/15/17 9/16/18 8/17/19 7/18/20
f 6/19/21 7/20/22 10/21/23
f 7/22/24 8/23/25 10/24/26
f 8/25/27 9/26/28 10/27/29
f 9/26/30 6/28/31 10/27/32
f 11/29/33 14/30/34 13/31/35 12/32/36
f 11/33/37 12/34/38 15/35/39
f 12/36/40 13/37/41 15/38/42
f 13/39/43 14/40/44 15/41/45
f 14/40/46 11/42/47 15/41/48
f 16/43/49 19/44/50 18/45/51 17/46/52
f 16/47/53 17/48/54 20/49/55
f 17/50/56 18/51/57 20/52/58
f 18/53/59 19/54/60 20/55/61
f 19/54/62 16/56/63 20/55/64
