# This file uses centimeters as units for non-parametric coordinates.

mtllib RetreiverRightSaw.mtl
g default
v -0.021178 -0.021178 0.333882
v 0.021178 -0.021178 0.333882
v -0.021178 0.021178 0.333882
v 0.021178 0.021178 0.333882
v -0.021178 0.021178 -0.000000
v 0.021178 0.021178 -0.000000
v -0.021178 -0.021178 -0.000000
v 0.021178 -0.021178 -0.000000
v -0.001521 0.002424 0.321421
v -0.001521 0.002424 0.321421
v -0.001521 0.002424 0.321421
v -0.001521 0.002424 0.321421
v -0.001521 0.002424 0.321421
v -0.001521 0.002424 0.321421
v -0.001521 0.002424 0.321421
v -0.001521 0.002424 0.321421
v 0.030073 0.034018 0.334941
v -0.001521 0.047104 0.334941
v -0.033115 0.034018 0.334941
v -0.046201 0.002424 0.334941
v -0.033115 -0.029170 0.334941
v -0.001521 -0.042257 0.334941
v 0.030073 -0.029170 0.334941
v 0.043159 0.002424 0.334941
v 0.106347 0.110292 0.340541
v -0.001521 0.154972 0.340541
v -0.109389 0.110292 0.340541
v -0.154069 0.002424 0.340541
v -0.109389 -0.105444 0.340541
v -0.001521 -0.150124 0.340541
v 0.106347 -0.105444 0.340541
v 0.151027 0.002424 0.340541
v 0.182621 0.186566 0.334941
v -0.001521 0.262840 0.334941
v -0.185663 0.186566 0.334941
v -0.261937 0.002424 0.334941
v -0.185663 -0.181718 0.334941
v -0.001521 -0.257992 0.334941
v 0.182621 -0.181718 0.334941
v 0.258895 0.002424 0.334941
v 0.214215 0.218160 0.321420
v -0.001521 0.307520 0.321421
v -0.217257 0.218160 0.321421
v -0.306617 0.002424 0.321421
v -0.217257 -0.213312 0.321421
v -0.001521 -0.302673 0.321421
v 0.214215 -0.213312 0.321421
v 0.303575 0.002424 0.321421
v 0.182621 0.186566 0.307900
v -0.001521 0.262840 0.307900
v -0.185663 0.186566 0.307900
v -0.261937 0.002424 0.307900
v -0.185663 -0.181718 0.307900
v -0.001521 -0.257992 0.307900
v 0.182621 -0.181718 0.307900
v 0.258895 0.002424 0.307900
v 0.106347 0.110292 0.302300
v -0.001521 0.154972 0.302300
v -0.109389 0.110292 0.302300
v -0.154069 0.002424 0.302300
v -0.109389 -0.105444 0.302300
v -0.001521 -0.150124 0.302300
v 0.106347 -0.105444 0.302300
v 0.151027 0.002424 0.302300
v 0.030073 0.034018 0.307900
v -0.001521 0.047104 0.307900
v -0.033115 0.034018 0.307900
v -0.046201 0.002424 0.307900
v -0.033115 -0.029170 0.307900
v -0.001521 -0.042257 0.307900
v 0.030073 -0.029170 0.307900
v 0.043159 0.002424 0.307900
vt 0.375000 0.000000
vt 0.625000 0.000000
vt 0.375000 0.250000
vt 0.625000 0.250000
vt 0.375000 0.500000
vt 0.625000 0.500000
vt 0.375000 0.750000
vt 0.625000 0.750000
vt 0.375000 1.000000
vt 0.625000 1.000000
vt 0.875000 0.000000
vt 0.875000 0.250000
vt 0.125000 0.000000
vt 0.125000 0.250000
vt 0.125000 1.000000
vt 0.000000 1.000000
vt 0.000000 0.875000
vt 0.125000 0.875000
vt 0.250000 1.000000
vt 0.250000 0.875000
vt 0.375000 1.000000
vt 0.375000 0.875000
vt 0.500000 1.000000
vt 0.500000 0.875000
vt 0.625000 1.000000
vt 0.625000 0.875000
vt 0.750000 1.000000
vt 0.750000 0.875000
vt 0.875000 1.000000
vt 0.875000 0.875000
vt 1.000000 1.000000
vt 1.000000 0.875000
vt 0.000000 0.750000
vt 0.125000 0.750000
vt 0.250000 0.750000
vt 0.375000 0.750000
vt 0.500000 0.750000
vt 0.625000 0.750000
vt 0.750000 0.750000
vt 0.875000 0.750000
vt 1.000000 0.750000
vt 0.000000 0.625000
vt 0.125000 0.625000
vt 0.250000 0.625000
vt 0.375000 0.625000
vt 0.500000 0.625000
vt 0.625000 0.625000
vt 0.750000 0.625000
vt 0.875000 0.625000
vt 1.000000 0.625000
vt 0.000000 0.500000
vt 0.125000 0.500000
vt 0.250000 0.500000
vt 0.375000 0.500000
vt 0.500000 0.500000
vt 0.625000 0.500000
vt 0.750000 0.500000
vt 0.875000 0.500000
vt 1.000000 0.500000
vt 0.000000 0.375000
vt 0.125000 0.375000
vt 0.250000 0.375000
vt 0.375000 0.375000
vt 0.500000 0.375000
vt 0.625000 0.375000
vt 0.750000 0.375000
vt 0.875000 0.375000
vt 1.000000 0.375000
vt 0.000000 0.250000
vt 0.125000 0.250000
vt 0.250000 0.250000
vt 0.375000 0.250000
vt 0.500000 0.250000
vt 0.625000 0.250000
vt 0.750000 0.250000
vt 0.875000 0.250000
vt 1.000000 0.250000
vt 0.000000 0.125000
vt 0.125000 0.125000
vt 0.250000 0.125000
vt 0.375000 0.125000
vt 0.500000 0.125000
vt 0.625000 0.125000
vt 0.750000 0.125000
vt 0.875000 0.125000
vt 1.000000 0.125000
vt 0.000000 0.000000
vt 0.125000 0.000000
vt 0.250000 0.000000
vt 0.375000 0.000000
vt 0.500000 0.000000
vt 0.625000 0.000000
vt 0.750000 0.000000
vt 0.875000 0.000000
vt 1.000000 0.000000
vn -0.000001 0.000000 1.000000
vn -0.000001 0.000000 1.000000
vn -0.000001 0.000000 1.000000
vn 0.000000 0.000000 1.000000
vn 0.000000 1.000000 0.000000
vn 0.000000 1.000000 0.000000
vn 0.000000 1.000000 0.000000
vn 0.000000 1.000000 0.000000
vn 0.000001 0.000000 -1.000000
vn 0.000001 0.000000 -1.000000
vn 0.000001 0.000000 -1.000000
vn 0.000001 0.000000 -1.000000
vn 0.000000 -1.000000 0.000000
vn 0.000000 -1.000000 0.000000
vn 0.000000 -1.000000 0.000000
vn 0.000000 -1.000000 0.000000
vn 1.000000 0.000000 0.000000
vn 1.000000 0.000000 0.000000
vn 1.000000 0.000000 0.000000
vn 1.000000 0.000000 0.000000
vn -1.000000 0.000000 -0.000000
vn -1.000000 0.000000 -0.000000
vn -1.000000 0.000000 -0.000000
vn -1.000000 0.000000 -0.000000
vn 0.000000 0.000000 0.000000
vn -0.119112 -0.287568 0.950325
vn -0.119112 -0.287568 0.950325
vn -0.119112 -0.287568 0.950325
vn 0.000000 0.000000 0.000000
vn 0.119113 -0.287568 0.950325
vn 0.119113 -0.287568 0.950325
vn 0.119113 -0.287568 0.950325
vn 0.000000 0.000000 0.000000
vn 0.287568 -0.119115 0.950324
vn 0.287568 -0.119115 0.950324
vn 0.287568 -0.119115 0.950324
vn 0.000000 0.000000 0.000000
vn 0.287568 0.119115 0.950324
vn 0.287568 0.119115 0.950324
vn 0.287568 0.119115 0.950324
vn 0.000000 0.000000 0.000000
vn 0.119113 0.287568 0.950325
vn 0.119113 0.287568 0.950325
vn 0.119113 0.287568 0.950325
vn 0.000000 0.000000 0.000000
vn -0.119112 0.287568 0.950325
vn -0.119112 0.287568 0.950325
vn -0.119112 0.287568 0.950325
vn 0.000000 0.000000 0.000000
vn -0.287567 0.119113 0.950325
vn -0.287567 0.119113 0.950325
vn -0.287567 0.119113 0.950325
vn 0.000000 0.000000 0.000000
vn -0.287567 -0.119113 0.950325
vn -0.287567 -0.119113 0.950325
vn -0.287567 -0.119113 0.950325
vn -0.021468 -0.051836 0.998425
vn -0.021471 -0.051836 0.998425
vn -0.021471 -0.051836 0.998425
vn -0.021472 -0.051836 0.998425
vn 0.021470 -0.051836 0.998425
vn 0.021471 -0.051836 0.998425
vn 0.021471 -0.051836 0.998425
vn 0.021471 -0.051836 0.998425
vn 0.051836 -0.021472 0.998425
vn 0.051836 -0.021471 0.998425
vn 0.051836 -0.021471 0.998425
vn 0.051836 -0.021471 0.998425
vn 0.051836 0.021472 0.998425
vn 0.051836 0.021471 0.998425
vn 0.051836 0.021471 0.998425
vn 0.051836 0.021471 0.998425
vn 0.021470 0.051836 0.998425
vn 0.021471 0.051836 0.998425
vn 0.021471 0.051836 0.998425
vn 0.021471 0.051836 0.998425
vn -0.021470 0.051837 0.998425
vn -0.021471 0.051836 0.998425
vn -0.021471 0.051836 0.998425
vn -0.021471 0.051836 0.998425
vn -0.051836 0.021470 0.998425
vn -0.051837 0.021471 0.998425
vn -0.051837 0.021471 0.998425
vn -0.051837 0.021471 0.998425
vn -0.051835 -0.021471 0.998425
vn -0.051837 -0.021471 0.998425
vn -0.051837 -0.021471 0.998425
vn -0.051837 -0.021471 0.998425
vn 0.021471 0.051836 0.998425
vn 0.021471 0.051836 0.998425
vn 0.021471 0.051836 0.998425
vn 0.021471 0.051836 0.998425
vn -0.021471 0.051836 0.998425
vn -0.021471 0.051836 0.998425
vn -0.021471 0.051836 0.998425
vn -0.021471 0.051836 0.998425
vn -0.051836 0.021471 0.998425
vn -0.051836 0.021471 0.998425
vn -0.051836 0.021471 0.998425
vn -0.051836 0.021471 0.998425
vn -0.051836 -0.021471 0.998425
vn -0.051836 -0.021471 0.998425
vn -0.051836 -0.021471 0.998425
vn -0.051836 -0.021471 0.998425
vn -0.021470 -0.051836 0.998425
vn -0.021471 -0.051836 0.998425
vn -0.021471 -0.051836 0.998425
vn -0.021471 -0.051836 0.998425
vn 0.021471 -0.051836 0.998425
vn 0.021471 -0.051836 0.998425
vn 0.021471 -0.051836 0.998425
vn 0.021471 -0.051836 0.998425
vn 0.051837 -0.021472 0.998425
vn 0.051836 -0.021471 0.998425
vn 0.051836 -0.021472 0.998425
vn 0.051836 -0.021471 0.998425
vn 0.051836 0.021472 0.998425
vn 0.051836 0.021471 0.998425
vn 0.051836 0.021472 0.998425
vn 0.051836 0.021471 0.998425
vn 0.119115 0.287568 0.950325
vn 0.119114 0.287567 0.950325
vn 0.119115 0.287567 0.950325
vn 0.119114 0.287567 0.950325
vn -0.119114 0.287567 0.950325
vn -0.119114 0.287567 0.950325
vn -0.119114 0.287567 0.950325
vn -0.119114 0.287567 0.950325
vn -0.287567 0.119114 0.950325
vn -0.287566 0.119114 0.950325
vn -0.287567 0.119114 0.950325
vn -0.287566 0.119114 0.950325
vn -0.287569 -0.119114 0.950324
vn -0.287566 -0.119114 0.950325
vn -0.287568 -0.119114 0.950324
vn -0.287565 -0.119114 0.950325
vn -0.119115 -0.287568 0.950324
vn -0.119113 -0.287567 0.950325
vn -0.119115 -0.287567 0.950325
vn -0.119113 -0.287567 0.950325
vn 0.119114 -0.287566 0.950325
vn 0.119114 -0.287567 0.950325
vn 0.119114 -0.287566 0.950325
vn 0.119114 -0.287567 0.950325
vn 0.287568 -0.119115 0.950324
vn 0.287566 -0.119114 0.950325
vn 0.287567 -0.119114 0.950325
vn 0.287566 -0.119114 0.950325
vn 0.287567 0.119114 0.950325
vn 0.287569 0.119114 0.950324
vn 0.287567 0.119114 0.950325
vn 0.287569 0.119114 0.950324
vn 0.119114 0.287568 -0.950325
vn 0.119114 0.287567 -0.950325
vn 0.119114 0.287568 -0.950325
vn 0.119114 0.287566 -0.950325
vn -0.119114 0.287567 -0.950325
vn -0.119114 0.287567 -0.950325
vn -0.119114 0.287567 -0.950325
vn -0.119114 0.287567 -0.950325
vn -0.287568 0.119114 -0.950325
vn -0.287567 0.119114 -0.950325
vn -0.287568 0.119114 -0.950325
vn -0.287567 0.119114 -0.950325
vn -0.287568 -0.119114 -0.950324
vn -0.287567 -0.119114 -0.950325
vn -0.287568 -0.119114 -0.950325
vn -0.287567 -0.119114 -0.950325
vn -0.119115 -0.287567 -0.950325
vn -0.119114 -0.287567 -0.950325
vn -0.119115 -0.287567 -0.950325
vn -0.119114 -0.287567 -0.950325
vn 0.119114 -0.287567 -0.950325
vn 0.119115 -0.287568 -0.950324
vn 0.119114 -0.287567 -0.950325
vn 0.119115 -0.287568 -0.950324
vn 0.287567 -0.119114 -0.950325
vn 0.287568 -0.119114 -0.950325
vn 0.287567 -0.119114 -0.950325
vn 0.287568 -0.119114 -0.950324
vn 0.287566 0.119114 -0.950325
vn 0.287567 0.119114 -0.950325
vn 0.287566 0.119114 -0.950325
vn 0.287567 0.119114 -0.950325
vn 0.021471 0.051835 -0.998425
vn 0.021471 0.051835 -0.998425
vn 0.021471 0.051835 -0.998425
vn 0.021471 0.051836 -0.998425
vn -0.021471 0.051836 -0.998425
vn -0.021471 0.051836 -0.998425
vn -0.021471 0.051836 -0.998425
vn -0.021470 0.051835 -0.998425
vn -0.051836 0.021471 -0.998425
vn -0.051836 0.021471 -0.998425
vn -0.051836 0.021471 -0.998425
vn -0.051836 0.021471 -0.998425
vn -0.051836 -0.021471 -0.998425
vn -0.051836 -0.021471 -0.998425
vn -0.051836 -0.021471 -0.998425
vn -0.051836 -0.021471 -0.998425
vn -0.021471 -0.051835 -0.998425
vn -0.021471 -0.051836 -0.998425
vn -0.021471 -0.051835 -0.998425
vn -0.021471 -0.051837 -0.998425
vn 0.021471 -0.051836 -0.998425
vn 0.021471 -0.051835 -0.998425
vn 0.021471 -0.051835 -0.998425
vn 0.021470 -0.051835 -0.998425
vn 0.051836 -0.021471 -0.998425
vn 0.051836 -0.021471 -0.998425
vn 0.051836 -0.021471 -0.998425
vn 0.051836 -0.021471 -0.998425
vn 0.051836 0.021471 -0.998425
vn 0.051836 0.021471 -0.998425
vn 0.051836 0.021471 -0.998425
vn 0.051835 0.021470 -0.998425
vn -0.021471 -0.051835 -0.998425
vn -0.021471 -0.051835 -0.998425
vn -0.021471 -0.051835 -0.998425
vn -0.021470 -0.051836 -0.998425
vn 0.021472 -0.051836 -0.998425
vn 0.021471 -0.051836 -0.998425
vn 0.021471 -0.051836 -0.998425
vn 0.021468 -0.051835 -0.998425
vn 0.051835 -0.021471 -0.998425
vn 0.051835 -0.021471 -0.998425
vn 0.051835 -0.021471 -0.998425
vn 0.051836 -0.021471 -0.998425
vn 0.051836 0.021471 -0.998425
vn 0.051836 0.021471 -0.998425
vn 0.051836 0.021471 -0.998425
vn 0.051835 0.021470 -0.998425
vn 0.021471 0.051835 -0.998425
vn 0.021471 0.051835 -0.998425
vn 0.021471 0.051836 -0.998425
vn 0.021470 0.051837 -0.998425
vn -0.021471 0.051835 -0.998425
vn -0.021471 0.051835 -0.998425
vn -0.021471 0.051835 -0.998425
vn -0.021470 0.051835 -0.998425
vn -0.051835 0.021472 -0.998425
vn -0.051835 0.021472 -0.998425
vn -0.051835 0.021472 -0.998425
vn -0.051837 0.021472 -0.998425
vn -0.051835 -0.021472 -0.998425
vn -0.051835 -0.021472 -0.998425
vn -0.051835 -0.021472 -0.998425
vn -0.051835 -0.021472 -0.998425
vn 0.000000 0.000000 0.000000
vn -0.119114 -0.287567 -0.950325
vn -0.119114 -0.287567 -0.950325
vn -0.119114 -0.287567 -0.950325
vn 0.000000 0.000000 0.000000
vn 0.119114 -0.287568 -0.950325
vn 0.119114 -0.287568 -0.950325
vn 0.119114 -0.287568 -0.950325
vn 0.000000 0.000000 0.000000
vn 0.287568 -0.119113 -0.950325
vn 0.287568 -0.119113 -0.950325
vn 0.287568 -0.119113 -0.950325
vn 0.000000 0.000000 0.000000
vn 0.287568 0.119113 -0.950325
vn 0.287568 0.119113 -0.950325
vn 0.287568 0.119113 -0.950325
vn 0.000000 0.000000 0.000000
vn 0.119114 0.287568 -0.950324
vn 0.119114 0.287568 -0.950324
vn 0.119114 0.287568 -0.950324
vn 0.000000 0.000000 0.000000
vn -0.119114 0.287567 -0.950325
vn -0.119114 0.287567 -0.950325
vn -0.119114 0.287567 -0.950325
vn 0.000000 0.000000 0.000000
vn -0.287567 0.119115 -0.950325
vn -0.287567 0.119115 -0.950325
vn -0.287567 0.119115 -0.950325
vn 0.000000 0.000000 0.000000
vn -0.287567 -0.119115 -0.950325
vn -0.287567 -0.119115 -0.950325
vn -0.287567 -0.119115 -0.950325
s 1
g RightSaw
usemtl initialShadingGroup
f 1/1/1 2/2/2 3/3/3
f 3/3/3 2/2/2 4/4/4
s 2
f 3/3/5 4/4/6 5/5/7
f 5/5/7 4/4/6 6/6/8
s 3
f 5/5/9 6/6/10 7/7/11
f 7/7/11 6/6/10 8/8/12
s 4
f 7/7/13 8/8/14 1/9/15
f 1/9/15 8/8/14 2/10/16
s 5
f 2/2/17 8/11/18 4/4/19
f 4/4/19 8/11/18 6/12/20
s 6
f 7/13/21 1/1/22 5/14/23
f 5/14/23 1/1/22 3/3/24
s 7
f 9/16/25 17/17/26 10/15/27
f 10/15/27 17/17/26 18/18/28
s 8
f 10/15/29 18/18/30 11/19/31
f 11/19/31 18/18/30 19/20/32
s 9
f 11/19/33 19/20/34 12/21/35
f 12/21/35 19/20/34 20/22/36
s 10
f 12/21/37 20/22/38 13/23/39
f 13/23/39 20/22/38 21/24/40
s 11
f 13/23/41 21/24/42 14/25/43
f 14/25/43 21/24/42 22/26/44
s 12
f 14/25/45 22/26/46 15/27/47
f 15/27/47 22/26/46 23/28/48
s 13
f 15/27/49 23/28/50 16/29/51
f 16/29/51 23/28/50 24/30/52
s 14
f 16/29/53 24/30/54 9/31/55
f 9/31/55 24/30/54 17/32/56
s 15
f 18/18/57 17/17/58 26/34/59
f 26/34/59 17/17/58 25/33/60
s 16
f 19/20/61 18/18/62 27/35/63
f 27/35/63 18/18/62 26/34/64
s 17
f 20/22/65 19/20/66 28/36/67
f 28/36/67 19/20/66 27/35/68
s 18
f 21/24/69 20/22/70 29/37/71
f 29/37/71 20/22/70 28/36/72
s 19
f 22/26/73 21/24/74 30/38/75
f 30/38/75 21/24/74 29/37/76
s 20
f 23/28/77 22/26/78 31/39/79
f 31/39/79 22/26/78 30/38/80
s 21
f 24/30/81 23/28/82 32/40/83
f 32/40/83 23/28/82 31/39/84
s 22
f 17/32/85 24/30/86 25/41/87
f 25/41/87 24/30/86 32/40/88
s 23
f 26/34/89 25/33/90 34/43/91
f 34/43/91 25/33/90 33/42/92
s 24
f 27/35/93 26/34/94 35/44/95
f 35/44/95 26/34/94 34/43/96
s 25
f 28/36/97 27/35/98 36/45/99
f 36/45/99 27/35/98 35/44/100
s 26
f 29/37/101 28/36/102 37/46/103
f 37/46/103 28/36/102 36/45/104
s 27
f 30/38/105 29/37/106 38/47/107
f 38/47/107 29/37/106 37/46/108
s 28
f 31/39/109 30/38/110 39/48/111
f 39/48/111 30/38/110 38/47/112
s 29
f 32/40/113 31/39/114 40/49/115
f 40/49/115 31/39/114 39/48/116
s 30
f 25/41/117 32/40/118 33/50/119
f 33/50/119 32/40/118 40/49/120
s 31
f 34/43/121 33/42/122 42/52/123
f 42/52/123 33/42/122 41/51/124
s 32
f 35/44/125 34/43/126 43/53/127
f 43/53/127 34/43/126 42/52/128
s 33
f 36/45/129 35/44/130 44/54/131
f 44/54/131 35/44/130 43/53/132
s 34
f 37/46/133 36/45/134 45/55/135
f 45/55/135 36/45/134 44/54/136
s 35
f 38/47/137 37/46/138 46/56/139
f 46/56/139 37/46/138 45/55/140
s 36
f 39/48/141 38/47/142 47/57/143
f 47/57/143 38/47/142 46/56/144
s 37
f 40/49/145 39/48/146 48/58/147
f 48/58/147 39/48/146 47/57/148
s 38
f 33/50/149 40/49/150 41/59/151
f 41/59/151 40/49/150 48/58/152
s 39
f 42/52/153 41/51/154 50/61/155
f 50/61/155 41/51/154 49/60/156
s 40
f 43/53/157 42/52/158 51/62/159
f 51/62/159 42/52/158 50/61/160
s 41
f 44/54/161 43/53/162 52/63/163
f 52/63/163 43/53/162 51/62/164
s 42
f 45/55/165 44/54/166 53/64/167
f 53/64/167 44/54/166 52/63/168
s 43
f 46/56/169 45/55/170 54/65/171
f 54/65/171 45/55/170 53/64/172
s 44
f 47/57/173 46/56/174 55/66/175
f 55/66/175 46/56/174 54/65/176
s 45
f 48/58/177 47/57/178 56/67/179
f 56/67/179 47/57/178 55/66/180
s 46
f 41/59/181 48/58/182 49/68/183
f 49/68/183 48/58/182 56/67/184
s 47
f 50/61/185 49/60/186 58/70/187
f 58/70/187 49/60/186 57/69/188
s 48
f 51/62/189 50/61/190 59/71/191
f 59/71/191 50/61/190 58/70/192
s 49
f 52/63/193 51/62/194 60/72/195
f 60/72/195 51/62/194 59/71/196
s 50
f 53/64/197 52/63/198 61/73/199
f 61/73/199 52/63/198 60/72/200
s 51
f 54/65/201 53/64/202 62/74/203
f 62/74/203 53/64/202 61/73/204
s 52
f 55/66/205 54/65/206 63/75/207
f 63/75/207 54/65/206 62/74/208
s 53
f 56/67/209 55/66/210 64/76/211
f 64/76/211 55/66/210 63/75/212
s 54
f 49/68/213 56/67/214 57/77/215
f 57/77/215 56/67/214 64/76/216
s 55
f 58/70/217 57/69/218 66/79/219
f 66/79/219 57/69/218 65/78/220
s 56
f 59/71/221 58/70/222 67/80/223
f 67/80/223 58/70/222 66/79/224
s 57
f 60/72/225 59/71/226 68/81/227
f 68/81/227 59/71/226 67/80/228
s 58
f 61/73/229 60/72/230 69/82/231
f 69/82/231 60/72/230 68/81/232
s 59
f 62/74/233 61/73/234 70/83/235
f 70/83/235 61/73/234 69/82/236
s 60
f 63/75/237 62/74/238 71/84/239
f 71/84/239 62/74/238 70/83/240
s 61
f 64/76/241 63/75/242 72/85/243
f 72/85/243 63/75/242 71/84/244
s 62
f 57/77/245 64/76/246 65/86/247
f 65/86/247 64/76/246 72/85/248
s 63
f 10/88/249 66/79/250 9/87/251
f 66/79/250 65/78/252 9/87/251
s 64
f 11/89/253 67/80/254 10/88/255
f 67/80/254 66/79/256 10/88/255
s 65
f 12/90/257 68/81/258 11/89/259
f 68/81/258 67/80/260 11/89/259
s 66
f 13/91/261 69/82/262 12/90/263
f 69/82/262 68/81/264 12/90/263
s 67
f 14/92/265 70/83/266 13/91/267
f 70/83/266 69/82/268 13/91/267
s 68
f 15/93/269 71/84/270 14/92/271
f 71/84/270 70/83/272 14/92/271
s 69
f 16/94/273 72/85/274 15/93/275
f 72/85/274 71/84/276 15/93/275
s 70
f 9/95/277 65/86/278 16/94/279
f 65/86/278 72/85/280 16/94/279
