# This file uses centimeters as units for non-parametric coordinates.

mtllib RetreiverLeftArm.mtl
g default
v -0.053660 0.009397 0.447764
v -0.094112 -0.019253 0.442710
v -0.025234 -0.031370 0.451339
v -0.065686 -0.060020 0.446284
v -0.027595 -0.036969 0.406258
v -0.068048 -0.065619 0.401204
v 0.001013 -0.027707 0.367723
v -0.044773 -0.061716 0.343969
v 0.038124 -0.003128 0.352926
v 0.009837 -0.027182 0.303545
v 0.002876 0.047422 0.348494
v -0.025411 0.023368 0.299113
v -0.034235 0.022842 0.363291
v -0.080021 -0.011167 0.339537
v -0.056022 0.003798 0.402684
v -0.096474 -0.024852 0.397629
v 0.007151 -0.026265 0.461962
v 0.055299 -0.035462 0.470903
v 0.017501 0.022108 0.455987
v 0.065648 0.012911 0.464927
v 0.033640 0.013510 0.414337
v 0.081788 0.004312 0.423277
v 0.017424 0.017462 0.368396
v 0.077288 0.003806 0.361533
v -0.020963 0.022402 0.341893
v 0.026350 0.007718 0.304973
v -0.033796 -0.037579 0.349303
v 0.013517 -0.052263 0.312383
v 0.004591 -0.042518 0.375805
v 0.064454 -0.056174 0.368943
v 0.023290 -0.034863 0.420312
v 0.071438 -0.044061 0.429252
v 0.014535 0.052067 0.448974
v 0.013584 0.101496 0.442758
v -0.035145 0.050665 0.445420
v -0.036096 0.100094 0.439205
v -0.032031 0.054830 0.400231
v -0.032982 0.104259 0.394015
v -0.034419 0.025077 0.361524
v -0.034218 0.081538 0.336439
v -0.032171 -0.019714 0.347774
v -0.029591 0.016160 0.297539
v 0.029431 -0.017975 0.352180
v 0.032011 0.017899 0.301944
v 0.027183 0.026816 0.365930
v 0.027383 0.083277 0.340845
v 0.017650 0.056233 0.403784
v 0.016699 0.105662 0.397568
v -0.021178 -0.021178 0.333882
v 0.021178 -0.021178 0.333882
v -0.021178 0.021178 0.333882
v 0.021178 0.021178 0.333882
v -0.021178 0.021178 0.000000
v 0.021178 0.021178 0.000000
v -0.021178 -0.021178 0.000000
v 0.021178 -0.021178 0.000000
vt 0.375000 0.000000
vt 0.625000 0.000000
vt 0.375000 0.250000
vt 0.625000 0.250000
vt 0.375000 0.333333
vt 0.625000 0.333333
vt 0.375000 0.416667
vt 0.625000 0.416667
vt 0.375000 0.500000
vt 0.625000 0.500000
vt 0.375000 0.750000
vt 0.625000 0.750000
vt 0.375000 0.833333
vt 0.625000 0.833333
vt 0.375000 0.916667
vt 0.625000 0.916667
vt 0.375000 1.000000
vt 0.625000 1.000000
vt 0.875000 0.000000
vt 0.791667 0.000000
vt 0.708333 0.000000
vt 0.875000 0.250000
vt 0.791667 0.250000
vt 0.708333 0.250000
vt 0.125000 0.000000
vt 0.208333 0.000000
vt 0.291667 0.000000
vt 0.125000 0.250000
vt 0.208333 0.250000
vt 0.291667 0.250000
vt 0.375000 0.000000
vt 0.625000 0.000000
vt 0.625000 0.250000
vt 0.375000 0.250000
vt 0.625000 0.333333
vt 0.375000 0.333333
vt 0.625000 0.416667
vt 0.375000 0.416667
vt 0.625000 0.500000
vt 0.375000 0.500000
vt 0.625000 0.750000
vt 0.375000 0.750000
vt 0.625000 0.833333
vt 0.375000 0.833333
vt 0.625000 0.916667
vt 0.375000 0.916667
vt 0.625000 1.000000
vt 0.375000 1.000000
vt 0.791667 0.000000
vt 0.875000 0.000000
vt 0.875000 0.250000
vt 0.791667 0.250000
vt 0.708333 0.000000
vt 0.708333 0.250000
vt 0.125000 0.000000
vt 0.208333 0.000000
vt 0.208333 0.250000
vt 0.125000 0.250000
vt 0.291667 0.000000
vt 0.291667 0.250000
vt 0.375000 0.000000
vt 0.625000 0.000000
vt 0.625000 0.250000
vt 0.375000 0.250000
vt 0.625000 0.333333
vt 0.375000 0.333333
vt 0.625000 0.416667
vt 0.375000 0.416667
vt 0.625000 0.500000
vt 0.375000 0.500000
vt 0.625000 0.750000
vt 0.375000 0.750000
vt 0.625000 0.833333
vt 0.375000 0.833333
vt 0.625000 0.916667
vt 0.375000 0.916667
vt 0.625000 1.000000
vt 0.375000 1.000000
vt 0.791667 0.000000
vt 0.875000 0.000000
vt 0.875000 0.250000
vt 0.791667 0.250000
vt 0.708333 0.000000
vt 0.708333 0.250000
vt 0.125000 0.000000
vt 0.208333 0.000000
vt 0.208333 0.250000
vt 0.125000 0.250000
vt 0.291667 0.000000
vt 0.291667 0.250000
vt 0.375000 0.000000
vt 0.625000 0.000000
vt 0.625000 0.250000
vt 0.375000 0.250000
vt 0.625000 0.500000
vt 0.375000 0.500000
vt 0.625000 0.750000
vt 0.375000 0.750000
vt 0.625000 1.000000
vt 0.375000 1.000000
vt 0.875000 0.000000
vt 0.875000 0.250000
vt 0.125000 0.000000
vt 0.125000 0.250000
vn -0.124242 0.000373 0.992252
vn -0.124242 0.000373 0.992252
vn -0.124242 0.000373 0.992252
vn -0.124243 0.000373 0.992252
vn 0.570495 -0.818162 0.071739
vn 0.570495 -0.818162 0.071740
vn 0.551812 -0.822594 0.137266
vn 0.562536 -0.816826 0.127865
vn 0.553850 -0.822271 0.130845
vn 0.555454 -0.824303 0.109523
vn 0.570495 -0.818162 0.071740
vn 0.570495 -0.818162 0.071740
vn 0.681850 0.423126 -0.596695
vn 0.681850 0.423126 -0.596694
vn 0.681850 0.423126 -0.596694
vn 0.681851 0.423126 -0.596694
vn -0.570495 0.818162 -0.071740
vn -0.570495 0.818162 -0.071740
vn -0.584571 0.810637 -0.033835
vn -0.584978 0.810955 -0.012363
vn -0.586517 0.809916 -0.005879
vn -0.576619 0.816868 -0.015383
vn -0.570494 0.818162 -0.071740
vn -0.570495 0.818162 -0.071740
vn -0.576347 -0.461042 -0.674733
vn -0.401433 -0.353982 -0.844718
vn -0.584776 -0.465979 -0.664003
vn -0.401432 -0.353983 -0.844718
vn -0.802791 -0.573946 -0.161595
vn -0.800499 -0.573454 -0.174215
vn -0.819658 -0.561656 0.112704
vn -0.819659 -0.561656 0.112704
vn 0.220503 0.236722 0.946225
vn 0.444179 0.380829 0.810971
vn 0.220502 0.236722 0.946225
vn 0.432865 0.373761 0.820324
vn 0.767729 0.562274 0.307309
vn 0.774823 0.565120 0.283352
vn 0.819659 0.561656 -0.112704
vn 0.819658 0.561657 -0.112704
vn -0.152053 0.153154 0.976434
vn -0.152053 0.153154 0.976434
vn -0.152053 0.153154 0.976434
vn -0.152052 0.153154 0.976434
vn 0.207717 0.970810 -0.119925
vn 0.207717 0.970810 -0.119925
vn 0.207689 0.976817 -0.051909
vn 0.198764 0.977930 -0.064388
vn 0.207638 0.976446 -0.058642
vn 0.213065 0.973818 -0.079257
vn 0.207717 0.970810 -0.119925
vn 0.207717 0.970810 -0.119925
vn -0.608627 0.032288 -0.792799
vn -0.608627 0.032288 -0.792799
vn -0.608627 0.032288 -0.792799
vn -0.608627 0.032288 -0.792799
vn -0.207717 -0.970810 0.119925
vn -0.207717 -0.970810 0.119925
vn -0.202017 -0.966159 0.160391
vn -0.207008 -0.961497 0.180754
vn -0.206775 -0.960277 0.187383
vn -0.216001 -0.960568 0.175077
vn -0.207717 -0.970810 0.119925
vn -0.207717 -0.970810 0.119925
vn 0.865372 -0.239533 -0.440177
vn 0.714277 -0.234295 -0.659480
vn 0.871899 -0.239328 -0.427218
vn 0.714277 -0.234295 -0.659480
vn 0.973758 -0.193559 0.119712
vn 0.974871 -0.195362 0.107052
vn 0.911571 -0.147641 0.383719
vn 0.911571 -0.147641 0.383719
vn -0.535863 0.215498 0.816340
vn -0.753522 0.236977 0.613226
vn -0.535864 0.215498 0.816340
vn -0.743261 0.236343 0.625864
vn -0.976697 0.212605 0.029375
vn -0.977746 0.209746 0.004414
vn -0.911572 0.147640 -0.383718
vn -0.911572 0.147640 -0.383718
vn -0.074251 0.123011 0.989624
vn -0.074252 0.123011 0.989624
vn -0.074252 0.123011 0.989624
vn -0.074252 0.123011 0.989624
vn -0.997057 -0.028146 -0.071310
vn -0.997057 -0.028146 -0.071310
vn -0.999944 -0.008817 -0.005886
vn -0.999663 -0.021129 -0.015104
vn -0.999866 -0.010824 -0.012324
vn -0.999363 -0.011466 -0.033787
vn -0.997057 -0.028146 -0.071310
vn -0.997057 -0.028146 -0.071310
vn 0.064291 -0.813672 -0.577759
vn 0.064291 -0.813672 -0.577759
vn 0.064291 -0.813672 -0.577759
vn 0.064290 -0.813672 -0.577758
vn 0.997057 0.028145 0.071310
vn 0.997057 0.028146 0.071310
vn 0.993064 0.044778 0.108713
vn 0.990472 0.045361 0.130027
vn 0.989522 0.047344 0.136402
vn 0.991246 0.035072 0.127287
vn 0.997057 0.028145 0.071310
vn 0.997057 0.028145 0.071310
vn 0.029115 0.721467 -0.691836
vn 0.046804 0.513221 -0.856979
vn 0.028082 0.731431 -0.681337
vn 0.046804 0.513221 -0.856979
vn -0.014531 0.982689 -0.184693
vn -0.013563 0.980258 -0.197259
vn -0.034492 0.995400 0.089378
vn -0.034491 0.995400 0.089378
vn -0.059842 -0.295687 0.953409
vn -0.043033 -0.564336 0.824423
vn -0.059842 -0.295688 0.953408
vn -0.044061 -0.550820 0.833460
vn 0.003083 -0.944136 0.329542
vn 0.005009 -0.952094 0.305764
vn 0.034491 -0.995400 -0.089378
vn 0.034491 -0.995400 -0.089377
vn 0.000000 0.000000 1.000000
vn 0.000000 0.000000 1.000000
vn 0.000000 0.000000 1.000000
vn 0.000000 0.000000 1.000000
vn 0.000000 1.000000 0.000000
vn 0.000000 1.000000 0.000000
vn 0.000000 1.000000 0.000000
vn 0.000000 1.000000 0.000000
vn -0.000000 0.000000 -1.000000
vn -0.000000 0.000000 -1.000000
vn -0.000000 0.000000 -1.000000
vn -0.000000 0.000000 -1.000000
vn 0.000000 -1.000000 0.000000
vn 0.000000 -1.000000 -0.000000
vn 0.000000 -1.000000 -0.000000
vn 0.000000 -1.000000 -0.000000
vn 1.000000 0.000000 0.000000
vn 1.000000 0.000000 0.000000
vn 1.000000 0.000000 0.000000
vn 1.000000 0.000000 0.000000
vn -1.000000 0.000000 0.000000
vn -1.000000 0.000000 0.000000
vn -1.000000 0.000000 0.000000
vn -1.000000 0.000000 0.000000
s 1
g LeftArm
usemtl initialShadingGroup
f 1/1/1 2/2/2 3/3/3
f 3/3/3 2/2/2 4/4/4
s 2
f 3/3/5 4/4/6 5/5/7
f 5/5/7 4/4/6 6/6/8
f 6/6/8 8/8/9 5/5/7
f 5/5/7 8/8/9 7/7/10
f 8/8/9 10/10/11 7/7/10
f 7/7/10 10/10/11 9/9/12
s 3
f 9/9/13 10/10/14 11/11/15
f 11/11/15 10/10/14 12/12/16
s 4
f 11/11/17 12/12/18 13/13/19
f 13/13/19 12/12/18 14/14/20
f 13/13/19 14/14/20 15/15/21
f 15/15/21 14/14/20 16/16/22
f 16/16/22 2/18/23 15/15/21
f 15/15/21 2/18/23 1/17/24
s 5
f 14/20/25 12/19/26 8/23/27
f 8/23/27 12/19/26 10/22/28
f 16/21/29 14/20/25 6/24/30
f 6/24/30 14/20/25 8/23/27
f 2/2/31 16/21/29 4/4/32
f 4/4/32 16/21/29 6/24/30
s 6
f 11/25/33 13/26/34 9/28/35
f 9/28/35 13/26/34 7/29/36
f 13/26/34 15/27/37 7/29/36
f 7/29/36 15/27/37 5/30/38
f 15/27/37 1/1/39 5/30/38
f 5/30/38 1/1/39 3/3/40
s 7
f 17/31/41 18/32/42 19/34/43
f 19/34/43 18/32/42 20/33/44
s 8
f 19/34/45 20/33/46 21/36/47
f 21/36/47 20/33/46 22/35/48
f 22/35/48 24/37/49 21/36/47
f 21/36/47 24/37/49 23/38/50
f 24/37/49 26/39/51 23/38/50
f 23/38/50 26/39/51 25/40/52
s 9
f 25/40/53 26/39/54 27/42/55
f 27/42/55 26/39/54 28/41/56
s 10
f 27/42/57 28/41/58 29/44/59
f 29/44/59 28/41/58 30/43/60
f 29/44/59 30/43/60 31/46/61
f 31/46/61 30/43/60 32/45/62
f 32/45/62 18/47/63 31/46/61
f 31/46/61 18/47/63 17/48/64
s 11
f 30/49/65 28/50/66 24/52/67
f 24/52/67 28/50/66 26/51/68
f 32/53/69 30/49/65 22/54/70
f 22/54/70 30/49/65 24/52/67
f 18/32/71 32/53/69 20/33/72
f 20/33/72 32/53/69 22/54/70
s 12
f 27/55/73 29/56/74 25/58/75
f 25/58/75 29/56/74 23/57/76
f 29/56/74 31/59/77 23/57/76
f 23/57/76 31/59/77 21/60/78
f 31/59/77 17/31/79 21/60/78
f 21/60/78 17/31/79 19/34/80
s 13
f 33/61/81 34/62/82 35/64/83
f 35/64/83 34/62/82 36/63/84
s 14
f 35/64/85 36/63/86 37/66/87
f 37/66/87 36/63/86 38/65/88
f 38/65/88 40/67/89 37/66/87
f 37/66/87 40/67/89 39/68/90
f 40/67/89 42/69/91 39/68/90
f 39/68/90 42/69/91 41/70/92
s 15
f 41/70/93 42/69/94 43/72/95
f 43/72/95 42/69/94 44/71/96
s 16
f 43/72/97 44/71/98 45/74/99
f 45/74/99 44/71/98 46/73/100
f 45/74/99 46/73/100 47/76/101
f 47/76/101 46/73/100 48/75/102
f 48/75/102 34/77/103 47/76/101
f 47/76/101 34/77/103 33/78/104
s 17
f 46/79/105 44/80/106 40/82/107
f 40/82/107 44/80/106 42/81/108
f 48/83/109 46/79/105 38/84/110
f 38/84/110 46/79/105 40/82/107
f 34/62/111 48/83/109 36/63/112
f 36/63/112 48/83/109 38/84/110
s 18
f 43/85/113 45/86/114 41/88/115
f 41/88/115 45/86/114 39/87/116
f 45/86/114 47/89/117 39/87/116
f 39/87/116 47/89/117 37/90/118
f 47/89/117 33/61/119 37/90/118
f 37/90/118 33/61/119 35/64/120
s 19
f 49/91/121 50/92/122 51/94/123
f 51/94/123 50/92/122 52/93/124
s 20
f 51/94/125 52/93/126 53/96/127
f 53/96/127 52/93/126 54/95/128
s 21
f 53/96/129 54/95/130 55/98/131
f 55/98/131 54/95/130 56/97/132
s 22
f 55/98/133 56/97/134 49/100/135
f 49/100/135 56/97/134 50/99/136
s 23
f 50/92/137 56/101/138 52/93/139
f 52/93/139 56/101/138 54/102/140
s 24
f 55/103/141 49/91/142 53/104/143
f 53/104/143 49/91/142 51/94/144
