# This file uses centimeters as units for non-parametric coordinates.

mtllib UndergroundDoor.mtl
g default
v -102.162781 0.050000 -103.958382
v -100.162781 0.050000 -103.958382
v -102.162781 0.050000 -105.958382
v -100.162781 0.050000 -105.958382
vt 0.000000 0.000000
vt 1.000000 0.000000
vt 0.000000 1.000000
vt 1.000000 1.000000
vn 0.000000 1.000000 0.000000
vn 0.000000 1.000000 0.000000
vn 0.000000 1.000000 0.000000
vn 0.000000 1.000000 0.000000
vn 0.000000 1.000000 0.000000
vn 0.000000 1.000000 0.000000
s off
g UndergroundDoor:pPlane2
usemtl initialShadingGroup
f 1/1/1 2/2/2 3/3/3
f 3/3/4 2/2/5 4/4/6
