# This file uses centimeters as units for non-parametric coordinates.

mtllib UndergroundDoor.mtl
g default
v -86.162781 -0.950000 -66.408394
v -88.162781 -0.950000 -66.408394
v -86.162781 3.050000 -66.408394
v -88.162781 3.050000 -66.408394
vt 0.000000 0.000000
vt 1.000000 0.000000
vt 0.000000 1.000000
vt 1.000000 1.000000
vn -0.000000 -0.000000 -1.000000
vn -0.000000 -0.000000 -1.000000
vn -0.000000 -0.000000 -1.000000
vn -0.000000 -0.000000 -1.000000
vn -0.000000 -0.000000 -1.000000
vn -0.000000 -0.000000 -1.000000
s off
g UndergroundDoor:pPlane2
usemtl initialShadingGroup
f 1/1/1 2/2/2 3/3/3
f 3/3/4 2/2/5 4/4/6
