# This file uses centimeters as units for non-parametric coordinates.

mtllib Walls11.mtl
g default
v 25.870712 0.000000 24.971075
v 25.697351 0.000000 24.638054
v 25.429567 0.000000 24.374901
v 25.093571 0.000000 24.207382
v 24.722250 0.000000 24.151886
v 24.351957 0.000000 24.213854
v 24.018934 0.000000 24.387211
v 23.755783 0.000000 24.654997
v 23.588263 0.000000 24.990993
v 23.532766 0.000000 25.362314
v 23.594734 0.000000 25.732607
v 23.768095 0.000000 26.065630
v 24.035877 0.000000 26.328779
v 24.371876 0.000000 26.496302
v 24.743195 0.000000 26.551796
v 25.113489 0.000000 26.489830
v 25.446508 0.000000 26.316469
v 25.709663 0.000000 26.048687
v 25.877184 0.000000 25.712688
v 25.932676 0.000000 25.341370
v 25.870712 5.000000 24.971075
v 25.697351 5.000000 24.638054
v 25.429567 5.000000 24.374901
v 25.093571 5.000000 24.207382
v 24.722250 5.000000 24.151886
v 24.351957 5.000000 24.213854
v 24.018934 5.000000 24.387211
v 23.755783 5.000000 24.654997
v 23.588263 5.000000 24.990993
v 23.532766 5.000000 25.362314
v 23.594734 5.000000 25.732607
v 23.768095 5.000000 26.065630
v 24.035877 5.000000 26.328779
v 24.371876 5.000000 26.496302
v 24.743195 5.000000 26.551796
v 25.113489 5.000000 26.489830
v 25.446508 5.000000 26.316469
v 25.709663 5.000000 26.048687
v 25.877184 5.000000 25.712688
v 25.932676 5.000000 25.341370
v 24.732721 0.000000 25.351841
v 24.732721 5.000000 25.351841
v 26.344006 0.000000 44.708202
v 26.170645 0.000000 44.375179
v 25.902861 0.000000 44.112022
v 25.566864 0.000000 43.944500
v 25.195543 0.000000 43.889011
v 24.825251 0.000000 43.950974
v 24.492228 0.000000 44.124332
v 24.229076 0.000000 44.392120
v 24.061556 0.000000 44.728119
v 24.006062 0.000000 45.099438
v 24.068027 0.000000 45.469727
v 24.241388 0.000000 45.802750
v 24.509171 0.000000 46.065903
v 24.845169 0.000000 46.233425
v 25.216488 0.000000 46.288921
v 25.586782 0.000000 46.226952
v 25.919804 0.000000 46.053593
v 26.182955 0.000000 45.785809
v 26.350477 0.000000 45.449810
v 26.405972 0.000000 45.078491
v 26.344006 5.000000 44.708202
v 26.170645 5.000000 44.375179
v 25.902861 5.000000 44.112022
v 25.566864 5.000000 43.944500
v 25.195543 5.000000 43.889011
v 24.825251 5.000000 43.950974
v 24.492228 5.000000 44.124332
v 24.229076 5.000000 44.392120
v 24.061556 5.000000 44.728119
v 24.006062 5.000000 45.099438
v 24.068027 5.000000 45.469727
v 24.241388 5.000000 45.802750
v 24.509171 5.000000 46.065903
v 24.845169 5.000000 46.233425
v 25.216488 5.000000 46.288921
v 25.586782 5.000000 46.226952
v 25.919804 5.000000 46.053593
v 26.182955 5.000000 45.785809
v 26.350477 5.000000 45.449810
v 26.405972 5.000000 45.078491
v 25.206017 0.000000 45.088966
v 25.206017 5.000000 45.088966
v 24.589722 0.000000 45.503708
v 25.589684 0.000000 45.494980
v 24.589722 5.000000 45.503708
v 25.589684 5.000000 45.494980
v 24.406466 5.000000 24.504503
v 25.406427 5.000000 24.495777
v 24.406466 0.000000 24.504503
v 25.406427 0.000000 24.495777
vt 0.375000 0.312500
vt 0.387500 0.312500
vt 0.375000 0.688440
vt 0.387500 0.688440
vt 0.400000 0.312500
vt 0.400000 0.688440
vt 0.412500 0.312500
vt 0.412500 0.688440
vt 0.425000 0.312500
vt 0.425000 0.688440
vt 0.437500 0.312500
vt 0.437500 0.688440
vt 0.450000 0.312500
vt 0.450000 0.688440
vt 0.462500 0.312500
vt 0.462500 0.688440
vt 0.475000 0.312500
vt 0.475000 0.688440
vt 0.487500 0.312500
vt 0.487500 0.688440
vt 0.500000 0.312500
vt 0.500000 0.688440
vt 0.512500 0.312500
vt 0.512500 0.688440
vt 0.525000 0.312500
vt 0.525000 0.688440
vt 0.537500 0.312500
vt 0.537500 0.688440
vt 0.550000 0.312500
vt 0.550000 0.688440
vt 0.562500 0.312500
vt 0.562500 0.688440
vt 0.575000 0.312500
vt 0.575000 0.688440
vt 0.587500 0.312500
vt 0.587500 0.688440
vt 0.600000 0.312500
vt 0.600000 0.688440
vt 0.612500 0.312500
vt 0.612500 0.688440
vt 0.625000 0.312500
vt 0.625000 0.688440
vt 0.626409 0.064408
vt 0.648603 0.107966
vt 0.500000 0.150000
vt 0.591842 0.029841
vt 0.548284 0.007647
vt 0.500000 -0.000000
vt 0.451716 0.007647
vt 0.408159 0.029841
vt 0.373591 0.064409
vt 0.351397 0.107966
vt 0.343750 0.156250
vt 0.351397 0.204534
vt 0.373591 0.248091
vt 0.408159 0.282659
vt 0.451716 0.304853
vt 0.500000 0.312500
vt 0.548284 0.304853
vt 0.591841 0.282659
vt 0.626409 0.248091
vt 0.648603 0.204534
vt 0.656250 0.156250
vt 0.648603 0.892034
vt 0.626409 0.935591
vt 0.500000 0.837500
vt 0.591841 0.970159
vt 0.548284 0.992353
vt 0.500000 1.000000
vt 0.451716 0.992353
vt 0.408159 0.970159
vt 0.373591 0.935591
vt 0.351397 0.892034
vt 0.343750 0.843750
vt 0.351397 0.795466
vt 0.373591 0.751909
vt 0.408159 0.717341
vt 0.451716 0.695147
vt 0.500000 0.687500
vt 0.548284 0.695147
vt 0.591842 0.717341
vt 0.626409 0.751908
vt 0.648603 0.795466
vt 0.656250 0.843750
vt 0.375000 0.312500
vt 0.387500 0.312500
vt 0.375000 0.688440
vt 0.387500 0.688440
vt 0.400000 0.312500
vt 0.400000 0.688440
vt 0.412500 0.312500
vt 0.412500 0.688440
vt 0.425000 0.312500
vt 0.425000 0.688440
vt 0.437500 0.312500
vt 0.437500 0.688440
vt 0.450000 0.312500
vt 0.450000 0.688440
vt 0.462500 0.312500
vt 0.462500 0.688440
vt 0.475000 0.312500
vt 0.475000 0.688440
vt 0.487500 0.312500
vt 0.487500 0.688440
vt 0.500000 0.312500
vt 0.500000 0.688440
vt 0.512500 0.312500
vt 0.512500 0.688440
vt 0.525000 0.312500
vt 0.525000 0.688440
vt 0.537500 0.312500
vt 0.537500 0.688440
vt 0.550000 0.312500
vt 0.550000 0.688440
vt 0.562500 0.312500
vt 0.562500 0.688440
vt 0.575000 0.312500
vt 0.575000 0.688440
vt 0.587500 0.312500
vt 0.587500 0.688440
vt 0.600000 0.312500
vt 0.600000 0.688440
vt 0.612500 0.312500
vt 0.612500 0.688440
vt 0.625000 0.312500
vt 0.625000 0.688440
vt 0.626409 0.064408
vt 0.648603 0.107966
vt 0.500000 0.150000
vt 0.591842 0.029841
vt 0.548284 0.007647
vt 0.500000 -0.000000
vt 0.451716 0.007647
vt 0.408159 0.029841
vt 0.373591 0.064409
vt 0.351397 0.107966
vt 0.343750 0.156250
vt 0.351397 0.204534
vt 0.373591 0.248091
vt 0.408159 0.282659
vt 0.451716 0.304853
vt 0.500000 0.312500
vt 0.548284 0.304853
vt 0.591841 0.282659
vt 0.626409 0.248091
vt 0.648603 0.204534
vt 0.656250 0.156250
vt 0.648603 0.892034
vt 0.626409 0.935591
vt 0.500000 0.837500
vt 0.591841 0.970159
vt 0.548284 0.992353
vt 0.500000 1.000000
vt 0.451716 0.992353
vt 0.408159 0.970159
vt 0.373591 0.935591
vt 0.351397 0.892034
vt 0.343750 0.843750
vt 0.351397 0.795466
vt 0.373591 0.751909
vt 0.408159 0.717341
vt 0.451716 0.695147
vt 0.500000 0.687500
vt 0.548284 0.695147
vt 0.591842 0.717341
vt 0.626409 0.751908
vt 0.648603 0.795466
vt 0.656250 0.843750
vt 0.006267 0.370594
vt 0.989285 0.370594
vt 0.006267 0.620923
vt 0.989285 0.620923
vt 0.012309 0.372444
vt 0.902239 0.372444
vt 0.012309 0.621931
vt 0.990254 0.621931
vt 0.016373 0.373582
vt 0.986511 0.373582
vt 0.016373 0.620213
vt 0.986511 0.620213
vt 0.018284 0.372256
vt 0.978128 0.372256
vt 0.018284 0.619080
vt 0.978128 0.619080
vt 0.007514 0.370572
vt 0.989405 0.370572
vt 0.007514 0.622926
vt 0.989405 0.622926
vt 0.014839 0.370059
vt 0.983766 0.370059
vt 0.014839 0.619314
vt 0.983766 0.619314
vn 0.948324 0.000000 -0.317304
vn 0.803857 0.000000 -0.594823
vn 0.948324 0.000000 -0.317303
vn 0.803858 0.000000 -0.594821
vn 0.580704 0.000000 -0.814115
vn 0.580701 0.000000 -0.814117
vn 0.300706 0.000000 -0.953717
vn 0.300702 0.000000 -0.953718
vn -0.008723 0.000000 -0.999962
vn -0.008727 0.000000 -0.999962
vn -0.317306 0.000000 -0.948323
vn -0.317299 0.000000 -0.948326
vn -0.594823 0.000000 -0.803856
vn -0.594818 0.000000 -0.803860
vn -0.814116 0.000000 -0.580702
vn -0.814119 0.000000 -0.580698
vn -0.953717 0.000000 -0.300707
vn -0.953717 0.000000 -0.300706
vn -0.999962 0.000000 0.008726
vn -0.999962 0.000000 0.008726
vn -0.948322 0.000000 0.317308
vn -0.948323 0.000000 0.317306
vn -0.803855 0.000000 0.594825
vn -0.803858 0.000000 0.594821
vn -0.580701 0.000000 0.814117
vn -0.580701 0.000000 0.814117
vn -0.300706 0.000000 0.953717
vn -0.300706 0.000000 0.953717
vn 0.008723 0.000000 0.999962
vn 0.008724 0.000000 0.999962
vn 0.317307 0.000000 0.948323
vn 0.317300 0.000000 0.948325
vn 0.594821 0.000000 0.803858
vn 0.594821 0.000000 0.803858
vn 0.814113 0.000000 0.580707
vn 0.814115 0.000000 0.580703
vn 0.953718 0.000000 0.300701
vn 0.953718 0.000000 0.300701
vn 0.999962 0.000000 -0.008726
vn 0.999962 0.000000 -0.008726
vn 0.000000 -1.000000 0.000000
vn 0.000000 -1.000000 0.000000
vn 0.000000 -1.000000 0.000000
vn 0.000000 -1.000000 0.000000
vn 0.000000 -1.000000 0.000000
vn 0.000000 -1.000000 0.000000
vn 0.000000 -1.000000 0.000000
vn 0.000000 -1.000000 0.000000
vn 0.000000 -1.000000 0.000000
vn 0.000000 -1.000000 0.000000
vn 0.000000 -1.000000 0.000000
vn 0.000000 -1.000000 0.000000
vn 0.000000 -1.000000 0.000000
vn 0.000000 -1.000000 0.000000
vn 0.000000 -1.000000 0.000000
vn 0.000000 -1.000000 0.000000
vn 0.000000 -1.000000 0.000000
vn 0.000000 -1.000000 0.000000
vn 0.000000 -1.000000 0.000000
vn 0.000000 -1.000000 0.000000
vn 0.000000 -1.000000 0.000000
vn 0.000000 1.000000 0.000000
vn 0.000000 1.000000 0.000000
vn 0.000000 1.000000 0.000000
vn 0.000000 1.000000 0.000000
vn 0.000000 1.000000 0.000000
vn 0.000000 1.000000 0.000000
vn 0.000000 1.000000 0.000000
vn 0.000000 1.000000 0.000000
vn 0.000000 1.000000 0.000000
vn 0.000000 1.000000 0.000000
vn 0.000000 1.000000 0.000000
vn 0.000000 1.000000 0.000000
vn 0.000000 1.000000 0.000000
vn 0.000000 1.000000 0.000000
vn 0.000000 1.000000 0.000000
vn 0.000000 1.000000 0.000000
vn 0.000000 1.000000 0.000000
vn 0.000000 1.000000 0.000000
vn 0.000000 1.000000 0.000000
vn 0.000000 1.000000 0.000000
vn 0.000000 1.000000 0.000000
vn 0.948323 0.000000 -0.317306
vn 0.803866 0.000000 -0.594811
vn 0.948322 0.000000 -0.317308
vn 0.803854 0.000000 -0.594826
vn 0.580722 0.000000 -0.814102
vn 0.580696 0.000000 -0.814121
vn 0.300713 0.000000 -0.953715
vn 0.300691 0.000000 -0.953722
vn -0.008716 0.000000 -0.999962
vn -0.008739 0.000000 -0.999962
vn -0.317292 0.000000 -0.948328
vn -0.317306 0.000000 -0.948323
vn -0.594821 0.000000 -0.803858
vn -0.594826 0.000000 -0.803854
vn -0.814118 0.000000 -0.580700
vn -0.814120 0.000000 -0.580696
vn -0.953718 0.000000 -0.300701
vn -0.953717 0.000000 -0.300706
vn -0.999962 0.000000 0.008726
vn -0.999962 0.000000 0.008726
vn -0.948322 0.000000 0.317308
vn -0.948323 0.000000 0.317306
vn -0.803858 0.000000 0.594821
vn -0.803861 0.000000 0.594817
vn -0.580706 0.000000 0.814113
vn -0.580706 0.000000 0.814113
vn -0.300706 0.000000 0.953717
vn -0.300713 0.000000 0.953715
vn 0.008739 0.000000 0.999962
vn 0.008716 0.000000 0.999962
vn 0.317313 0.000000 0.948321
vn 0.317306 0.000000 0.948323
vn 0.594817 0.000000 0.803861
vn 0.594827 0.000000 0.803853
vn 0.814114 0.000000 0.580705
vn 0.814116 0.000000 0.580702
vn 0.953716 0.000000 0.300708
vn 0.953718 0.000000 0.300704
vn 0.999962 0.000000 -0.008726
vn 0.999962 0.000000 -0.008726
vn 0.000000 -1.000000 0.000000
vn 0.000000 -1.000000 0.000000
vn 0.000000 -1.000000 0.000000
vn 0.000000 -1.000000 0.000000
vn 0.000000 -1.000000 0.000000
vn 0.000000 -1.000000 0.000000
vn 0.000000 -1.000000 0.000000
vn 0.000000 -1.000000 0.000000
vn 0.000000 -1.000000 0.000000
vn 0.000000 -1.000000 0.000000
vn 0.000000 -1.000000 0.000000
vn 0.000000 -1.000000 0.000000
vn 0.000000 -1.000000 0.000000
vn 0.000000 -1.000000 0.000000
vn 0.000000 -1.000000 0.000000
vn 0.000000 -1.000000 0.000000
vn 0.000000 -1.000000 0.000000
vn 0.000000 -1.000000 0.000000
vn 0.000000 -1.000000 0.000000
vn 0.000000 -1.000000 0.000000
vn 0.000000 -1.000000 0.000000
vn 0.000000 1.000000 0.000000
vn 0.000000 1.000000 0.000000
vn 0.000000 1.000000 0.000000
vn 0.000000 1.000000 0.000000
vn 0.000000 1.000000 0.000000
vn 0.000000 1.000000 0.000000
vn 0.000000 1.000000 0.000000
vn 0.000000 1.000000 0.000000
vn 0.000000 1.000000 0.000000
vn 0.000000 1.000000 0.000000
vn 0.000000 1.000000 0.000000
vn 0.000000 1.000000 0.000000
vn 0.000000 1.000000 0.000000
vn 0.000000 1.000000 0.000000
vn 0.000000 1.000000 0.000000
vn 0.000000 1.000000 0.000000
vn 0.000000 1.000000 0.000000
vn 0.000000 1.000000 0.000000
vn 0.000000 1.000000 0.000000
vn 0.000000 1.000000 0.000000
vn 0.000000 1.000000 0.000000
vn 0.008728 0.000000 0.999962
vn 0.008728 0.000000 0.999962
vn 0.008728 0.000000 0.999962
vn 0.008728 0.000000 0.999962
vn 0.000000 1.000000 0.000000
vn 0.000000 1.000000 0.000000
vn 0.000000 1.000000 0.000000
vn 0.000000 1.000000 0.000000
vn -0.008725 0.000000 -0.999962
vn -0.008725 0.000000 -0.999962
vn -0.008728 0.000000 -0.999962
vn -0.008728 0.000000 -0.999962
vn 0.000000 -1.000000 0.000000
vn 0.000000 -1.000000 0.000000
vn 0.000000 -1.000000 0.000000
vn 0.000000 -1.000000 0.000000
vn 0.999962 0.000000 -0.008726
vn 0.999962 0.000000 -0.008726
vn 0.999962 0.000000 -0.008726
vn 0.999962 0.000000 -0.008726
vn -0.999962 0.000000 0.008726
vn -0.999962 0.000000 0.008726
vn -0.999962 0.000000 0.008726
vn -0.999962 0.000000 0.008726
s 1
g polySurface75
usemtl initialShadingGroup
f 1/1/1 2/2/2 21/3/3
f 21/3/3 2/2/2 22/4/4
f 2/2/2 3/5/5 22/4/4
f 22/4/4 3/5/5 23/6/6
f 3/5/5 4/7/7 23/6/6
f 23/6/6 4/7/7 24/8/8
f 4/7/7 5/9/9 24/8/8
f 24/8/8 5/9/9 25/10/10
f 5/9/9 6/11/11 25/10/10
f 25/10/10 6/11/11 26/12/12
f 6/11/11 7/13/13 26/12/12
f 26/12/12 7/13/13 27/14/14
f 7/13/13 8/15/15 27/14/14
f 27/14/14 8/15/15 28/16/16
f 8/15/15 9/17/17 28/16/16
f 28/16/16 9/17/17 29/18/18
f 9/17/17 10/19/19 29/18/18
f 29/18/18 10/19/19 30/20/20
f 10/19/19 11/21/21 30/20/20
f 30/20/20 11/21/21 31/22/22
f 11/21/21 12/23/23 31/22/22
f 31/22/22 12/23/23 32/24/24
f 12/23/23 13/25/25 32/24/24
f 32/24/24 13/25/25 33/26/26
f 13/25/25 14/27/27 33/26/26
f 33/26/26 14/27/27 34/28/28
f 14/27/27 15/29/29 34/28/28
f 34/28/28 15/29/29 35/30/30
f 15/29/29 16/31/31 35/30/30
f 35/30/30 16/31/31 36/32/32
f 16/31/31 17/33/33 36/32/32
f 36/32/32 17/33/33 37/34/34
f 17/33/33 18/35/35 37/34/34
f 37/34/34 18/35/35 38/36/36
f 18/35/35 19/37/37 38/36/36
f 38/36/36 19/37/37 39/38/38
f 19/37/37 20/39/39 39/38/38
f 39/38/38 20/39/39 40/40/40
f 20/39/39 1/41/1 40/40/40
f 40/40/40 1/41/1 21/42/3
s 2
f 2/43/41 1/44/42 41/45/43
f 3/46/44 2/43/41 41/45/43
f 4/47/45 3/46/44 41/45/43
f 5/48/46 4/47/45 41/45/43
f 6/49/47 5/48/46 41/45/43
f 7/50/48 6/49/47 41/45/43
f 8/51/49 7/50/48 41/45/43
f 9/52/50 8/51/49 41/45/43
f 10/53/51 9/52/50 41/45/43
f 11/54/52 10/53/51 41/45/43
f 12/55/53 11/54/52 41/45/43
f 13/56/54 12/55/53 41/45/43
f 14/57/55 13/56/54 41/45/43
f 15/58/56 14/57/55 41/45/43
f 16/59/57 15/58/56 41/45/43
f 17/60/58 16/59/57 41/45/43
f 18/61/59 17/60/58 41/45/43
f 19/62/60 18/61/59 41/45/43
f 20/63/61 19/62/60 41/45/43
f 1/44/42 20/63/61 41/45/43
s 3
f 21/64/62 22/65/63 42/66/64
f 22/65/63 23/67/65 42/66/64
f 23/67/65 24/68/66 42/66/64
f 24/68/66 25/69/67 42/66/64
f 25/69/67 26/70/68 42/66/64
f 26/70/68 27/71/69 42/66/64
f 27/71/69 28/72/70 42/66/64
f 28/72/70 29/73/71 42/66/64
f 29/73/71 30/74/72 42/66/64
f 30/74/72 31/75/73 42/66/64
f 31/75/73 32/76/74 42/66/64
f 32/76/74 33/77/75 42/66/64
f 33/77/75 34/78/76 42/66/64
f 34/78/76 35/79/77 42/66/64
f 35/79/77 36/80/78 42/66/64
f 36/80/78 37/81/79 42/66/64
f 37/81/79 38/82/80 42/66/64
f 38/82/80 39/83/81 42/66/64
f 39/83/81 40/84/82 42/66/64
f 40/84/82 21/64/62 42/66/64
s 4
f 43/85/83 44/86/84 63/87/85
f 63/87/85 44/86/84 64/88/86
f 44/86/84 45/89/87 64/88/86
f 64/88/86 45/89/87 65/90/88
f 45/89/87 46/91/89 65/90/88
f 65/90/88 46/91/89 66/92/90
f 46/91/89 47/93/91 66/92/90
f 66/92/90 47/93/91 67/94/92
f 47/93/91 48/95/93 67/94/92
f 67/94/92 48/95/93 68/96/94
f 48/95/93 49/97/95 68/96/94
f 68/96/94 49/97/95 69/98/96
f 49/97/95 50/99/97 69/98/96
f 69/98/96 50/99/97 70/100/98
f 50/99/97 51/101/99 70/100/98
f 70/100/98 51/101/99 71/102/100
f 51/101/99 52/103/101 71/102/100
f 71/102/100 52/103/101 72/104/102
f 52/103/101 53/105/103 72/104/102
f 72/104/102 53/105/103 73/106/104
f 53/105/103 54/107/105 73/106/104
f 73/106/104 54/107/105 74/108/106
f 54/107/105 55/109/107 74/108/106
f 74/108/106 55/109/107 75/110/108
f 55/109/107 56/111/109 75/110/108
f 75/110/108 56/111/109 76/112/110
f 56/111/109 57/113/111 76/112/110
f 76/112/110 57/113/111 77/114/112
f 57/113/111 58/115/113 77/114/112
f 77/114/112 58/115/113 78/116/114
f 58/115/113 59/117/115 78/116/114
f 78/116/114 59/117/115 79/118/116
f 59/117/115 60/119/117 79/118/116
f 79/118/116 60/119/117 80/120/118
f 60/119/117 61/121/119 80/120/118
f 80/120/118 61/121/119 81/122/120
f 61/121/119 62/123/121 81/122/120
f 81/122/120 62/123/121 82/124/122
f 62/123/121 43/125/83 82/124/122
f 82/124/122 43/125/83 63/126/85
s 5
f 44/127/123 43/128/124 83/129/125
f 45/130/126 44/127/123 83/129/125
f 46/131/127 45/130/126 83/129/125
f 47/132/128 46/131/127 83/129/125
f 48/133/129 47/132/128 83/129/125
f 49/134/130 48/133/129 83/129/125
f 50/135/131 49/134/130 83/129/125
f 51/136/132 50/135/131 83/129/125
f 52/137/133 51/136/132 83/129/125
f 53/138/134 52/137/133 83/129/125
f 54/139/135 53/138/134 83/129/125
f 55/140/136 54/139/135 83/129/125
f 56/141/137 55/140/136 83/129/125
f 57/142/138 56/141/137 83/129/125
f 58/143/139 57/142/138 83/129/125
f 59/144/140 58/143/139 83/129/125
f 60/145/141 59/144/140 83/129/125
f 61/146/142 60/145/141 83/129/125
f 62/147/143 61/146/142 83/129/125
f 43/128/124 62/147/143 83/129/125
s 6
f 63/148/144 64/149/145 84/150/146
f 64/149/145 65/151/147 84/150/146
f 65/151/147 66/152/148 84/150/146
f 66/152/148 67/153/149 84/150/146
f 67/153/149 68/154/150 84/150/146
f 68/154/150 69/155/151 84/150/146
f 69/155/151 70/156/152 84/150/146
f 70/156/152 71/157/153 84/150/146
f 71/157/153 72/158/154 84/150/146
f 72/158/154 73/159/155 84/150/146
f 73/159/155 74/160/156 84/150/146
f 74/160/156 75/161/157 84/150/146
f 75/161/157 76/162/158 84/150/146
f 76/162/158 77/163/159 84/150/146
f 77/163/159 78/164/160 84/150/146
f 78/164/160 79/165/161 84/150/146
f 79/165/161 80/166/162 84/150/146
f 80/166/162 81/167/163 84/150/146
f 81/167/163 82/168/164 84/150/146
f 82/168/164 63/148/144 84/150/146
s 7
usemtl lambert7SG
f 85/169/165 86/170/166 87/171/167
f 87/171/167 86/170/166 88/172/168
s 8
f 87/173/169 88/174/170 89/175/171
f 89/175/171 88/174/170 90/176/172
s 9
f 89/177/173 90/178/174 91/179/175
f 91/179/175 90/178/174 92/180/176
s 10
f 91/181/177 92/182/178 85/183/179
f 85/183/179 92/182/178 86/184/180
s 11
f 86/185/181 92/186/182 88/187/183
f 88/187/183 92/186/182 90/188/184
s 12
f 91/189/185 85/190/186 89/191/187
f 89/191/187 85/190/186 87/192/188
