# This file uses centimeters as units for non-parametric coordinates.

mtllib Walls14.mtl
g default
v -14.995446 5.000000 15.543614
v -15.004173 5.000000 14.543653
v -14.995446 -0.000000 15.543614
v -15.004173 -0.000000 14.543653
v -4.995828 -0.000000 15.456348
v -5.004554 -0.000000 14.456387
v -4.995828 5.000000 15.456348
v -5.004554 5.000000 14.456387
vt 0.001868 0.001992
vt 0.051481 0.001992
vt 0.051481 0.498129
vt 0.001868 0.498129
vt 0.164962 0.498129
vt 0.115348 0.498129
vt 0.115348 0.001992
vt 0.164962 0.001992
vt 0.058699 0.001992
vt 0.108313 0.001992
vt 0.108313 0.498129
vt 0.058699 0.498129
vt 0.221611 0.498129
vt 0.171997 0.498129
vt 0.171997 0.001992
vt 0.221611 0.001992
vt 0.724782 0.498129
vt 0.228646 0.498129
vt 0.228646 0.001992
vt 0.724782 0.001992
vt 0.439618 0.501871
vt 0.935755 0.501871
vt 0.935755 0.998008
vt 0.439618 0.998008
vn -0.999962 0.000000 0.008727
vn -0.999962 0.000000 0.008727
vn -0.999962 0.000000 0.008727
vn -0.999962 0.000000 0.008727
vn 0.000000 -1.000000 0.000000
vn 0.000000 -1.000000 0.000000
vn 0.000000 -1.000000 0.000000
vn 0.000000 -1.000000 0.000000
vn 0.999962 0.000000 -0.008726
vn 0.999962 0.000000 -0.008726
vn 0.999962 0.000000 -0.008726
vn 0.999962 0.000000 -0.008726
vn 0.000000 1.000000 0.000000
vn 0.000000 1.000000 0.000000
vn 0.000000 1.000000 0.000000
vn 0.000000 1.000000 0.000000
vn -0.008727 0.000000 -0.999962
vn -0.008726 0.000000 -0.999962
vn -0.008727 0.000000 -0.999962
vn -0.008726 0.000000 -0.999962
vn 0.008727 0.000000 0.999962
vn 0.008727 0.000000 0.999962
vn 0.008727 0.000000 0.999962
vn 0.008727 0.000000 0.999962
s 1
g pCube49
usemtl lambert5SG
f 1/1/1 2/2/2 3/4/3
f 3/4/3 2/2/2 4/3/4
s 2
f 3/9/5 4/10/6 5/12/7
f 5/12/7 4/10/6 6/11/8
s 3
f 5/5/9 6/6/10 7/8/11
f 7/8/11 6/6/10 8/7/12
s 4
f 7/13/13 8/14/14 1/16/15
f 1/16/15 8/14/14 2/15/16
s 5
f 2/17/17 8/18/18 4/20/19
f 4/20/19 8/18/18 6/19/20
s 6
f 7/21/21 1/22/22 5/24/23
f 5/24/23 1/22/22 3/23/24
