# This file uses centimeters as units for non-parametric coordinates.

mtllib Walls12.mtl
g default
v 25.396105 0.014330 45.280106
v 45.395344 0.014330 45.105576
v 25.396105 5.014330 45.280106
v 45.395344 5.014330 45.105576
v 25.387379 5.014330 44.280144
v 45.386620 5.014330 44.105614
v 25.387379 0.014330 44.280144
v 45.386620 0.014330 44.105614
vt 0.983766 0.370059
vt 0.989285 0.370594
vt 0.007514 0.622926
vt 0.006267 0.620923
vt 0.986511 0.373582
vt 0.016373 0.373582
vt 0.986511 0.620213
vt 0.016373 0.620213
vt 0.978128 0.619080
vt 0.018284 0.619080
vt 0.989405 0.370572
vt 0.989405 0.622926
vt 0.014839 0.370059
vt 0.014839 0.619314
vt 0.018284 0.372256
vt 0.978128 0.372256
vt 0.012309 0.621931
vt 0.990254 0.621931
vt 0.007514 0.370572
vt 0.989285 0.620923
vt 0.006267 0.370594
vt 0.983766 0.619314
vt 0.012309 0.372444
vt 0.902239 0.372444
vn 0.008727 0.000000 0.999962
vn 0.008727 0.000000 0.999962
vn 0.008727 0.000000 0.999962
vn 0.008727 0.000000 0.999962
vn 0.000000 1.000000 -0.000000
vn 0.000000 1.000000 -0.000000
vn 0.000000 1.000000 -0.000000
vn 0.000000 1.000000 0.000000
vn -0.008727 0.000000 -0.999962
vn -0.008727 0.000000 -0.999962
vn -0.008727 0.000000 -0.999962
vn -0.008727 0.000000 -0.999962
vn 0.000000 -1.000000 -0.000000
vn 0.000000 -1.000000 -0.000000
vn 0.000000 -1.000000 -0.000000
vn 0.000000 -1.000000 0.000000
vn 0.999962 0.000000 -0.008724
vn 0.999962 0.000000 -0.008724
vn 0.999962 0.000000 -0.008724
vn 0.999962 0.000000 -0.008724
vn -0.999962 0.000000 0.008726
vn -0.999962 0.000000 0.008726
vn -0.999962 0.000000 0.008726
vn -0.999962 0.000000 0.008726
s 1
g polySurface14 polySurface5
usemtl lambert7SG
f 1/21/1 2/2/2 3/4/3
f 3/4/3 2/2/2 4/20/4
s 2
f 3/23/5 4/24/6 5/17/7
f 5/17/7 4/24/6 6/18/8
s 3
f 5/6/9 6/5/10 7/8/11
f 7/8/11 6/5/10 8/7/12
s 4
f 7/15/13 8/16/14 1/10/15
f 1/10/15 8/16/14 2/9/16
s 5
f 2/19/17 8/11/18 4/3/19
f 4/3/19 8/11/18 6/12/20
s 6
f 7/13/21 1/1/22 5/14/23
f 5/14/23 1/1/22 3/22/24
