# This file uses centimeters as units for non-parametric coordinates.

mtllib Wardrobe.mtl
g default
v -13.519653 0.000000 -1.856008
v -13.528380 0.000000 -2.855970
v -13.519653 2.000000 -1.856008
v -13.528380 2.000000 -2.855970
v -14.519615 2.000000 -1.847281
v -14.528342 2.000000 -2.847243
v -14.519615 0.000000 -1.847281
v -14.528342 0.000000 -2.847243
v -13.510055 0.000000 -0.756050
v -13.518781 0.000000 -1.756012
v -13.510055 2.000000 -0.756050
v -13.518781 2.000000 -1.756012
v -14.510016 2.000000 -0.747323
v -14.518743 2.000000 -1.747285
v -14.510016 0.000000 -0.747323
v -14.518743 0.000000 -1.747285
v -13.500455 0.000000 0.343908
v -13.509182 0.000000 -0.656053
v -13.500455 2.000000 0.343908
v -13.509182 2.000000 -0.656053
v -14.500417 2.000000 0.352635
v -14.509144 2.000000 -0.647327
v -14.500417 0.000000 0.352635
v -14.509144 0.000000 -0.647327
v -13.490856 0.000000 1.443867
v -13.499582 0.000000 0.443905
v -13.490856 2.000000 1.443867
v -13.499582 2.000000 0.443905
v -14.490818 2.000000 1.452593
v -14.499544 2.000000 0.452631
v -14.490818 0.000000 1.452593
v -14.499544 0.000000 0.452631
v -13.481256 0.000000 2.543825
v -13.489984 0.000000 1.543863
v -13.481256 2.000000 2.543825
v -13.489984 2.000000 1.543863
v -14.481218 2.000000 2.552551
v -14.489945 2.000000 1.552589
v -14.481218 0.000000 2.552551
v -14.489945 0.000000 1.552589
v -13.471658 0.000000 3.643783
v -13.480384 0.000000 2.643821
v -13.471658 2.000000 3.643783
v -13.480384 2.000000 2.643821
v -14.471620 2.000000 3.652509
v -14.480346 2.000000 2.652547
v -14.471620 0.000000 3.652509
v -14.480346 0.000000 2.652547
vt 0.566431 0.574779
vt 0.442741 0.575744
vt 0.440811 0.328364
vt 0.564501 0.327399
vt 0.410497 0.722288
vt 0.410497 0.864323
vt 0.268462 0.864323
vt 0.268462 0.722288
vt 0.309698 0.329387
vt 0.433388 0.328422
vt 0.435319 0.575802
vt 0.311628 0.576767
vt 0.118669 0.864323
vt 0.118669 0.722288
vt 0.260704 0.722288
vt 0.260704 0.864323
vt 0.178801 0.330408
vt 0.302490 0.329443
vt 0.304421 0.576823
vt 0.180731 0.577788
vt 0.173523 0.577845
vt 0.049833 0.578810
vt 0.047903 0.331430
vt 0.171593 0.330464
vt 0.049507 0.329410
vt 0.173201 0.329410
vt 0.173201 0.576798
vt 0.049507 0.576798
vt 0.270714 0.722288
vt 0.412749 0.722288
vt 0.412749 0.864323
vt 0.270714 0.864323
vt 0.304103 0.576798
vt 0.180409 0.576798
vt 0.180409 0.329410
vt 0.304103 0.329410
vt 0.262957 0.864323
vt 0.120922 0.864323
vt 0.120922 0.722288
vt 0.262957 0.722288
vt 0.435005 0.576798
vt 0.311311 0.576798
vt 0.311311 0.329411
vt 0.435005 0.329411
vt 0.442213 0.329410
vt 0.565907 0.329410
vt 0.565907 0.576798
vt 0.442213 0.576798
vt 0.440171 0.331589
vt 0.563865 0.331589
vt 0.563865 0.578977
vt 0.440171 0.578977
vt 0.271896 0.722288
vt 0.413930 0.722288
vt 0.413930 0.864323
vt 0.271896 0.864323
vt 0.433416 0.578977
vt 0.309722 0.578977
vt 0.309722 0.331589
vt 0.433416 0.331589
vt 0.264139 0.864323
vt 0.122103 0.864323
vt 0.122103 0.722288
vt 0.264139 0.722288
vt 0.302967 0.578977
vt 0.179273 0.578977
vt 0.179273 0.331590
vt 0.302967 0.331590
vt 0.048824 0.331589
vt 0.172518 0.331589
vt 0.172518 0.578977
vt 0.048824 0.578977
vt 0.818742 0.026529
vt 0.948549 0.026529
vt 0.948549 0.286144
vt 0.818742 0.286144
vt 0.786309 0.717165
vt 0.970267 0.717165
vt 0.970267 0.901123
vt 0.786309 0.901123
vt 0.811652 0.286144
vt 0.681845 0.286144
vt 0.681845 0.026529
vt 0.811652 0.026529
vt 0.776262 0.901123
vt 0.592305 0.901123
vt 0.592305 0.717165
vt 0.776262 0.717165
vt 0.674756 0.286144
vt 0.544948 0.286144
vt 0.544948 0.026529
vt 0.674756 0.026529
vt 0.408051 0.026529
vt 0.537859 0.026529
vt 0.537859 0.286144
vt 0.408051 0.286144
vt 0.951518 0.290709
vt 0.821725 0.288819
vt 0.825505 0.029231
vt 0.955299 0.031122
vt 0.772602 0.713401
vt 0.772602 0.897359
vt 0.588644 0.897359
vt 0.588644 0.713401
vt 0.687923 0.027228
vt 0.817717 0.029118
vt 0.813936 0.288706
vt 0.684142 0.286815
vt 0.967599 0.897359
vt 0.783641 0.897359
vt 0.783641 0.713401
vt 0.967599 0.713401
vt 0.550566 0.025227
vt 0.680359 0.027118
vt 0.676579 0.286705
vt 0.546785 0.284815
vt 0.539222 0.284705
vt 0.409428 0.282814
vt 0.413208 0.023227
vt 0.543002 0.025117
vt 0.407769 0.026375
vt 0.537577 0.026375
vt 0.537577 0.285990
vt 0.407769 0.285990
vt 0.589802 0.713401
vt 0.773760 0.713401
vt 0.773760 0.897359
vt 0.589802 0.897359
vt 0.674949 0.285990
vt 0.545141 0.285990
vt 0.545141 0.026375
vt 0.674949 0.026375
vt 0.968438 0.897359
vt 0.784480 0.897359
vt 0.784480 0.713401
vt 0.968438 0.713401
vt 0.812321 0.285990
vt 0.682513 0.285990
vt 0.682513 0.026375
vt 0.812321 0.026375
vt 0.819885 0.026375
vt 0.949692 0.026375
vt 0.949692 0.285990
vt 0.819885 0.285990
vn 0.999962 0.000000 -0.008727
vn 0.999962 0.000000 -0.008727
vn 0.999962 0.000000 -0.008727
vn 0.999962 0.000000 -0.008727
vn 0.000000 1.000000 0.000000
vn 0.000000 1.000000 0.000000
vn 0.000000 1.000000 0.000000
vn 0.000000 1.000000 0.000000
vn -0.999962 0.000000 0.008727
vn -0.999962 0.000000 0.008727
vn -0.999962 0.000000 0.008727
vn -0.999962 0.000000 0.008727
vn 0.000000 -1.000000 0.000000
vn 0.000000 -1.000000 0.000000
vn 0.000000 -1.000000 0.000000
vn 0.000000 -1.000000 0.000000
vn -0.008727 0.000000 -0.999962
vn -0.008726 0.000000 -0.999962
vn -0.008726 0.000000 -0.999962
vn -0.008726 0.000000 -0.999962
vn 0.008726 0.000000 0.999962
vn 0.008726 0.000000 0.999962
vn 0.008726 0.000000 0.999962
vn 0.008726 0.000000 0.999962
vn 0.999962 0.000000 -0.008726
vn 0.999962 0.000000 -0.008726
vn 0.999962 0.000000 -0.008726
vn 0.999962 0.000000 -0.008726
vn 0.000000 1.000000 0.000000
vn 0.000000 1.000000 0.000000
vn 0.000000 1.000000 0.000000
vn 0.000000 1.000000 0.000000
vn -0.999962 0.000000 0.008726
vn -0.999962 0.000000 0.008726
vn -0.999962 0.000000 0.008726
vn -0.999962 0.000000 0.008726
vn 0.000000 -1.000000 0.000000
vn 0.000000 -1.000000 0.000000
vn 0.000000 -1.000000 0.000000
vn 0.000000 -1.000000 0.000000
vn -0.008726 0.000000 -0.999962
vn -0.008726 0.000000 -0.999962
vn -0.008726 0.000000 -0.999962
vn -0.008726 0.000000 -0.999962
vn 0.008726 0.000000 0.999962
vn 0.008726 0.000000 0.999962
vn 0.008726 0.000000 0.999962
vn 0.008726 0.000000 0.999962
vn 0.999962 0.000000 -0.008727
vn 0.999962 0.000000 -0.008727
vn 0.999962 0.000000 -0.008727
vn 0.999962 0.000000 -0.008727
vn 0.000000 1.000000 0.000000
vn 0.000000 1.000000 0.000000
vn 0.000000 1.000000 0.000000
vn 0.000000 1.000000 0.000000
vn -0.999962 0.000000 0.008727
vn -0.999962 0.000000 0.008727
vn -0.999962 0.000000 0.008727
vn -0.999962 0.000000 0.008727
vn 0.000000 -1.000000 0.000000
vn 0.000000 -1.000000 0.000000
vn 0.000000 -1.000000 0.000000
vn 0.000000 -1.000000 0.000000
vn -0.008726 0.000000 -0.999962
vn -0.008726 0.000000 -0.999962
vn -0.008726 0.000000 -0.999962
vn -0.008726 0.000000 -0.999962
vn 0.008727 0.000000 0.999962
vn 0.008727 0.000000 0.999962
vn 0.008727 0.000000 0.999962
vn 0.008727 0.000000 0.999962
vn 0.999962 0.000000 -0.008726
vn 0.999962 0.000000 -0.008726
vn 0.999962 0.000000 -0.008726
vn 0.999962 0.000000 -0.008726
vn 0.000000 1.000000 0.000000
vn 0.000000 1.000000 0.000000
vn 0.000000 1.000000 0.000000
vn 0.000000 1.000000 0.000000
vn -0.999962 0.000000 0.008726
vn -0.999962 0.000000 0.008726
vn -0.999962 0.000000 0.008726
vn -0.999962 0.000000 0.008726
vn 0.000000 -1.000000 0.000000
vn 0.000000 -1.000000 0.000000
vn 0.000000 -1.000000 0.000000
vn 0.000000 -1.000000 0.000000
vn -0.008727 0.000000 -0.999962
vn -0.008727 0.000000 -0.999962
vn -0.008727 0.000000 -0.999962
vn -0.008727 0.000000 -0.999962
vn 0.008727 0.000000 0.999962
vn 0.008727 0.000000 0.999962
vn 0.008726 0.000000 0.999962
vn 0.008726 0.000000 0.999962
vn 0.999962 0.000000 -0.008727
vn 0.999962 0.000000 -0.008727
vn 0.999962 0.000000 -0.008727
vn 0.999962 0.000000 -0.008727
vn 0.000000 1.000000 0.000000
vn 0.000000 1.000000 0.000000
vn 0.000000 1.000000 0.000000
vn 0.000000 1.000000 0.000000
vn -0.999962 0.000000 0.008727
vn -0.999962 0.000000 0.008727
vn -0.999962 0.000000 0.008727
vn -0.999962 0.000000 0.008727
vn 0.000000 -1.000000 0.000000
vn 0.000000 -1.000000 0.000000
vn 0.000000 -1.000000 0.000000
vn 0.000000 -1.000000 0.000000
vn -0.008727 0.000000 -0.999962
vn -0.008727 0.000000 -0.999962
vn -0.008727 0.000000 -0.999962
vn -0.008727 0.000000 -0.999962
vn 0.008727 0.000000 0.999962
vn 0.008727 0.000000 0.999962
vn 0.008727 0.000000 0.999962
vn 0.008727 0.000000 0.999962
vn 0.999962 0.000000 -0.008726
vn 0.999962 0.000000 -0.008726
vn 0.999962 0.000000 -0.008726
vn 0.999962 0.000000 -0.008726
vn 0.000000 1.000000 0.000000
vn 0.000000 1.000000 0.000000
vn 0.000000 1.000000 0.000000
vn 0.000000 1.000000 0.000000
vn -0.999962 0.000000 0.008726
vn -0.999962 0.000000 0.008726
vn -0.999962 0.000000 0.008726
vn -0.999962 0.000000 0.008726
vn 0.000000 -1.000000 0.000000
vn 0.000000 -1.000000 0.000000
vn 0.000000 -1.000000 0.000000
vn 0.000000 -1.000000 0.000000
vn -0.008727 0.000000 -0.999962
vn -0.008726 0.000000 -0.999962
vn -0.008726 0.000000 -0.999962
vn -0.008726 0.000000 -0.999962
vn 0.008726 0.000000 0.999962
vn 0.008726 0.000000 0.999962
vn 0.008726 0.000000 0.999962
vn 0.008727 0.000000 0.999962
s 1
g polySurface21
usemtl lambert4SG
f 1/1/1 2/2/2 3/4/3
f 3/4/3 2/2/2 4/3/4
s 2
f 3/5/5 4/6/6 5/8/7
f 5/8/7 4/6/6 6/7/8
s 3
f 5/9/9 6/10/10 7/12/11
f 7/12/11 6/10/10 8/11/12
s 4
f 7/13/13 8/14/14 1/16/15
f 1/16/15 8/14/14 2/15/16
s 5
f 2/17/17 8/18/18 4/20/19
f 4/20/19 8/18/18 6/19/20
s 6
f 7/21/21 1/22/22 5/24/23
f 5/24/23 1/22/22 3/23/24
s 7
f 9/25/25 10/26/26 11/28/27
f 11/28/27 10/26/26 12/27/28
s 8
f 11/29/29 12/30/30 13/32/31
f 13/32/31 12/30/30 14/31/32
s 9
f 13/33/33 14/34/34 15/36/35
f 15/36/35 14/34/34 16/35/36
s 10
f 15/37/37 16/38/38 9/40/39
f 9/40/39 16/38/38 10/39/40
s 11
f 10/41/41 16/42/42 12/44/43
f 12/44/43 16/42/42 14/43/44
s 12
f 15/45/45 9/46/46 13/48/47
f 13/48/47 9/46/46 11/47/48
s 13
f 17/49/49 18/50/50 19/52/51
f 19/52/51 18/50/50 20/51/52
s 14
f 19/53/53 20/54/54 21/56/55
f 21/56/55 20/54/54 22/55/56
s 15
f 21/57/57 22/58/58 23/60/59
f 23/60/59 22/58/58 24/59/60
s 16
f 23/61/61 24/62/62 17/64/63
f 17/64/63 24/62/62 18/63/64
s 17
f 18/65/65 24/66/66 20/68/67
f 20/68/67 24/66/66 22/67/68
s 18
f 23/69/69 17/70/70 21/72/71
f 21/72/71 17/70/70 19/71/72
s 19
f 25/73/73 26/74/74 27/76/75
f 27/76/75 26/74/74 28/75/76
s 20
f 27/77/77 28/78/78 29/80/79
f 29/80/79 28/78/78 30/79/80
s 21
f 29/81/81 30/82/82 31/84/83
f 31/84/83 30/82/82 32/83/84
s 22
f 31/85/85 32/86/86 25/88/87
f 25/88/87 32/86/86 26/87/88
s 23
f 26/89/89 32/90/90 28/92/91
f 28/92/91 32/90/90 30/91/92
s 24
f 31/93/93 25/94/94 29/96/95
f 29/96/95 25/94/94 27/95/96
s 25
f 33/97/97 34/98/98 35/100/99
f 35/100/99 34/98/98 36/99/100
s 26
f 35/101/101 36/102/102 37/104/103
f 37/104/103 36/102/102 38/103/104
s 27
f 37/105/105 38/106/106 39/108/107
f 39/108/107 38/106/106 40/107/108
s 28
f 39/109/109 40/110/110 33/112/111
f 33/112/111 40/110/110 34/111/112
s 29
f 34/113/113 40/114/114 36/116/115
f 36/116/115 40/114/114 38/115/116
s 30
f 39/117/117 33/118/118 37/120/119
f 37/120/119 33/118/118 35/119/120
s 31
f 41/121/121 42/122/122 43/124/123
f 43/124/123 42/122/122 44/123/124
s 32
f 43/125/125 44/126/126 45/128/127
f 45/128/127 44/126/126 46/127/128
s 33
f 45/129/129 46/130/130 47/132/131
f 47/132/131 46/130/130 48/131/132
s 34
f 47/133/133 48/134/134 41/136/135
f 41/136/135 48/134/134 42/135/136
s 35
f 42/137/137 48/138/138 44/140/139
f 44/140/139 48/138/138 46/139/140
s 36
f 47/141/141 41/142/142 45/144/143
f 45/144/143 41/142/142 43/143/144
